<svg width="50" height="50" viewBox="0 0 50 50" fill="none" xmlns="http://www.w3.org/2000/svg">
<path d="M47.4275 37.4999C47.7806 36.896 48 36.2156 48 35.6046V14.3952C48 13.7842 47.7809 13.1039 47.4276 12.5L25.5 25L47.4275 37.4999Z" fill="#00599C"/>
<path d="M27.4487 49.5417L46.0516 38.937C46.5875 38.6315 47.0745 38.104 47.4276 37.5L25.5001 25L3.57263 37.5001C3.92572 38.104 4.41293 38.6317 4.94866 38.937L23.5516 49.5417C24.6232 50.1527 26.377 50.1527 27.4487 49.5417Z" fill="#004482"/>
<path d="M47.4276 12.5C47.0744 11.8959 46.5872 11.3684 46.0515 11.0629L27.4485 0.458256C26.3769 -0.152752 24.6231 -0.152752 23.5515 0.458256L4.94853 11.0629C3.87676 11.6738 3 13.1734 3 14.3953V35.6047C3 36.2157 3.21926 36.8962 3.5725 37.5001L25.5 25.0001L47.4276 12.5Z" fill="#659AD2"/>
<path d="M25.5 39.8116C17.229 39.8116 10.5 33.1676 10.5 25.001C10.5 16.8344 17.229 10.1904 25.5 10.1904C30.8371 10.1904 35.8146 13.0262 38.4899 17.5911L31.9982 21.3001C30.6593 19.0152 28.1691 17.5957 25.5 17.5957C21.3644 17.5957 18 20.9176 18 25.001C18 29.0842 21.3644 32.4063 25.5 32.4063C28.1694 32.4063 30.6596 30.9868 31.9987 28.7015L38.4903 32.4103C35.815 36.9756 30.8374 39.8116 25.5 39.8116Z" fill="white"/>
<path d="M40.4996 24.1778H38.8329V22.5322H37.1664V24.1778H35.4996V25.8234H37.1664V27.4691H38.8329V25.8234H40.4996V24.1778Z" fill="white"/>
<path d="M46.7501 24.1778H45.0834V22.5322H43.4169V24.1778H41.7501V25.8234H43.4169V27.4691H45.0834V25.8234H46.7501V24.1778Z" fill="white"/>
</svg>
