<svg width="55" height="55" viewBox="0 0 55 55" fill="none" xmlns="http://www.w3.org/2000/svg">
<path d="M3 27.5186C3 23.8093 3 20.2003 3 16.4911C3 14.4861 3.8982 12.9823 5.69461 11.9798C12.1816 8.17035 18.7685 4.46111 25.3553 0.751873C27.0519 -0.250624 28.7485 -0.250624 30.5449 0.751873C37.1317 4.46111 43.7186 8.17035 50.4052 11.9798C52.1018 12.9823 53 14.4861 53 16.4911C53 23.9096 53 31.2278 53 38.6463C53 40.6513 52.1018 42.155 50.4052 43.1575C43.8184 46.8667 37.2315 50.576 30.5449 54.2852C28.8483 55.2877 27.1517 55.1875 25.3553 54.2852C18.7685 50.4757 12.1816 46.8667 5.69461 43.1575C3.8982 42.155 3 40.6513 3 38.546C3 34.8368 3 31.2278 3 27.5186ZM50.505 27.5186C50.505 23.9096 50.505 20.2003 50.505 16.5913C50.505 15.3883 50.006 14.5863 49.008 13.9848C42.521 10.2756 35.9341 6.66661 29.4471 2.95737C28.4491 2.35587 27.4511 2.35587 26.4531 2.95737C19.9661 6.66661 13.3792 10.2756 6.89222 13.9848C5.79441 14.5863 5.39521 15.3883 5.39521 16.6916C5.39521 23.9096 5.39521 31.1275 5.39521 38.4458C5.39521 39.749 5.89421 40.6513 6.99202 41.2528C13.479 44.8618 19.9661 48.571 26.3533 52.18C27.4511 52.7815 28.3493 52.7815 29.4471 52.18C35.9341 48.4707 42.521 44.8618 49.008 41.1525C50.006 40.551 50.505 39.749 50.505 38.546C50.505 34.8368 50.505 31.2278 50.505 27.5186Z" fill="#00A6FB"/>
<path d="M33.8383 23.409L41.0239 19.1985C37.2315 13.2838 30.2455 10.7775 23.7584 12.7825C17.0718 14.6873 12.481 20.8025 12.481 27.82C12.481 34.7372 17.2714 40.8524 23.958 42.6569C30.5449 44.3612 37.3313 41.7547 41.0239 35.9402L33.8383 31.7297C32.4411 33.434 30.6447 34.5367 28.4491 34.7372C26.2534 34.8375 24.2574 34.1357 22.7604 32.5317C20.1656 29.7247 20.0658 25.5142 22.6606 22.7072C23.958 21.3037 25.455 20.5017 27.3512 20.4015C30.0459 20.201 32.1417 21.3037 33.8383 23.409Z" fill="#00A6FB"/>
<path d="M44.517 21.6035C45.4152 21.6035 46.1138 21.6035 46.9122 21.6035C46.9122 22.4055 46.9122 23.1073 46.9122 23.9093C47.7106 23.9093 48.509 23.9093 49.3074 23.9093C49.3074 24.7113 49.3074 25.5133 49.3074 26.3153C48.509 26.3153 47.8104 26.3153 47.012 26.3153C47.012 27.1173 47.012 27.9192 47.012 28.7212C47.8104 28.7212 48.509 28.7212 49.3074 28.7212C49.3074 29.5232 49.3074 30.3252 49.3074 31.1272C48.509 31.1272 47.8104 31.1272 47.012 31.1272C47.012 31.9292 47.012 32.7312 47.012 33.5332C46.2136 33.5332 45.4152 33.5332 44.6168 33.5332C44.6168 32.8315 44.6168 32.0295 44.6168 31.2275C43.8184 31.2275 43.02 31.2275 42.2216 31.2275C42.2216 31.9292 42.2216 32.7312 42.2216 33.5332C41.4232 33.5332 40.6248 33.5332 39.8263 33.5332C39.8263 32.7312 39.8263 32.0295 39.8263 31.2275C39.0279 31.2275 38.2295 31.2275 37.4311 31.2275C37.4311 30.4255 37.4311 29.6235 37.4311 28.8215C38.2295 28.8215 38.9281 28.8215 39.7265 28.8215C39.7265 28.0195 39.7265 27.2175 39.7265 26.4155C38.9281 26.4155 38.2295 26.4155 37.4311 26.4155C37.4311 25.6135 37.4311 24.8115 37.4311 24.0095C38.2295 24.0095 38.9281 24.0095 39.7265 24.0095C39.7265 23.2075 39.7265 22.4055 39.7265 21.6035C40.5249 21.6035 41.3234 21.6035 42.1218 21.6035C42.1218 22.3053 42.1218 23.1073 42.1218 23.9093C42.9202 23.9093 43.7186 23.9093 44.517 23.9093C44.517 23.1073 44.517 22.4055 44.517 21.6035ZM44.517 28.7212C44.517 27.9192 44.517 27.2175 44.517 26.4155C43.7186 26.4155 43.02 26.4155 42.2216 26.4155C42.2216 27.2175 42.2216 28.0195 42.2216 28.7212C43.02 28.7212 43.7186 28.7212 44.517 28.7212Z" fill="#00A6FB"/>
</svg>
