<svg width="211" height="2171" viewBox="0 0 211 2171" fill="none" xmlns="http://www.w3.org/2000/svg">
<path d="M143.51 1092.89L143.51 808.166L139.561 808.166L139.561 1088.94L143.51 1092.89Z" fill="#0F95F7"/>
<path d="M148.96 808.561C148.96 804.45 145.643 801.13 141.536 801.13C137.428 801.13 134.111 804.45 134.111 808.561C134.111 812.672 137.428 815.993 141.536 815.993C145.643 815.993 148.96 812.672 148.96 808.561Z" fill="#0F95F7"/>
<path d="M10.1098 109.85L10.1098 412.246L71.3207 473.515L71.3207 1015.06L143.55 1087.36L140.746 1090.16L67.6081 1017.11L67.3716 475.176L6.16068 413.906L6.1607 109.85L10.1098 109.85Z" fill="#0F95F7"/>
<path d="M15.5201 110.206C15.5201 106.095 12.2028 102.775 8.09575 102.775C3.98869 102.775 0.671469 106.095 0.671468 110.206C0.671468 114.317 3.98869 117.638 8.09575 117.638C12.2028 117.638 15.5201 114.317 15.5201 110.206Z" fill="#0F95F7"/>
<path d="M147.14 1453.16L149.944 1455.92L123.564 1482.33L123.564 1581.15L43.2789 1661.51L43.2789 2090.24L39.3298 2090.24L39.3298 1659.89L119.615 1579.49L119.615 1480.67L147.14 1453.16Z" fill="#0F95F7"/>
<path d="M152.948 1460.08C155.831 1457.19 155.831 1452.49 152.948 1449.56C150.066 1446.67 145.366 1446.67 142.444 1449.56C139.521 1452.45 139.561 1457.15 142.444 1460.08C145.327 1462.96 150.026 1462.96 152.948 1460.08Z" fill="#0F95F7"/>
<path d="M24.5208 956.478L24.5207 1056.29L71.9099 1103.72L71.9099 1230.89L10.6989 1292.16L10.6989 1383.39L43.2789 1416L43.2789 1768.79L39.3298 1768.79L39.3298 1417.66L6.74982 1385.05L6.74982 1290.5L67.9608 1229.23L67.9608 1105.38L20.5717 1057.95L20.5717 956.478L24.5208 956.478Z" fill="#0F95F7"/>
<path d="M29.3813 956.834C29.3813 952.723 26.0641 949.402 21.957 949.402C17.85 949.402 14.5328 952.723 14.5328 956.834C14.5328 960.945 17.85 964.265 21.957 964.265C26.0641 964.265 29.3813 960.945 29.3813 956.834Z" fill="#0F95F7"/>
<path d="M5.76254 1749.23L39.3298 1782.83L39.3298 2171L43.2789 2171L43.2789 1781.21L9.71163 1747.61L9.71163 1660.6L5.76254 1660.6L5.76254 1749.23Z" fill="#0F95F7"/>
<path d="M14.8486 1661C14.8486 1656.89 11.5314 1653.57 7.42433 1653.57C3.31728 1653.57 5.42606e-05 1656.89 5.40809e-05 1661C5.39012e-05 1665.11 3.31728 1668.43 7.42433 1668.43C11.5314 1668.43 14.8486 1665.11 14.8486 1661Z" fill="#0F95F7"/>
<path d="M67.581 955.111L67.9608 1109.6L71.9099 1113.6L71.3207 953.474L16.0334 898.134L16.0334 529.172L12.0843 529.172L12.0843 899.754L67.581 955.111Z" fill="#0F95F7"/>
<path d="M21.4831 529.528C21.4831 525.417 18.1659 522.096 14.0589 522.096C9.9518 522.096 6.63458 525.417 6.63458 529.528C6.63458 533.639 9.9518 536.959 14.0589 536.959C18.1659 536.959 21.4831 533.639 21.4831 529.528Z" fill="#0F95F7"/>
<path d="M205.55 7.07565L205.59 216.894L137.113 285.437L137.113 604.276L70.136 671.317L67.3716 668.511L133.163 602.656L133.164 283.777L201.641 215.274L201.601 7.07565L205.55 7.07565Z" fill="#0F95F7"/>
<path d="M211 7.43142C211 3.32042 207.683 -1.45001e-07 203.576 -3.24526e-07C199.469 -5.04051e-07 196.152 3.32042 196.152 7.43142C196.152 11.5424 199.469 14.8628 203.576 14.8628C207.683 14.8628 211 11.5424 211 7.43142Z" fill="#0F95F7"/>
<path d="M104.888 1278.76L104.888 1434.58L42.6897 1496.84L42.6897 1683.77L39.3298 1683.77L39.3298 1495.06L100.939 1432.92L100.939 1278.76L104.888 1278.76Z" fill="#0F95F7"/>
<path d="M110.338 1279.11C110.338 1275 107.02 1271.68 102.913 1271.68C98.8063 1271.68 95.4891 1275 95.4891 1279.11C95.4891 1283.22 98.8063 1286.54 102.913 1286.54C107.02 1286.54 110.338 1283.22 110.338 1279.11Z" fill="#0F95F7"/>
</svg>
