<svg width="90" height="34" viewBox="0 0 90 34" fill="none" xmlns="http://www.w3.org/2000/svg">
<path d="M6.7921 10.2947C6.61682 10.2947 6.573 10.2061 6.66064 10.0732L7.58085 8.87682C7.66849 8.74389 7.88759 8.65527 8.06287 8.65527H23.7064C23.8817 8.65527 23.9255 8.7882 23.8379 8.92113L23.093 10.0732C23.0053 10.2061 22.7862 10.339 22.6548 10.339L6.7921 10.2947Z" fill="#00ACD7"/>
<path d="M0.175278 14.3718C0 14.3718 -0.0438195 14.2832 0.0438195 14.1503L0.96403 12.954C1.05167 12.821 1.27077 12.7324 1.44604 12.7324H21.4278C21.603 12.7324 21.6907 12.8653 21.6469 12.9983L21.2963 14.0617C21.2525 14.2389 21.0772 14.3275 20.9019 14.3275L0.175278 14.3718Z" fill="#00ACD7"/>
<path d="M10.7795 18.4461C10.6042 18.4461 10.5604 18.3131 10.6481 18.1802L11.2615 17.0725C11.3492 16.9396 11.5245 16.8066 11.6997 16.8066H20.4636C20.6389 16.8066 20.7266 16.9396 20.7266 17.1168L20.6389 18.1802C20.6389 18.3574 20.4636 18.4904 20.3322 18.4904L10.7795 18.4461Z" fill="#00ACD7"/>
<path d="M56.2643 9.49728C53.5037 10.2062 51.6195 10.7379 48.9026 11.4469C48.2453 11.6241 48.2015 11.6684 47.6319 11.0038C46.9746 10.2505 46.4926 9.76313 45.5724 9.32004C42.8117 7.94647 40.1387 8.34525 37.641 9.98467C34.6613 11.9343 33.1276 14.8143 33.1714 18.4033C33.2152 21.948 35.6253 24.8724 39.0871 25.3598C42.0668 25.7586 44.5645 24.6952 46.5364 22.4354C46.9308 21.948 47.2813 21.4163 47.7195 20.796C46.142 20.796 44.1701 20.796 39.2623 20.796C38.3421 20.796 38.123 20.22 38.4298 19.4667C38.9994 18.0932 40.0511 15.7891 40.6646 14.6371C40.796 14.3712 41.1028 13.9281 41.7601 13.9281C43.9949 13.9281 52.2329 13.9281 57.7104 13.9281C57.6227 15.1245 57.6227 16.3208 57.4475 17.5172C56.9654 20.7074 55.7823 23.6318 53.8543 26.2017C50.6992 30.411 46.5802 33.0252 41.3657 33.7341C37.0714 34.3102 33.0838 33.4683 29.5782 30.8098C26.3356 28.3285 24.4952 25.0496 24.0131 20.9732C23.4435 16.1436 24.8457 11.8013 27.7378 7.99078C30.849 3.87007 34.968 1.25585 40.0073 0.325371C44.1263 -0.427877 48.0701 0.0595183 51.6195 2.4965C53.9419 4.0473 55.607 6.17412 56.7025 8.74403C56.9654 9.14281 56.7902 9.36435 56.2643 9.49728Z" fill="#00ACD7"/>
<path d="M70.7686 34.0008C66.781 33.9122 63.144 32.7602 60.0767 30.1017C57.4913 27.8419 55.87 24.9619 55.3441 21.5501C54.5554 16.5432 55.9138 12.1123 58.8935 8.16886C62.0923 3.91522 65.9485 1.69978 71.163 0.769299C75.6326 -0.0282576 79.8393 0.41483 83.6516 3.02904C87.1133 5.42172 89.2605 8.65625 89.8301 12.9099C90.5751 18.8916 88.8661 23.7655 84.7909 27.9305C81.8988 30.8992 78.3494 32.7602 74.2742 33.6021C73.0911 33.8236 71.9079 33.8679 70.7686 34.0008ZM81.1977 16.1001C81.1539 15.5241 81.1539 15.081 81.0662 14.6379C80.2775 10.2514 76.2899 7.77008 72.127 8.74487C68.0518 9.67535 65.4226 12.2896 64.4586 16.4546C63.6699 19.9107 65.335 23.4111 68.49 24.8289C70.9001 25.8923 73.3102 25.7594 75.6326 24.5631C79.0943 22.7464 80.9786 19.9107 81.1977 16.1001Z" fill="#00ACD7"/>
</svg>
