<svg width="191" height="28" viewBox="0 0 191 28" fill="none" xmlns="http://www.w3.org/2000/svg">
<path d="M13.056 23C12.88 22.424 12.68 21.832 12.456 21.224C12.248 20.616 12.04 20.008 11.832 19.4H5.352C5.144 20.008 4.928 20.616 4.704 21.224C4.496 21.832 4.304 22.424 4.128 23H0.24C0.864 21.208 1.456 19.552 2.016 18.032C2.576 16.512 3.12 15.08 3.648 13.736C4.192 12.392 4.72 11.12 5.232 9.92C5.76 8.704 6.304 7.52 6.864 6.368H10.44C10.984 7.52 11.52 8.704 12.048 9.92C12.576 11.12 13.104 12.392 13.632 13.736C14.176 15.08 14.728 16.512 15.288 18.032C15.848 19.552 16.44 21.208 17.064 23H13.056ZM8.568 10.136C8.488 10.376 8.368 10.704 8.208 11.12C8.048 11.536 7.864 12.016 7.656 12.56C7.448 13.104 7.216 13.704 6.96 14.36C6.72 15.016 6.472 15.704 6.216 16.424H10.944C10.688 15.704 10.44 15.016 10.2 14.36C9.96 13.704 9.728 13.104 9.504 12.56C9.296 12.016 9.112 11.536 8.952 11.12C8.792 10.704 8.664 10.376 8.568 10.136ZM29.4169 23C28.3449 21.096 27.1849 19.216 25.9369 17.36C24.6889 15.504 23.3609 13.752 21.9529 12.104V23H18.2569V6.368H21.3049C21.8329 6.896 22.4169 7.544 23.0569 8.312C23.6969 9.08 24.3449 9.904 25.0009 10.784C25.6729 11.648 26.3369 12.552 26.9929 13.496C27.6489 14.424 28.2649 15.32 28.8409 16.184V6.368H32.5609V23H29.4169ZM39.1815 19.952C39.3575 19.968 39.5575 19.984 39.7815 20C40.0215 20 40.3015 20 40.6215 20C42.4935 20 43.8775 19.528 44.7735 18.584C45.6855 17.64 46.1415 16.336 46.1415 14.672C46.1415 12.928 45.7095 11.608 44.8455 10.712C43.9815 9.816 42.6135 9.368 40.7415 9.368C40.4855 9.368 40.2215 9.376 39.9495 9.392C39.6775 9.392 39.4215 9.408 39.1815 9.44V19.952ZM50.0055 14.672C50.0055 16.112 49.7815 17.368 49.3335 18.44C48.8855 19.512 48.2455 20.4 47.4135 21.104C46.5975 21.808 45.5975 22.336 44.4135 22.688C43.2295 23.04 41.9015 23.216 40.4295 23.216C39.7575 23.216 38.9735 23.184 38.0775 23.12C37.1815 23.072 36.3015 22.96 35.4375 22.784V6.584C36.3015 6.424 37.1975 6.32 38.1255 6.272C39.0695 6.208 39.8775 6.176 40.5495 6.176C41.9735 6.176 43.2615 6.336 44.4135 6.656C45.5815 6.976 46.5815 7.48 47.4135 8.168C48.2455 8.856 48.8855 9.736 49.3335 10.808C49.7815 11.88 50.0055 13.168 50.0055 14.672ZM52.1728 23V6.368H63.4048V9.512H55.9168V12.776H62.5648V15.848H55.9168V19.856H63.9568V23H52.1728ZM70.6395 6.176C73.1355 6.176 75.0475 6.624 76.3755 7.52C77.7035 8.4 78.3675 9.776 78.3675 11.648C78.3675 12.816 78.0955 13.768 77.5515 14.504C77.0235 15.224 76.2555 15.792 75.2475 16.208C75.5835 16.624 75.9355 17.104 76.3035 17.648C76.6715 18.176 77.0315 18.736 77.3835 19.328C77.7515 19.904 78.1035 20.512 78.4395 21.152C78.7755 21.776 79.0875 22.392 79.3755 23H75.1755C74.8715 22.456 74.5595 21.904 74.2395 21.344C73.9355 20.784 73.6155 20.24 73.2795 19.712C72.9595 19.184 72.6395 18.688 72.3195 18.224C71.9995 17.744 71.6795 17.312 71.3595 16.928H69.5115V23H65.7675V6.608C66.5835 6.448 67.4235 6.336 68.2875 6.272C69.1675 6.208 69.9515 6.176 70.6395 6.176ZM70.8555 9.368C70.5835 9.368 70.3355 9.376 70.1115 9.392C69.9035 9.408 69.7035 9.424 69.5115 9.44V13.952H70.5675C71.9755 13.952 72.9835 13.776 73.5915 13.424C74.1995 13.072 74.5035 12.472 74.5035 11.624C74.5035 10.808 74.1915 10.232 73.5675 9.896C72.9595 9.544 72.0555 9.368 70.8555 9.368ZM90.1569 20.144C90.6849 20.144 91.1169 20.104 91.4529 20.024C91.8049 19.928 92.0849 19.808 92.2929 19.664C92.5009 19.504 92.6449 19.32 92.7249 19.112C92.8049 18.904 92.8449 18.672 92.8449 18.416C92.8449 17.872 92.5889 17.424 92.0769 17.072C91.5649 16.704 90.6849 16.312 89.4369 15.896C88.8929 15.704 88.3489 15.488 87.8049 15.248C87.2609 14.992 86.7729 14.68 86.3409 14.312C85.9089 13.928 85.5569 13.472 85.2849 12.944C85.0129 12.4 84.8769 11.744 84.8769 10.976C84.8769 10.208 85.0209 9.52 85.3089 8.912C85.5969 8.288 86.0049 7.76 86.5329 7.328C87.0609 6.896 87.7009 6.568 88.4529 6.344C89.2049 6.104 90.0529 5.984 90.9969 5.984C92.1169 5.984 93.0849 6.104 93.9009 6.344C94.7169 6.584 95.3889 6.848 95.9169 7.136L94.8369 10.088C94.3729 9.848 93.8529 9.64 93.2769 9.464C92.7169 9.272 92.0369 9.176 91.2369 9.176C90.3409 9.176 89.6929 9.304 89.2929 9.56C88.9089 9.8 88.7169 10.176 88.7169 10.688C88.7169 10.992 88.7889 11.248 88.9329 11.456C89.0769 11.664 89.2769 11.856 89.5329 12.032C89.8049 12.192 90.1089 12.344 90.4449 12.488C90.7969 12.616 91.1809 12.752 91.5969 12.896C92.4609 13.216 93.2129 13.536 93.8529 13.856C94.4929 14.16 95.0209 14.52 95.4369 14.936C95.8689 15.352 96.1889 15.84 96.3969 16.4C96.6049 16.96 96.7089 17.64 96.7089 18.44C96.7089 19.992 96.1649 21.2 95.0769 22.064C93.9889 22.912 92.3489 23.336 90.1569 23.336C89.4209 23.336 88.7569 23.288 88.1649 23.192C87.5729 23.112 87.0449 23.008 86.5809 22.88C86.1329 22.752 85.7409 22.616 85.4049 22.472C85.0849 22.328 84.8129 22.192 84.5889 22.064L85.6449 19.088C86.1409 19.36 86.7489 19.608 87.4689 19.832C88.2049 20.04 89.1009 20.144 90.1569 20.144ZM98.6297 23V6.368H109.862V9.512H102.374V12.776H109.022V15.848H102.374V19.856H110.414V23H98.6297ZM117.096 6.176C119.592 6.176 121.504 6.624 122.832 7.52C124.16 8.4 124.824 9.776 124.824 11.648C124.824 12.816 124.552 13.768 124.008 14.504C123.48 15.224 122.712 15.792 121.704 16.208C122.04 16.624 122.392 17.104 122.76 17.648C123.128 18.176 123.488 18.736 123.84 19.328C124.208 19.904 124.56 20.512 124.896 21.152C125.232 21.776 125.544 22.392 125.832 23H121.632C121.328 22.456 121.016 21.904 120.696 21.344C120.392 20.784 120.072 20.24 119.736 19.712C119.416 19.184 119.096 18.688 118.776 18.224C118.456 17.744 118.136 17.312 117.816 16.928H115.968V23H112.224V6.608C113.04 6.448 113.88 6.336 114.744 6.272C115.624 6.208 116.408 6.176 117.096 6.176ZM117.312 9.368C117.04 9.368 116.792 9.376 116.568 9.392C116.36 9.408 116.16 9.424 115.968 9.44V13.952H117.024C118.432 13.952 119.44 13.776 120.048 13.424C120.656 13.072 120.96 12.472 120.96 11.624C120.96 10.808 120.648 10.232 120.024 9.896C119.416 9.544 118.512 9.368 117.312 9.368ZM131.865 23C131.209 21.608 130.561 20.16 129.921 18.656C129.281 17.152 128.673 15.664 128.097 14.192C127.521 12.72 126.985 11.312 126.489 9.968C126.009 8.624 125.593 7.424 125.241 6.368H129.369C129.689 7.328 130.033 8.368 130.401 9.488C130.785 10.592 131.169 11.696 131.553 12.8C131.953 13.904 132.337 14.96 132.705 15.968C133.073 16.976 133.417 17.848 133.737 18.584C134.041 17.848 134.377 16.976 134.745 15.968C135.129 14.96 135.513 13.904 135.897 12.8C136.297 11.696 136.681 10.592 137.049 9.488C137.433 8.368 137.785 7.328 138.105 6.368H142.089C141.721 7.424 141.297 8.624 140.817 9.968C140.337 11.312 139.809 12.72 139.233 14.192C138.657 15.664 138.049 17.152 137.409 18.656C136.769 20.16 136.121 21.608 135.465 23H131.865ZM143.281 6.368H147.025V23H143.281V6.368ZM157.499 23.336C154.795 23.336 152.731 22.584 151.307 21.08C149.899 19.576 149.195 17.44 149.195 14.672C149.195 13.296 149.411 12.072 149.843 11C150.275 9.912 150.867 9 151.619 8.264C152.371 7.512 153.267 6.944 154.307 6.56C155.347 6.176 156.475 5.984 157.691 5.984C158.395 5.984 159.035 6.04 159.611 6.152C160.187 6.248 160.691 6.368 161.123 6.512C161.555 6.64 161.915 6.776 162.203 6.92C162.491 7.064 162.699 7.176 162.827 7.256L161.747 10.28C161.235 10.008 160.635 9.776 159.947 9.584C159.275 9.392 158.507 9.296 157.643 9.296C157.067 9.296 156.499 9.392 155.939 9.584C155.395 9.776 154.907 10.088 154.475 10.52C154.059 10.936 153.723 11.48 153.467 12.152C153.211 12.824 153.083 13.64 153.083 14.6C153.083 15.368 153.163 16.088 153.323 16.76C153.499 17.416 153.771 17.984 154.139 18.464C154.523 18.944 155.019 19.328 155.627 19.616C156.235 19.888 156.971 20.024 157.835 20.024C158.379 20.024 158.867 19.992 159.299 19.928C159.731 19.864 160.115 19.792 160.451 19.712C160.787 19.616 161.083 19.512 161.339 19.4C161.595 19.288 161.827 19.184 162.035 19.088L163.067 22.088C162.539 22.408 161.795 22.696 160.835 22.952C159.875 23.208 158.763 23.336 157.499 23.336ZM164.517 23V6.368H175.749V9.512H168.261V12.776H174.909V15.848H168.261V19.856H176.301V23H164.517ZM182.648 20.144C183.176 20.144 183.608 20.104 183.944 20.024C184.296 19.928 184.576 19.808 184.784 19.664C184.992 19.504 185.136 19.32 185.216 19.112C185.296 18.904 185.336 18.672 185.336 18.416C185.336 17.872 185.08 17.424 184.568 17.072C184.056 16.704 183.176 16.312 181.928 15.896C181.384 15.704 180.84 15.488 180.296 15.248C179.752 14.992 179.264 14.68 178.832 14.312C178.4 13.928 178.048 13.472 177.776 12.944C177.504 12.4 177.368 11.744 177.368 10.976C177.368 10.208 177.512 9.52 177.8 8.912C178.088 8.288 178.496 7.76 179.024 7.328C179.552 6.896 180.192 6.568 180.944 6.344C181.696 6.104 182.544 5.984 183.488 5.984C184.608 5.984 185.576 6.104 186.392 6.344C187.208 6.584 187.88 6.848 188.408 7.136L187.328 10.088C186.864 9.848 186.344 9.64 185.768 9.464C185.208 9.272 184.528 9.176 183.728 9.176C182.832 9.176 182.184 9.304 181.784 9.56C181.4 9.8 181.208 10.176 181.208 10.688C181.208 10.992 181.28 11.248 181.424 11.456C181.568 11.664 181.768 11.856 182.024 12.032C182.296 12.192 182.6 12.344 182.936 12.488C183.288 12.616 183.672 12.752 184.088 12.896C184.952 13.216 185.704 13.536 186.344 13.856C186.984 14.16 187.512 14.52 187.928 14.936C188.36 15.352 188.68 15.84 188.888 16.4C189.096 16.96 189.2 17.64 189.2 18.44C189.2 19.992 188.656 21.2 187.568 22.064C186.48 22.912 184.84 23.336 182.648 23.336C181.912 23.336 181.248 23.288 180.656 23.192C180.064 23.112 179.536 23.008 179.072 22.88C178.624 22.752 178.232 22.616 177.896 22.472C177.576 22.328 177.304 22.192 177.08 22.064L178.136 19.088C178.632 19.36 179.24 19.608 179.96 19.832C180.696 20.04 181.592 20.144 182.648 20.144Z" fill="white"/>
</svg>
