<svg width="50" height="50" viewBox="0 0 50 50" fill="none" xmlns="http://www.w3.org/2000/svg">
<path fill-rule="evenodd" clip-rule="evenodd" d="M46.0551 38.8996C43.3353 38.8235 41.2252 39.1035 39.4567 39.8506C38.9475 40.056 38.1303 40.056 38.0633 40.6996C38.3354 40.9696 38.3682 41.4117 38.6068 41.786C39.0146 42.4653 39.7296 43.3805 40.3753 43.8553L42.5516 45.4171C43.878 46.2311 45.3744 46.7066 46.6665 47.5214C47.4151 47.9969 48.1629 48.6078 48.9114 49.1175C49.2926 49.3891 49.5236 49.8311 50 50V49.8973C49.7622 49.593 49.6935 49.1517 49.4565 48.8109L48.435 47.8272C47.4494 46.5035 46.2244 45.3486 44.898 44.3992C43.8094 43.6521 41.4295 42.6342 40.9874 41.3789L40.9203 41.3029C41.6674 41.2268 42.5516 40.9628 43.2667 40.7589C44.4238 40.4546 45.4773 40.5215 46.6665 40.2165L48.3001 39.741V39.4367C47.688 38.8258 47.2458 38.011 46.6002 37.4343C44.866 35.9409 42.9602 34.481 40.9874 33.2592C39.9332 32.5806 38.5725 32.1386 37.4504 31.5627C37.041 31.3588 36.3618 31.2569 36.124 30.9176C35.5103 30.172 35.1711 29.1868 34.729 28.3036L31.9405 22.3977C31.3284 21.074 30.9534 19.7502 30.2063 18.5284C26.7028 12.758 22.8929 9.26223 17.043 5.83343C15.7852 5.12059 14.2889 4.814 12.698 4.44122L10.1473 4.30428C9.60229 4.06692 9.05878 3.42178 8.58234 3.11595C6.64383 1.89416 1.64396 -0.753328 0.214658 2.73557C-0.703905 4.9418 1.57535 7.11381 2.34907 8.23442C2.92842 9.01497 3.67546 9.89747 4.08482 10.78C4.3135 11.3566 4.38974 11.9683 4.62833 12.5792C5.17185 14.0726 5.68258 15.7364 6.39685 17.1286C6.778 17.8414 7.1782 18.5893 7.65464 19.2337C7.92678 19.614 8.4032 19.7768 8.50459 20.3877C8.02815 21.0671 7.99538 22.0843 7.72324 22.934C6.49824 26.7699 6.97467 31.5216 8.70888 34.3456C9.25392 35.1939 10.5384 37.0616 12.281 36.348C13.8117 35.7371 13.4702 33.8024 13.9123 32.1051C14.0152 31.6981 13.9466 31.4265 14.1501 31.1542V31.2303L15.5451 34.0474C16.5994 35.7104 18.4365 37.442 19.9664 38.5968C20.7821 39.2077 21.4285 40.2606 22.4485 40.6334V40.5307H22.3814C22.1771 40.2264 21.8706 40.0894 21.5985 39.8521C20.9864 39.2412 20.3064 38.4941 19.83 37.8155C18.4022 35.9151 17.1444 33.81 16.0216 31.638C15.4765 30.5859 15.0001 29.4318 14.5595 28.3796C14.3537 27.9719 14.3537 27.3602 14.0144 27.1578C13.5037 27.9034 12.7567 28.5501 12.3808 29.466C11.7344 30.9252 11.6673 32.7244 11.4295 34.5913C11.2923 34.6256 11.3533 34.5913 11.2923 34.6674C10.2053 34.3966 9.83022 33.2752 9.42239 32.3258C8.40245 29.9156 8.23169 26.0464 9.11595 23.2627C9.35378 22.5499 10.3753 20.3094 9.96743 19.6308C9.76161 18.9856 9.08316 18.6129 8.70812 18.1032C8.26599 17.458 7.79108 16.644 7.48464 15.9311C6.66899 14.0292 6.26116 11.9257 5.37614 10.0245C4.96679 9.14202 4.25329 8.22529 3.67471 7.41127C3.02828 6.49454 2.31554 5.84941 1.8048 4.76378C1.63481 4.3834 1.39697 3.77935 1.66911 3.37157C1.73619 3.09998 1.87341 2.99119 2.14402 2.93033C2.58615 2.54994 3.84545 3.03227 4.28758 3.23464C5.54537 3.74435 6.59962 4.21907 7.65387 4.93116C8.1303 5.27046 8.64104 5.91559 9.25317 6.08601H9.96819C11.0567 6.32337 12.2802 6.16208 13.2994 6.46639C15.1022 7.04458 16.7343 7.89208 18.1979 8.80957C22.6527 11.6267 26.327 15.6322 28.809 20.4189C29.2168 21.1995 29.3868 21.9123 29.7619 22.7271C30.4769 24.3909 31.3612 26.0874 32.0739 27.7178C32.789 29.3131 33.4689 30.9434 34.4889 32.2672C34.9996 32.98 37.0395 33.3528 37.9573 33.7263C38.638 34.0307 39.6915 34.3045 40.3052 34.6773C41.4608 35.3902 42.6172 36.2049 43.705 36.9855C44.2485 37.3917 45.9499 38.2408 46.0513 38.9179L46.0551 38.8996ZM11.3708 9.40297C10.9009 9.39882 10.4325 9.45585 9.97734 9.57262V9.6487H10.0444C10.3166 10.1919 10.793 10.5654 11.133 11.0409L11.9159 12.6705L11.9829 12.5944C12.4594 12.2551 12.698 11.7119 12.698 10.8979C12.4937 10.6605 12.4601 10.4224 12.2901 10.185C12.0858 9.84574 11.6437 9.67533 11.3708 9.40449V9.40297Z" fill="#00678C"/>
</svg>
