<svg width="50" height="52" viewBox="0 0 50 52" fill="none" xmlns="http://www.w3.org/2000/svg">
<path d="M47.4336 31.915C41.3188 33.1821 40.8984 31.1023 40.8984 31.1023C47.3548 21.4785 50.0537 9.26243 47.7245 6.27263C41.3705 -1.883 30.3712 1.97409 30.1876 2.07422L30.1286 2.08485C28.9205 1.83292 27.5685 1.68283 26.0489 1.65792C23.282 1.61237 21.1832 2.3866 19.5907 3.59984C19.5907 3.59984 -0.0309305 -4.52038 0.881642 13.8125C1.07578 17.7127 6.4463 43.3231 12.8521 35.5876C15.1934 32.759 17.4555 30.3673 17.4555 30.3673C18.5791 31.1171 19.9242 31.4996 21.3343 31.3622L21.4439 31.2688C21.4098 31.62 21.4254 31.9635 21.4878 32.3701C19.8375 34.2223 20.3225 34.5475 17.0236 35.2296C13.6856 35.9207 15.6465 37.151 16.9268 37.4726C18.479 37.8625 22.0698 38.4148 24.4961 35.0029L24.3993 35.3922C25.0459 35.9124 25.4999 38.7762 25.4238 41.3722C25.3477 43.9683 25.2969 45.7506 25.8064 47.1427C26.3159 48.5349 26.8236 51.6672 31.1603 50.7337C34.7839 49.9536 36.6617 47.9321 36.923 44.56C37.1083 42.1628 37.5279 42.5171 37.5544 40.3739L37.8908 39.3592C38.2789 36.1095 37.9525 35.0611 40.185 35.5487L40.7275 35.5966C42.3707 35.6717 44.5212 35.3311 45.7834 34.7418C48.5013 33.4747 50.1133 31.3591 47.4334 31.915H47.4336Z" fill="#336791"/>
<path d="M24.7587 33.7773C24.5904 39.8241 24.801 45.913 25.39 47.3928C25.9793 48.8727 27.2406 51.751 31.5776 50.8176C35.2009 50.0373 36.5192 48.5272 37.0913 45.194C37.5126 42.7416 38.3249 35.9309 38.4291 34.5354" stroke="white" stroke-linecap="round" stroke-linejoin="round"/>
<path d="M19.5606 3.46446C19.5606 3.46446 -0.0743906 -4.59726 0.838425 13.7357C1.03256 17.6358 6.40345 43.2471 12.8091 35.5112C15.1499 32.6822 17.2669 30.4634 17.2669 30.4634" stroke="white" stroke-linecap="round" stroke-linejoin="round"/>
<path d="M30.166 1.9929C29.4864 2.20697 41.0882 -2.26766 47.6817 6.19582C50.0107 9.18575 47.3117 21.4018 40.8555 31.0259" stroke="white" stroke-linecap="round" stroke-linejoin="round"/>
<path d="M40.8563 31.026C40.8563 31.026 41.277 33.1064 47.392 31.8385C50.0712 31.2826 48.4588 33.3984 45.7415 34.6661C43.5114 35.7058 38.5117 35.9723 38.43 34.5355C38.2198 30.8287 41.0615 31.9548 40.8564 31.026C40.671 30.1895 39.4002 29.3685 38.5596 27.3212C37.8257 25.5343 28.4946 11.8307 41.1473 13.8659C41.6108 13.7696 37.8473 1.77603 26.0063 1.58101C14.1679 1.38599 14.5563 16.2061 14.5563 16.2061" stroke="white" stroke-linecap="round" stroke-linejoin="bevel"/>
<path d="M21.4447 32.2935C19.7943 34.1456 20.2797 34.4708 16.9806 35.1532C13.6426 35.8444 15.6038 37.0745 16.8837 37.3959C18.4358 37.786 22.0267 38.3384 24.4529 34.9255C25.1918 33.8864 24.4485 32.2285 23.4336 31.8058C22.9432 31.6017 22.2875 31.346 21.4447 32.2935V32.2935Z" stroke="white" stroke-linecap="round" stroke-linejoin="round"/>
<path d="M21.3366 32.2608C21.1703 31.1719 21.6928 29.8761 22.2527 28.3601C23.0942 26.0855 25.0356 23.8106 23.4826 16.5954C22.3249 11.2187 14.5603 15.4764 14.5555 16.2055C14.5507 16.9343 14.9067 19.9008 14.4258 23.3552C13.7983 27.863 17.281 31.6753 21.2915 31.2853" stroke="white" stroke-linecap="round" stroke-linejoin="round"/>
<path d="M19.4891 16.0965C19.4541 16.3455 19.9429 17.01 20.5803 17.0988C21.2165 17.1879 21.7611 16.6687 21.7956 16.4199C21.8302 16.1709 21.342 15.8966 20.7044 15.8075C20.0677 15.7182 19.5229 15.8481 19.4892 16.0965H19.4891Z" fill="white" stroke="white"/>
<path d="M38.8693 15.5896C38.9039 15.8386 38.4157 16.5031 37.7782 16.5919C37.1414 16.681 36.5968 16.1618 36.5619 15.913C36.5283 15.664 37.0166 15.3897 37.6535 15.3006C38.2903 15.2114 38.8348 15.3413 38.8693 15.5898V15.5896Z" fill="white" stroke="white"/>
<path d="M41.1467 13.8652C41.2516 15.8184 40.7279 17.1487 40.6619 19.2279C40.5641 22.2501 42.0962 25.7092 39.7877 29.1726" stroke="white" stroke-linecap="round" stroke-linejoin="round"/>
</svg>
