<svg width="50" height="50" viewBox="0 0 50 50" fill="none" xmlns="http://www.w3.org/2000/svg">
<path d="M49.6919 24.4037L47.5942 23.1017C47.5806 22.8956 47.5532 22.6905 47.5395 22.4844L49.3491 20.7976C49.5269 20.6335 49.6099 20.3727 49.5689 20.1256C49.5142 19.8785 49.3491 19.6734 49.1167 19.5913L46.8139 18.7279C46.7593 18.5218 46.6909 18.3304 46.6362 18.138L48.0757 16.1366C48.2261 15.9305 48.2534 15.6707 48.1577 15.4373C48.062 15.2038 47.8559 15.0398 47.6099 14.9987L45.1694 14.6012C45.0737 14.4234 44.977 14.231 44.8813 14.0533L45.9096 11.8048C46.019 11.5714 45.9917 11.3116 45.8549 11.1055C45.7182 10.8994 45.4848 10.7763 45.2241 10.79L42.7563 10.872C42.6332 10.7079 42.4955 10.5565 42.3725 10.3925L42.935 7.99359C42.9897 7.74648 42.9213 7.50034 42.7426 7.3216C42.5649 7.14383 42.3041 7.07449 42.0707 7.12918L39.6722 7.69178C39.5219 7.55504 39.3568 7.43099 39.1928 7.30793L39.2748 4.83972C39.2885 4.5926 39.1654 4.34647 38.9594 4.20875C38.7533 4.07201 38.4799 4.04466 38.2601 4.15405L36.0121 5.18255C35.8343 5.08683 35.6556 4.99014 35.4642 4.89442L35.0257 2.45356C34.9847 2.20644 34.8197 2.00133 34.5872 1.90561C34.3548 1.80989 34.0941 1.83724 33.888 1.98765L31.887 3.42736C31.6946 3.35899 31.4895 3.30429 31.2971 3.24959L30.4339 0.946455C30.3518 0.713016 30.1458 0.53525 29.8997 0.494228C29.6526 0.43953 29.4065 0.521576 29.2278 0.713993L27.5412 2.52388C27.3352 2.49653 27.1301 2.48286 26.924 2.46918L25.635 0.342834C25.4982 0.123069 25.2648 0 25.0178 0C24.7707 0 24.5383 0.123069 24.4006 0.342834L23.0988 2.44086C22.8927 2.45453 22.6877 2.48188 22.4816 2.49556L20.796 0.685667C20.632 0.507902 20.3712 0.424879 20.1242 0.465902C19.8771 0.520599 19.672 0.685667 19.59 0.91813L18.7267 3.22127C18.5206 3.27597 18.3292 3.34434 18.1368 3.39903L16.1495 1.98668C15.9434 1.83626 15.6837 1.80891 15.4503 1.90463C15.2169 2.00035 15.0528 2.20644 15.0118 2.45258L14.6133 4.89442C14.4356 4.99014 14.2432 5.08683 14.0655 5.18255L11.8174 4.15405C11.584 4.04466 11.3242 4.07201 11.1182 4.20875C10.9121 4.34549 10.7891 4.57893 10.8027 4.83972L10.8848 7.30793C10.7207 7.43099 10.5693 7.56871 10.4053 7.69178L8.00681 7.12918C7.75974 7.07449 7.49997 7.14286 7.33493 7.3216C7.1572 7.49937 7.08786 7.76015 7.14255 7.99359L7.70505 10.3925C7.56833 10.5429 7.44431 10.7079 7.32126 10.872L4.85345 10.79C4.60638 10.7763 4.36028 10.8994 4.22259 11.1055C4.08587 11.3116 4.05852 11.585 4.1679 11.8048L5.19623 14.0533C5.10053 14.231 5.00385 14.4098 4.90814 14.6012L2.45401 15.0124C2.20694 15.0534 2.00186 15.2185 1.90615 15.451C1.81045 15.6844 1.83779 15.9442 1.98818 16.1503L3.42766 18.1516C3.3593 18.344 3.30461 18.5492 3.24992 18.7416L0.947155 19.605C0.713754 19.6871 0.536017 19.8931 0.495001 20.1393C0.440313 20.3864 0.522345 20.6325 0.714731 20.8113L2.52432 22.4981C2.49698 22.7042 2.48331 22.9093 2.46964 23.1154L0.343632 24.4037C0.123903 24.5404 0.000854492 24.7739 0.000854492 25.021C0.000854492 25.2681 0.123903 25.5006 0.343632 25.6383L2.44132 26.9403C2.45499 27.1464 2.48233 27.3515 2.496 27.5576L0.68641 29.2434C0.508673 29.4075 0.425665 29.6683 0.466681 29.9154C0.521369 30.1625 0.68641 30.3676 0.918835 30.4497L3.2216 31.3131C3.27629 31.5192 3.34465 31.7107 3.39933 31.9031L1.98721 33.8907C1.83682 34.0968 1.80947 34.3566 1.90518 34.5901C2.00088 34.8235 2.20694 34.9876 2.45303 35.0286L4.87982 35.4261C4.97553 35.6039 5.07221 35.7963 5.16791 35.9741L4.13958 38.2225C4.0302 38.456 4.05755 38.7158 4.19427 38.9219C4.33099 39.128 4.57806 39.251 4.82513 39.2374L7.29294 39.1553C7.41599 39.3194 7.55368 39.4708 7.67673 39.6349L7.11423 42.0474C7.05954 42.2945 7.1279 42.5407 7.30661 42.7194C7.48435 42.8972 7.74509 42.9665 7.97849 42.9118L10.377 42.3492C10.5274 42.486 10.6924 42.61 10.8565 42.7331L10.7744 45.2013C10.7608 45.4484 10.8838 45.6946 11.0899 45.8323C11.2959 45.969 11.5694 45.9964 11.7891 45.887L14.0372 44.8585C14.2149 44.9542 14.3936 45.0509 14.585 45.1466L14.9825 47.5738C15.0235 47.8209 15.1885 48.026 15.421 48.1217C15.6544 48.2175 15.9141 48.1901 16.1202 48.0397L18.1222 46.601C18.3146 46.6693 18.5196 46.724 18.712 46.7787L19.5753 49.0819C19.6574 49.3153 19.8634 49.4931 20.1095 49.5341C20.3566 49.5888 20.6027 49.5067 20.7814 49.3143L22.4679 47.5044C22.674 47.5318 22.8791 47.5455 23.0851 47.5591L24.3869 49.6572C24.5236 49.8633 24.757 50 25.0041 50C25.2512 50 25.4836 49.8769 25.6213 49.6572L26.9231 47.5591C27.1291 47.5455 27.3342 47.5181 27.5403 47.5044L29.2268 49.3143C29.3909 49.4921 29.6516 49.5751 29.8987 49.5341C30.1458 49.4794 30.3508 49.3143 30.4329 49.0819L31.2962 46.7787C31.5022 46.724 31.6936 46.6557 31.886 46.601L33.887 48.0407C34.0931 48.1911 34.3528 48.2184 34.5863 48.1227C34.8197 48.027 34.9837 47.8209 35.0247 47.5748L35.4222 45.1476C35.5999 45.0519 35.7923 44.9552 35.9701 44.8595L38.2181 45.888C38.4515 45.9973 38.7113 45.97 38.9174 45.8333C39.1234 45.6965 39.2465 45.4631 39.2328 45.2023L39.1508 42.7341C39.3148 42.611 39.4662 42.4733 39.6303 42.3502L42.0287 42.9128C42.2758 42.9675 42.5356 42.8991 42.7006 42.7204C42.8783 42.5426 42.9477 42.2818 42.893 42.0484L42.3305 39.6359C42.4672 39.4855 42.5912 39.3204 42.7143 39.1563L45.1821 39.2383C45.4292 39.252 45.6753 39.129 45.813 38.9229C45.9497 38.7168 45.977 38.4433 45.8676 38.2235L44.8393 35.9751C44.935 35.7973 45.0317 35.6186 45.1274 35.4271L47.5679 35.0296C47.8149 34.9886 48.02 34.8235 48.1157 34.591C48.2114 34.3576 48.1841 34.0978 48.0337 33.8917L46.5942 31.8904C46.6626 31.698 46.7173 31.4928 46.7719 31.3004L49.0747 30.437C49.3081 30.3549 49.4859 30.1489 49.5269 29.9027C49.5816 29.6556 49.4995 29.4095 49.3071 29.2307L47.4975 27.5439C47.5249 27.3378 47.5386 27.1327 47.5522 26.9266L49.6499 25.6246C49.8696 25.4879 49.9927 25.2544 49.9927 25.0073C50.0347 24.7739 49.9116 24.5414 49.6919 24.4037ZM35.6273 41.8296C34.8187 41.6519 34.3109 40.8695 34.4896 40.0608C34.6673 39.252 35.4495 38.7441 36.2581 38.9229C37.0667 39.1006 37.5746 39.883 37.3959 40.6917C37.2318 41.5005 36.4369 42.0084 35.6273 41.8296ZM34.9144 37.0036C34.1878 36.8532 33.4612 37.3191 33.3108 38.0457L32.5706 41.5278C30.2678 42.57 27.718 43.159 25.0178 43.159C22.2629 43.159 19.6583 42.5553 17.3136 41.4585L16.5733 37.9764C16.4229 37.2497 15.6964 36.7838 14.9698 36.9342L11.8994 37.5925C11.3233 37.0026 10.8027 36.3863 10.3096 35.7143H25.2648C25.4289 35.7143 25.5529 35.6869 25.5529 35.5365V30.2446C25.5529 30.0942 25.4436 30.0668 25.2648 30.0668H20.8917V26.7078H25.6213C26.0461 26.7078 27.9241 26.8309 28.5276 29.2307C28.72 29.9711 29.1311 32.3699 29.4045 33.1377C29.6926 34.0011 30.8303 35.7153 32.0501 35.7153H39.4935C39.5756 35.7153 39.6713 35.7016 39.768 35.6879C39.2474 36.3873 38.6849 37.0592 38.0677 37.6756L34.9144 37.0036ZM14.2432 41.7612C13.4346 41.939 12.6534 41.4184 12.4746 40.6234C12.2969 39.8146 12.8174 39.0332 13.6124 38.8545C14.421 38.6767 15.2022 39.1973 15.3809 39.9924C15.5596 40.8011 15.0518 41.5962 14.2432 41.7612ZM8.56835 18.7689C8.89745 19.523 8.56835 20.4001 7.81443 20.7292C7.06051 21.0584 6.18355 20.7292 5.85444 19.9752C5.52534 19.2212 5.85444 18.344 6.60836 18.0149C7.36228 17.6721 8.23924 18.0149 8.56835 18.7689ZM6.82711 22.8956L10.0215 21.4696C10.707 21.1678 11.0088 20.359 10.707 19.6734L10.0488 18.179H12.6397V29.8597H7.40329C6.95114 28.2696 6.70406 26.5828 6.70406 24.8423C6.73141 24.1986 6.75875 23.5403 6.82711 22.8956ZM20.8781 21.7577V18.3167H27.0471C27.3625 18.3167 29.2952 18.6869 29.2952 20.1266C29.2952 21.3329 27.8147 21.7577 26.5949 21.7577H20.8781ZM43.3041 24.8569C43.3041 25.3091 43.2905 25.7614 43.2494 26.2146H41.3715C41.1791 26.2146 41.1107 26.3376 41.1107 26.5164V27.3798C41.1107 29.4085 39.973 29.848 38.9584 29.9574C37.9984 30.0668 36.9437 29.5599 36.8197 28.9699C36.2572 25.8034 35.3118 25.1314 33.8314 23.9525C35.6683 22.7872 37.5873 21.0594 37.5873 18.7562C37.5873 16.2607 35.8734 14.6979 34.722 13.9302C33.0911 12.847 31.2815 12.6419 30.7874 12.6419H11.3916C14.0235 9.70776 17.588 7.62439 21.631 6.87035L23.9201 9.26921C24.4406 9.81716 25.2912 9.83181 25.8391 9.31023L28.4026 6.8557C33.762 7.85685 38.3138 11.1885 40.932 15.7811L39.1771 19.7437C38.8754 20.4294 39.1771 21.2244 39.8627 21.5399L43.2348 23.0343C43.2768 23.636 43.3041 24.2533 43.3041 24.8569ZM23.9074 4.83972C24.4973 4.27712 25.4426 4.29177 26.0051 4.89442C26.5676 5.48436 26.5529 6.42984 25.9504 6.99244C25.3605 7.55504 24.4152 7.54039 23.8527 6.93774C23.3039 6.3478 23.3176 5.40134 23.9074 4.83972ZM41.3031 18.8373C41.6322 18.0833 42.5092 17.7404 43.2631 18.0833C44.017 18.4124 44.3461 19.2895 44.017 20.0436C43.6879 20.7976 42.811 21.1404 42.057 20.7976C41.3168 20.4694 40.974 19.5923 41.3031 18.8373Z" fill="black"/>
</svg>
