<svg width="83" height="120" viewBox="0 0 83 120" fill="none" xmlns="http://www.w3.org/2000/svg">
<g clip-path="url(#clip0_38_6380)">
<path d="M4.66248 44.3217C17.1279 37.2611 29.3236 25.2139 39.5348 9.8582L39.6697 9.78104C49.8905 13.3209 62.0766 11.2761 74.542 3.9262L75.014 3.64648L74.3397 26.9694C71.9699 63.1305 59.6587 78.872 39.8334 112.487L39.3518 112.766C19.5266 102.069 7.20567 100.574 4.84552 67.143L4.17119 44.5917L4.64323 44.3217H4.66248Z" fill="url(#paint0_linear_38_6380)"/>
<path d="M0.472015 40.6848C12.9374 33.6243 25.1331 21.577 35.354 6.22136L35.4888 6.1442C45.7097 9.68411 57.8958 7.62961 70.3612 0.27972L70.8332 0L74.8888 3.71353L74.542 3.91608C62.0766 11.266 49.8809 13.3108 39.6697 9.77092L39.5348 9.84808C29.3139 25.2038 17.1279 37.251 4.65284 44.3116L4.18082 44.5816L4.85514 67.1329C6.39645 88.951 12.186 97.1594 21.5303 103.207C9.8548 96.3009 2.39867 88.0154 0.66468 63.4869L-0.00964355 40.9356L0.462387 40.6655L0.472015 40.6848Z" fill="url(#paint1_linear_38_6380)"/>
<path d="M3.8147e-06 40.9552L0.472038 40.6852C12.9374 33.6246 25.1331 21.5774 35.354 6.2217L35.4889 6.14453L39.6793 9.7809L39.5445 9.85806C29.3236 25.2137 17.1375 37.261 4.66249 44.3215L4.19047 44.5916L3.8147e-06 40.9552Z" fill="url(#paint2_linear_38_6380)"/>
<path d="M4.19045 44.5913L4.86478 67.1426C6.40609 88.9607 12.1957 97.1691 21.5399 103.217C9.86443 96.3106 2.4083 88.0251 0.674318 63.4966L-1.33514e-05 40.9453L4.19045 44.5817V44.5913Z" fill="url(#paint3_linear_38_6380)"/>
<path d="M5.96299 45.2272C18.1587 38.3211 30.075 26.5439 40.0647 11.5258L40.1995 11.4486C50.1892 14.9114 62.1055 12.9051 74.3012 5.71917L74.7636 5.43945L78.7325 9.07582L78.3953 9.26873C66.1996 16.4546 54.2833 18.4609 44.2936 14.9982L44.1588 15.0753C34.1691 30.0838 22.2528 41.8706 10.0571 48.7768L9.59472 49.0372L10.2498 71.0869C11.7622 92.4132 17.4169 100.448 26.5492 106.361C15.1338 99.6087 7.84147 91.5065 6.14602 67.5277L5.49096 45.478L5.95335 45.2176L5.96299 45.2272Z" fill="url(#paint4_linear_38_6380)"/>
<path d="M5.49095 45.4883L5.95334 45.2279C18.149 38.3217 30.0653 26.5445 40.055 11.5264L40.1899 11.4492L44.2936 15.0084L44.1588 15.0856C34.1691 30.094 22.2528 41.8809 10.0571 48.7871L9.59471 49.0475L5.49095 45.4883Z" fill="url(#paint5_linear_38_6380)"/>
<path d="M9.59469 49.0475L10.2498 71.0972C11.7622 92.4234 17.4169 100.458 26.5492 106.371C15.1338 99.619 7.84144 91.5167 6.14599 67.538L5.49093 45.4883L9.59469 49.0475Z" fill="url(#paint6_linear_38_6380)"/>
<path style="mix-blend-mode:color-dodge" d="M4.17123 43.9739C16.6366 36.9134 28.8323 24.8661 39.0532 9.51043L39.1881 9.43326C49.4089 12.9732 61.595 10.9283 74.0604 3.56878L74.5324 3.28906L74.5035 4.45617C62.1441 11.6517 50.0832 13.6387 39.9491 10.1277L39.8142 10.2049C29.5933 25.5606 17.4073 37.6078 4.93225 44.6684L4.46022 44.9384L5.13454 67.4897C6.3676 84.8806 10.298 93.6194 16.5692 99.5225C9.84521 93.6194 5.64511 84.8806 4.36389 66.7952L3.68956 44.244L4.1616 43.9739H4.17123Z" fill="url(#paint7_radial_38_6380)"/>
<path d="M12.6292 51.5658C25.0946 44.5053 37.2903 32.458 47.5015 17.1023L47.6364 17.0252C57.8572 20.5651 70.0433 18.5202 82.5087 11.1703L82.9807 10.8906L82.3064 34.2135C79.9366 70.3746 67.6253 86.1161 47.8001 119.731L47.3185 120.01C27.4932 109.314 15.1723 107.819 12.8122 74.3871L12.1379 51.8359L12.6099 51.5658H12.6292Z" fill="url(#paint8_linear_38_6380)"/>
<path d="M8.43858 47.9291C20.904 40.8686 33.0997 28.8213 43.3205 13.4656L43.4554 13.3885C53.6763 16.9284 65.8623 14.8835 78.3277 7.53363L78.7998 7.25391L82.865 10.9578L82.5182 11.1603C70.0528 18.5102 57.8571 20.5551 47.6459 17.0152L47.511 17.0923C37.2901 32.448 25.1041 44.4953 12.629 51.5558L12.157 51.8259L12.8313 74.3771C14.3727 96.1953 20.1622 104.404 29.5065 110.451C17.831 103.545 10.3749 95.2597 8.64088 70.7311L7.96655 48.1799L8.43858 47.9098V47.9291Z" fill="url(#paint9_linear_38_6380)"/>
<path d="M7.95704 48.1994L8.42906 47.9293C20.8945 40.8688 33.0902 28.8215 43.311 13.4658L43.4459 13.3887L47.6364 17.025L47.5015 17.1022C37.2806 32.4579 25.0946 44.5051 12.6195 51.5657L12.1475 51.8357L7.95704 48.1994Z" fill="url(#paint10_linear_38_6380)"/>
<path d="M12.1571 51.8355L12.8315 74.3867C14.3728 96.2049 20.1623 104.413 29.5066 110.461C17.8311 103.555 10.375 95.2693 8.64099 70.7407L7.96667 48.1895L12.1571 51.8258V51.8355Z" fill="url(#paint11_linear_38_6380)"/>
<path d="M50.0447 104.422C65.4386 78.8618 73.1741 66.0044 75.0429 37.9455L75.4668 23.2168C65.5831 27.6923 56.1136 29.1199 47.5786 27.4126C39.0435 38.9776 29.574 48.5074 19.6903 55.4521L20.1142 69.6889C21.983 95.5872 29.7185 99.4936 45.1125 107.268C45.9216 107.673 46.7405 108.088 47.5689 108.512C48.407 107.123 49.2258 105.754 50.035 104.413L50.0447 104.422Z" fill="url(#paint12_linear_38_6380)"/>
<path d="M47.5786 27.4219C39.0436 38.9869 29.5741 48.5166 19.6904 55.4614L20.1142 69.6982C21.9831 95.5965 29.7186 99.5029 45.1125 107.277C45.9217 107.682 46.7405 108.097 47.569 108.521V27.4219H47.5786Z" fill="url(#paint13_linear_38_6380)"/>
<path style="mix-blend-mode:color-dodge" d="M12.1379 51.2182C24.6033 44.1576 36.799 32.1104 47.0199 16.7547L47.1547 16.6775C57.3756 20.2174 69.5616 18.1726 82.0271 10.8227L82.4991 10.543L82.4702 11.7101C70.1107 18.9056 58.0499 20.8926 47.9158 17.3816L47.7809 17.4588C37.56 32.8145 25.374 44.8618 12.8989 51.9223L12.4269 52.1924L13.1012 74.7436C14.3343 92.1345 18.2646 100.873 24.5359 106.776C17.8119 100.873 13.6118 92.1345 12.3306 74.0491L11.6562 51.4979L12.1283 51.2278L12.1379 51.2182Z" fill="url(#paint14_radial_38_6380)"/>
<path style="mix-blend-mode:color-dodge" d="M50.0447 104.422C65.4386 78.8618 73.1741 66.0044 75.0429 37.9455L75.4668 23.2168C65.5831 27.6923 56.1136 29.1199 47.5786 27.4126C39.0435 38.9776 29.574 48.5074 19.6903 55.4521L20.1142 69.6889C21.983 95.5872 29.7185 99.4936 45.1125 107.268C45.9216 107.673 46.7405 108.088 47.5689 108.512C48.407 107.123 49.2258 105.754 50.035 104.413L50.0447 104.422Z" fill="url(#paint15_radial_38_6380)"/>
<path style="mix-blend-mode:color-dodge" d="M47.5786 27.4224C56.1136 29.12 65.5831 27.6924 75.4668 23.2266L75.4379 24.1332C65.795 28.3773 56.5471 29.718 48.2047 28.059C39.6697 39.624 30.2002 49.1537 20.3165 56.0985L20.7404 70.3353C21.7808 84.8036 24.6611 92.4043 29.68 97.6611C24.2758 92.385 21.1931 84.7747 20.1142 69.7084L19.6903 55.4716C29.574 48.5171 39.0435 38.997 47.5786 27.432V27.4224Z" fill="url(#paint16_radial_38_6380)"/>
</g>
<defs>
<linearGradient id="paint0_linear_38_6380" x1="81.1311" y1="71.3484" x2="-48.2024" y2="1.39246" gradientUnits="userSpaceOnUse">
<stop stop-color="#9F79C8"/>
<stop offset="0.14" stop-color="#A27CC9"/>
<stop offset="0.27" stop-color="#AB87CE"/>
<stop offset="0.4" stop-color="#BB9AD7"/>
<stop offset="0.52" stop-color="#D1B4E3"/>
<stop offset="0.65" stop-color="#DAC3E8"/>
<stop offset="0.9" stop-color="#F3ECF8"/>
<stop offset="1" stop-color="white"/>
</linearGradient>
<linearGradient id="paint1_linear_38_6380" x1="105.677" y1="41.1285" x2="31.4276" y2="54.1371" gradientUnits="userSpaceOnUse">
<stop stop-color="#9F79C8"/>
<stop offset="0.14" stop-color="#A27CC9"/>
<stop offset="0.27" stop-color="#AB87CE"/>
<stop offset="0.4" stop-color="#BB9AD7"/>
<stop offset="0.52" stop-color="#D1B4E3"/>
<stop offset="0.65" stop-color="#DAC3E8"/>
<stop offset="0.9" stop-color="#F3ECF8"/>
<stop offset="1" stop-color="white"/>
</linearGradient>
<linearGradient id="paint2_linear_38_6380" x1="53.5319" y1="-7.18559" x2="-16.9975" y2="64.3522" gradientUnits="userSpaceOnUse">
<stop stop-color="#9F79C8"/>
<stop offset="0.14" stop-color="#A27CC9"/>
<stop offset="0.27" stop-color="#AB87CE"/>
<stop offset="0.4" stop-color="#BB9AD7"/>
<stop offset="0.52" stop-color="#D1B4E3"/>
<stop offset="0.65" stop-color="#DAC3E8"/>
<stop offset="0.9" stop-color="#F3ECF8"/>
<stop offset="1" stop-color="white"/>
</linearGradient>
<linearGradient id="paint3_linear_38_6380" x1="14.9797" y1="69.689" x2="-46.6921" y2="104.673" gradientUnits="userSpaceOnUse">
<stop stop-color="#9F79C8"/>
<stop offset="0.14" stop-color="#A27CC9"/>
<stop offset="0.27" stop-color="#AB87CE"/>
<stop offset="0.4" stop-color="#BB9AD7"/>
<stop offset="0.52" stop-color="#D1B4E3"/>
<stop offset="0.65" stop-color="#DAC3E8"/>
<stop offset="0.9" stop-color="#F3ECF8"/>
<stop offset="1" stop-color="white"/>
</linearGradient>
<linearGradient id="paint4_linear_38_6380" x1="108.817" y1="45.6613" x2="36.2251" y2="58.3716" gradientUnits="userSpaceOnUse">
<stop offset="0.1" stop-color="#45108A"/>
<stop offset="1" stop-color="#7C1DC9"/>
</linearGradient>
<linearGradient id="paint5_linear_38_6380" x1="57.838" y1="-1.58189" x2="-11.1288" y2="68.3664" gradientUnits="userSpaceOnUse">
<stop offset="0.1" stop-color="#45108A"/>
<stop offset="1" stop-color="#7C1DC9"/>
</linearGradient>
<linearGradient id="paint6_linear_38_6380" x1="20.1431" y1="73.5857" x2="-40.1599" y2="107.79" gradientUnits="userSpaceOnUse">
<stop offset="0.1" stop-color="#45108A"/>
<stop offset="1" stop-color="#7C1DC9"/>
</linearGradient>
<radialGradient id="paint7_radial_38_6380" cx="0" cy="0" r="1" gradientUnits="userSpaceOnUse" gradientTransform="translate(32.2552 51.3239) rotate(180) scale(42.0304 42.084)">
<stop stop-color="white"/>
<stop offset="1"/>
</radialGradient>
<linearGradient id="paint8_linear_38_6380" x1="89.0978" y1="78.5829" x2="-40.2357" y2="8.63659" gradientUnits="userSpaceOnUse">
<stop stop-color="#9F79C8"/>
<stop offset="0.14" stop-color="#A27CC9"/>
<stop offset="0.27" stop-color="#AB87CE"/>
<stop offset="0.4" stop-color="#BB9AD7"/>
<stop offset="0.52" stop-color="#D1B4E3"/>
<stop offset="0.65" stop-color="#DAC3E8"/>
<stop offset="0.9" stop-color="#F3ECF8"/>
<stop offset="1" stop-color="white"/>
</linearGradient>
<linearGradient id="paint9_linear_38_6380" x1="113.643" y1="48.3728" x2="39.3942" y2="61.3813" gradientUnits="userSpaceOnUse">
<stop stop-color="#9F79C8"/>
<stop offset="0.14" stop-color="#A27CC9"/>
<stop offset="0.27" stop-color="#AB87CE"/>
<stop offset="0.4" stop-color="#BB9AD7"/>
<stop offset="0.52" stop-color="#D1B4E3"/>
<stop offset="0.65" stop-color="#DAC3E8"/>
<stop offset="0.9" stop-color="#F3ECF8"/>
<stop offset="1" stop-color="white"/>
</linearGradient>
<linearGradient id="paint10_linear_38_6380" x1="61.4986" y1="0.0585539" x2="-9.03084" y2="71.5964" gradientUnits="userSpaceOnUse">
<stop stop-color="#9F79C8"/>
<stop offset="0.14" stop-color="#A27CC9"/>
<stop offset="0.27" stop-color="#AB87CE"/>
<stop offset="0.4" stop-color="#BB9AD7"/>
<stop offset="0.52" stop-color="#D1B4E3"/>
<stop offset="0.65" stop-color="#DAC3E8"/>
<stop offset="0.9" stop-color="#F3ECF8"/>
<stop offset="1" stop-color="white"/>
</linearGradient>
<linearGradient id="paint11_linear_38_6380" x1="22.9367" y1="76.9331" x2="-38.7254" y2="111.917" gradientUnits="userSpaceOnUse">
<stop stop-color="#9F79C8"/>
<stop offset="0.14" stop-color="#A27CC9"/>
<stop offset="0.27" stop-color="#AB87CE"/>
<stop offset="0.4" stop-color="#BB9AD7"/>
<stop offset="0.52" stop-color="#D1B4E3"/>
<stop offset="0.65" stop-color="#DAC3E8"/>
<stop offset="0.9" stop-color="#F3ECF8"/>
<stop offset="1" stop-color="white"/>
</linearGradient>
<linearGradient id="paint12_linear_38_6380" x1="78.8866" y1="87.6296" x2="25.8534" y2="32.9878" gradientUnits="userSpaceOnUse">
<stop offset="0.03" stop-color="#7C1DC9"/>
<stop offset="0.21" stop-color="#6E41D1"/>
<stop offset="0.62" stop-color="#4C9BE8"/>
<stop offset="1" stop-color="#2AF6FF"/>
</linearGradient>
<linearGradient id="paint13_linear_38_6380" x1="-0.0384954" y1="67.7884" x2="58.3197" y2="68.0097" gradientUnits="userSpaceOnUse">
<stop offset="0.03" stop-color="#7C1DC9"/>
<stop offset="0.21" stop-color="#6E41D1"/>
<stop offset="0.62" stop-color="#4C9BE8"/>
<stop offset="1" stop-color="#2AF6FF"/>
</linearGradient>
<radialGradient id="paint14_radial_38_6380" cx="0" cy="0" r="1" gradientUnits="userSpaceOnUse" gradientTransform="translate(40.1884 58.5286) rotate(180) scale(42.0304 42.084)">
<stop stop-color="white"/>
<stop offset="1"/>
</radialGradient>
<radialGradient id="paint15_radial_38_6380" cx="0" cy="0" r="1" gradientUnits="userSpaceOnUse" gradientTransform="translate(23.3221 18.2967) rotate(180) scale(66.83 66.9153)">
<stop offset="0.02" stop-color="#4B61B8"/>
<stop offset="0.11" stop-color="#4154A0"/>
<stop offset="0.34" stop-color="#2A3667"/>
<stop offset="0.55" stop-color="#171F3A"/>
<stop offset="0.74" stop-color="#0A0E1A"/>
<stop offset="0.89" stop-color="#020307"/>
<stop offset="1"/>
</radialGradient>
<radialGradient id="paint16_radial_38_6380" cx="0" cy="0" r="1" gradientUnits="userSpaceOnUse" gradientTransform="translate(40.6743 60.3153) rotate(180) scale(32.7142 32.7559)">
<stop stop-color="white"/>
<stop offset="1"/>
</radialGradient>
<clipPath id="clip0_38_6380">
<rect width="83" height="120" fill="white" transform="matrix(-1 0 0 1 83 0)"/>
</clipPath>
</defs>
</svg>
