<svg width="50" height="50" viewBox="0 0 50 50" fill="none" xmlns="http://www.w3.org/2000/svg">
<path d="M23.9654 25.4493C23.7169 25.9878 23.4427 26.5929 23.1587 27.2369C22.1549 29.5113 21.0432 32.2788 20.6371 34.0517C20.4912 34.6832 20.4009 35.4657 20.4026 36.3334C20.4026 36.6766 20.421 37.0373 20.4502 37.4047C21.8694 37.9262 23.4023 38.2129 25.003 38.2157C26.4602 38.2129 27.8602 37.9722 29.1704 37.5365C28.8625 37.2549 28.5686 36.9547 28.301 36.6165C26.5246 34.3513 25.5335 31.0314 23.9654 25.4493ZM17.4065 14.1953C14.0138 16.5864 11.7937 20.5299 11.7852 24.9991C11.7937 29.4015 13.947 33.2941 17.2543 35.695C18.0656 32.3157 20.0992 29.2215 23.1488 23.0191C22.9677 22.5216 22.7613 21.977 22.5302 21.405C21.6855 19.2858 20.4662 16.8247 19.3781 15.7102C18.8233 15.128 18.1501 14.6249 17.4065 14.1953Z" fill="#64DD17"/>
<path d="M36.5152 40.1595C34.7647 39.9401 33.32 39.6754 32.0562 39.2296C29.9305 40.285 27.5367 40.8813 25.0019 40.8813C16.2313 40.8813 9.12148 33.7726 9.1204 24.9994C9.1204 20.2391 11.2175 15.9718 14.5353 13.0614C13.6479 12.847 12.7225 12.7219 11.7773 12.7237C7.11749 12.7675 2.1986 15.3464 0.150743 22.3109C-0.0407307 23.3247 0.0048685 24.0913 0.0048685 24.9998C0.0048685 38.806 11.1974 49.9994 25.0023 49.9994C33.457 49.9994 40.9258 45.7984 45.4487 39.3735C43.0024 39.9831 40.6498 40.2747 38.6352 40.2809C37.8801 40.2809 37.1713 40.2405 36.515 40.1603" fill="#7CB342"/>
<path d="M31.8191 35.3154C31.9734 35.3919 32.3233 35.5168 32.8102 35.6549C36.0858 33.2503 38.2145 29.3769 38.2229 24.9992H38.2216C38.2093 17.7009 32.3032 11.7957 25.0032 11.7812C23.5523 11.7841 22.1584 12.0235 20.8533 12.4559C23.5371 15.5152 24.8278 19.8871 26.0762 24.6694C26.0769 24.6716 26.078 24.6733 26.0784 24.675C26.0808 24.6789 26.4778 26.003 27.1594 27.7598C27.8362 29.5142 28.8005 31.6861 29.8521 33.2689C30.5426 34.3295 31.302 35.0918 31.8191 35.3154Z" fill="#29B6F6"/>
<path d="M25.0027 0.000432243C16.6297 0.000432243 9.2232 4.1223 4.68661 10.4424C7.04762 8.96382 9.45833 8.43046 11.5622 8.44948C14.468 8.4579 16.7525 9.35887 17.8486 9.97521C18.1133 10.1278 18.3647 10.292 18.6108 10.4608C20.5666 9.5994 22.7277 9.11769 25.0021 9.11769C33.7738 9.11877 40.8846 16.2275 40.8859 24.9992H40.8846C40.8846 29.4217 39.0758 33.4204 36.1598 36.2998C36.8756 36.38 37.6389 36.4299 38.4184 36.426C41.187 36.4273 44.1795 35.8164 46.4229 33.9295C47.8857 32.6973 49.1113 30.8929 49.791 28.1877C49.9239 27.1428 50.0004 26.0806 50.0004 24.9996C50.0004 11.1941 38.8089 0 25.0029 0" fill="#1E88E5"/>
</svg>
