<svg width="236" height="239" viewBox="0 0 236 239" fill="none" xmlns="http://www.w3.org/2000/svg">
<circle cx="114" cy="125" r="113" stroke="#0F95F7" stroke-width="2"/>
<circle cx="17.5" cy="182.5" r="9.5" fill="#0F95F7"/>
<g clip-path="url(#clip0_38_5984)">
<g opacity="0.2">
<path d="M121.24 222.277L233.01 157.826C237.422 155.274 236.869 150.829 231.773 147.895L168.334 111.316C163.238 108.383 155.534 108.054 151.109 110.606L39.3513 175.057C34.9395 177.609 35.4926 182.054 40.5892 184.988L104.027 221.567C109.124 224.5 116.828 224.829 121.253 222.277H121.24Z" fill="black"/>
</g>
<path d="M121.24 222.173L233.01 157.722C234.973 156.59 235.96 155.078 235.987 153.486C235.987 153.434 235.987 148.001 235.987 147.962C235.947 146.028 234.525 149.382 231.773 147.791L168.334 111.212C163.238 108.278 155.534 107.95 151.109 110.501L39.3512 174.952C37.8762 175.807 36.8095 172.19 36.4276 173.348C36.2959 173.729 36.3881 178.793 36.3749 179.188C36.3354 181.161 37.7577 183.265 40.5892 184.896L104.027 221.475C109.124 224.409 116.828 224.737 121.253 222.186L121.24 222.173Z" fill="url(#paint0_linear_38_5984)"/>
<path d="M121.24 216.74L233.01 152.289C237.422 149.737 236.869 145.291 231.773 142.358L168.334 105.779C163.238 102.846 155.534 102.517 151.109 105.069L39.3513 169.52C34.9395 172.071 35.4926 176.517 40.5892 179.45L104.027 216.03C109.124 218.963 116.828 219.292 121.253 216.74H121.24Z" fill="url(#paint1_linear_38_5984)"/>
<path d="M113.76 216.24C116.275 216.24 118.54 215.74 120.121 214.819L231.904 150.368C232.602 149.961 233.761 149.119 233.761 147.988C233.761 146.857 232.602 145.423 230.666 144.305L167.228 107.726C164.884 106.371 161.736 105.595 158.602 105.595C156.087 105.595 153.822 106.095 152.241 107.015L40.4575 171.453C39.7595 171.861 38.6006 172.703 38.6006 173.834C38.6006 174.965 39.7595 176.399 41.6954 177.517L105.133 214.096C107.478 215.451 110.625 216.227 113.76 216.227V216.24Z" fill="url(#paint2_linear_38_5984)"/>
<path d="M40.576 178.53L104.014 215.109C109.111 218.042 116.815 218.371 121.24 215.819L233.01 151.368C234.841 150.316 235.802 148.922 235.96 147.462C236.184 149.264 235.223 151.013 233.01 152.289L121.24 216.74C116.828 219.292 109.111 218.963 104.014 216.03L40.576 179.451C37.5997 177.728 36.1774 175.492 36.3881 173.426C36.612 175.215 38.0211 177.057 40.576 178.53Z" fill="white"/>
<path style="mix-blend-mode:color-dodge" d="M197.244 138.028C200.204 129.434 190.788 118.409 176.213 113.403C161.639 108.396 147.425 111.304 144.466 119.898C141.506 128.492 150.922 139.517 165.497 144.523C180.071 149.529 194.285 146.621 197.244 138.028Z" fill="url(#paint3_radial_38_5984)"/>
<path d="M101.38 192.998L192.145 140.661C193.963 139.609 193.739 137.78 191.632 136.57L157.549 116.919C155.455 115.709 152.281 115.578 150.463 116.63L59.6983 168.967C57.8809 170.019 58.1048 171.847 60.2119 173.057L94.2949 192.708C96.3889 193.919 99.5628 194.05 101.38 192.998Z" fill="url(#paint4_linear_38_5984)"/>
<path style="mix-blend-mode:screen" opacity="0.3" d="M155.573 119.208C154.836 118.787 153.637 118.787 152.9 119.208L147.079 122.562C146.341 122.983 146.341 123.68 147.079 124.101C147.816 124.522 149.015 124.522 149.752 124.101L155.573 120.747C156.311 120.326 156.311 119.629 155.573 119.208ZM145.617 124.956C144.879 124.535 143.681 124.535 142.943 124.956L140.191 126.548C139.454 126.969 139.454 127.666 140.191 128.087C140.929 128.508 142.127 128.508 142.864 128.087L145.617 126.495C146.354 126.074 146.354 125.377 145.617 124.956ZM138.716 128.929C137.979 128.508 136.78 128.508 136.043 128.929L133.29 130.52C132.553 130.941 132.553 131.638 133.29 132.059C134.028 132.48 135.226 132.48 135.964 132.059L138.716 130.467C139.454 130.047 139.454 129.349 138.716 128.929ZM131.815 132.901C131.078 132.48 129.879 132.48 129.142 132.901L126.389 134.492C125.652 134.913 125.652 135.61 126.389 136.031C127.127 136.452 128.325 136.452 129.063 136.031L131.815 134.44C132.553 134.019 132.553 133.322 131.815 132.901ZM124.914 136.873C124.177 136.452 122.978 136.452 122.241 136.873L119.488 138.465C118.751 138.886 118.751 139.583 119.488 140.004C120.226 140.424 121.424 140.424 122.162 140.004L124.914 138.412C125.652 137.991 125.652 137.294 124.914 136.873ZM118.013 140.845C117.276 140.424 116.077 140.424 115.34 140.845L112.588 142.437C111.85 142.858 111.85 143.555 112.588 143.976C113.325 144.397 114.523 144.397 115.261 143.976L118.013 142.384C118.751 141.963 118.751 141.266 118.013 140.845ZM111.113 144.818C110.375 144.397 109.177 144.397 108.439 144.818L105.687 146.409C104.949 146.83 104.949 147.527 105.687 147.948C106.424 148.369 107.623 148.369 108.36 147.948L111.113 146.357C111.85 145.936 111.85 145.239 111.113 144.818ZM104.212 148.79C103.474 148.369 102.276 148.369 101.538 148.79L98.7858 150.381C98.0483 150.802 98.0483 151.5 98.7858 151.92C99.5233 152.341 100.722 152.341 101.459 151.92L104.212 150.329C104.949 149.908 104.949 149.211 104.212 148.79ZM97.3108 152.762C96.5733 152.341 95.3748 152.341 94.6373 152.762L91.8849 154.354C91.1474 154.775 91.1474 155.472 91.8849 155.893C92.6224 156.314 93.8208 156.314 94.5583 155.893L97.3108 154.301C98.0483 153.88 98.0483 153.183 97.3108 152.762ZM90.4099 156.735C89.6724 156.314 88.4739 156.314 87.7364 156.735L84.984 158.326C84.2465 158.747 84.2465 159.444 84.984 159.865C85.7215 160.286 86.9199 160.286 87.6574 159.865L90.4099 158.273C91.1474 157.853 91.1474 157.155 90.4099 156.735ZM83.509 160.707C82.7715 160.286 81.5731 160.286 80.8356 160.707L78.0831 162.298C77.3456 162.719 77.3456 163.416 78.0831 163.837C78.8206 164.258 80.0191 164.258 80.7566 163.837L83.509 162.246C84.2465 161.825 84.2465 161.128 83.509 160.707ZM76.6081 164.679C75.8706 164.258 74.6722 164.258 73.9347 164.679L71.1822 166.271C70.4447 166.692 70.4447 167.389 71.1822 167.81C71.9197 168.23 73.1182 168.23 73.8557 167.81L76.6081 166.218C77.3456 165.797 77.3456 165.1 76.6081 164.679ZM69.5624 168.743C68.8249 168.323 67.6264 168.323 66.8889 168.743L64.1365 170.335C63.399 170.756 63.399 171.453 64.1365 171.874C64.874 172.295 66.0724 172.295 66.8099 171.874L69.5624 170.282C70.2999 169.861 70.2999 169.164 69.5624 168.743ZM161.737 122.746L159.366 121.379C158.523 120.892 157.167 120.905 156.324 121.379L153.94 122.76C153.097 123.246 153.097 124.036 153.94 124.509L156.311 125.877C157.153 126.364 158.51 126.35 159.353 125.877L161.737 124.496C162.579 124.009 162.579 123.22 161.737 122.746ZM152.439 129.849L154.822 128.468C155.665 127.981 155.665 127.192 154.822 126.719L152.452 125.351C151.609 124.864 150.253 124.877 149.41 125.351L147.026 126.732C146.183 127.219 146.183 128.008 147.026 128.481L149.397 129.849C150.239 130.336 151.596 130.323 152.439 129.849ZM147.935 130.704L145.564 129.336C144.721 128.85 143.365 128.863 142.522 129.336L140.138 130.717C139.295 131.204 139.295 131.993 140.138 132.467L142.509 133.835C143.352 134.321 144.708 134.308 145.551 133.835L147.935 132.454C148.778 131.967 148.778 131.178 147.935 130.704ZM141.034 134.676L138.663 133.309C137.82 132.822 136.464 132.835 135.621 133.309L133.237 134.69C132.395 135.176 132.395 135.966 133.237 136.439L135.608 137.807C136.451 138.294 137.807 138.28 138.65 137.807L141.034 136.426C141.877 135.939 141.877 135.15 141.034 134.676ZM126.337 140.424L128.707 141.792C129.55 142.279 130.906 142.266 131.749 141.792L134.133 140.411C134.976 139.925 134.976 139.135 134.133 138.662L131.762 137.294C130.92 136.807 129.563 136.82 128.72 137.294L126.337 138.675C125.494 139.162 125.494 139.951 126.337 140.424ZM119.436 144.397L121.806 145.765C122.649 146.251 124.006 146.238 124.848 145.765L127.232 144.384C128.075 143.897 128.075 143.108 127.232 142.634L124.862 141.266C124.019 140.78 122.662 140.793 121.819 141.266L119.436 142.647C118.593 143.134 118.593 143.923 119.436 144.397ZM112.535 148.369L114.905 149.737C115.748 150.224 117.105 150.21 117.948 149.737L120.331 148.356C121.174 147.869 121.174 147.08 120.331 146.606L117.961 145.239C117.118 144.752 115.761 144.765 114.919 145.239L112.535 146.62C111.692 147.106 111.692 147.896 112.535 148.369ZM105.634 152.341L108.004 153.709C108.847 154.196 110.204 154.183 111.047 153.709L113.43 152.328C114.273 151.841 114.273 151.052 113.43 150.579L111.06 149.211C110.217 148.724 108.861 148.737 108.018 149.211L105.634 150.592C104.791 151.079 104.791 151.868 105.634 152.341ZM98.7331 156.314L101.104 157.682C101.946 158.168 103.303 158.155 104.146 157.682L106.529 156.3C107.372 155.814 107.372 155.025 106.529 154.551L104.159 153.183C103.316 152.696 101.96 152.71 101.117 153.183L98.7331 154.564C97.8902 155.051 97.8902 155.84 98.7331 156.314ZM91.8322 160.286L94.2027 161.654C95.0456 162.141 96.4021 162.127 97.2449 161.654L99.6286 160.273C100.471 159.786 100.471 158.997 99.6286 158.523L97.2581 157.155C96.4152 156.669 95.0588 156.682 94.2159 157.155L91.8322 158.537C90.9893 159.023 90.9893 159.812 91.8322 160.286ZM92.7409 162.496L90.3704 161.128C89.5275 160.641 88.171 160.654 87.3282 161.128L84.9445 162.509C84.1016 162.995 84.1016 163.785 84.9445 164.258L87.315 165.626C88.1579 166.113 89.5143 166.1 90.3572 165.626L92.7409 164.245C93.5838 163.758 93.5838 162.969 92.7409 162.496ZM78.0436 168.244L80.4141 169.612C81.257 170.098 82.6135 170.085 83.4563 169.612L85.84 168.23C86.6829 167.744 86.6829 166.955 85.84 166.481L83.4695 165.113C82.6266 164.626 81.2702 164.64 80.4273 165.113L78.0436 166.494C77.2008 166.981 77.2008 167.77 78.0436 168.244ZM67.9425 174.071L70.313 175.438C71.1559 175.925 72.5124 175.912 73.3552 175.438L78.8074 172.295C79.6503 171.808 79.6503 171.019 78.8074 170.545L76.4369 169.177C75.5941 168.691 74.2376 168.704 73.3947 169.177L67.9425 172.321C67.0997 172.808 67.0997 173.597 67.9425 174.071ZM168.111 126.416L165.74 125.048C164.897 124.562 163.541 124.575 162.698 125.048L157.246 128.192C156.403 128.679 156.403 129.468 157.246 129.941L159.616 131.309C160.459 131.796 161.816 131.783 162.658 131.309L168.111 128.166C168.953 127.679 168.953 126.89 168.111 126.416ZM158.154 132.164L155.784 130.796C154.941 130.31 153.585 130.323 152.742 130.796L150.358 132.177C149.515 132.664 149.515 133.453 150.358 133.927L152.728 135.295C153.571 135.781 154.928 135.768 155.771 135.295L158.154 133.914C158.997 133.427 158.997 132.638 158.154 132.164ZM151.254 137.899C152.096 137.412 152.096 136.623 151.254 136.15L148.883 134.782C148.04 134.295 146.684 134.308 145.841 134.782L143.457 136.163C142.614 136.649 142.614 137.439 143.457 137.912L145.828 139.28C146.67 139.767 148.027 139.754 148.87 139.28L151.254 137.899ZM144.353 141.871C145.195 141.385 145.195 140.595 144.353 140.122L141.982 138.754C141.139 138.267 139.783 138.28 138.94 138.754L136.556 140.135C135.713 140.622 135.713 141.411 136.556 141.884L138.927 143.252C139.77 143.739 141.126 143.726 141.969 143.252L144.353 141.871ZM132.052 142.739L129.669 144.121C128.826 144.607 128.826 145.396 129.669 145.87L132.039 147.238C132.882 147.725 134.238 147.711 135.081 147.238L137.465 145.857C138.308 145.37 138.308 144.581 137.465 144.107L135.094 142.739C134.252 142.253 132.895 142.266 132.052 142.739ZM125.296 146.633L122.623 148.172C121.859 148.606 121.859 149.316 122.623 149.75L125.283 151.289C126.034 151.723 127.272 151.723 128.035 151.289L130.709 149.75C131.473 149.316 131.473 148.606 130.709 148.172L128.049 146.633C127.298 146.199 126.06 146.199 125.296 146.633ZM118.395 150.605L115.722 152.144C114.958 152.578 114.958 153.288 115.722 153.722L118.382 155.261C119.133 155.695 120.371 155.695 121.135 155.261L123.808 153.722C124.572 153.288 124.572 152.578 123.808 152.144L121.148 150.605C120.397 150.171 119.159 150.171 118.395 150.605ZM111.494 154.577L108.821 156.116C108.057 156.55 108.057 157.261 108.821 157.695L111.481 159.234C112.232 159.668 113.47 159.668 114.234 159.234L116.907 157.695C117.671 157.261 117.671 156.55 116.907 156.116L114.247 154.577C113.496 154.143 112.258 154.143 111.494 154.577ZM104.594 158.55L101.92 160.089C101.156 160.523 101.156 161.233 101.92 161.667L104.58 163.206C105.331 163.64 106.569 163.64 107.333 163.206L110.006 161.667C110.77 161.233 110.77 160.523 110.006 160.089L107.346 158.55C106.595 158.116 105.357 158.116 104.594 158.55ZM97.6927 162.522L95.0192 164.061C94.2554 164.495 94.2554 165.205 95.0192 165.639L97.6795 167.178C98.4302 167.612 99.6681 167.612 100.432 167.178L103.105 165.639C103.869 165.205 103.869 164.495 103.105 164.061L100.445 162.522C99.6945 162.088 98.4565 162.088 97.6927 162.522ZM93.5179 171.164L96.1913 169.625C96.9552 169.191 96.9552 168.48 96.1913 168.046L93.5311 166.507C92.7804 166.073 91.5425 166.073 90.7786 166.507L88.1052 168.046C87.3414 168.48 87.3414 169.191 88.1052 169.625L90.7655 171.164C91.5161 171.598 92.7541 171.598 93.5179 171.164ZM86.617 175.136L89.2905 173.597C90.0543 173.163 90.0543 172.453 89.2905 172.019L86.6302 170.48C85.8795 170.046 84.6416 170.046 83.8777 170.48L81.2043 172.019C80.4405 172.453 80.4405 173.163 81.2043 173.597L83.8646 175.136C84.6152 175.57 85.8532 175.57 86.617 175.136ZM74.1717 177.661L76.832 179.2C77.5827 179.634 78.8206 179.634 79.5845 179.2L82.2579 177.661C83.0217 177.227 83.0217 176.517 82.2579 176.083L79.5976 174.544C78.847 174.11 77.609 174.11 76.8452 174.544L74.1717 176.083C73.4079 176.517 73.4079 177.227 74.1717 177.661ZM174.63 130.165L171.969 128.626C171.219 128.192 169.981 128.192 169.217 128.626L160.564 133.611C159.801 134.045 159.801 134.755 160.564 135.189L163.225 136.728C163.975 137.162 165.213 137.162 165.977 136.728L174.63 131.743C175.393 131.309 175.393 130.599 174.63 130.165ZM161.763 137.583L159.103 136.044C158.352 135.61 157.114 135.61 156.35 136.044L153.677 137.583C152.913 138.017 152.913 138.728 153.677 139.162L156.337 140.701C157.088 141.135 158.326 141.135 159.089 140.701L161.763 139.162C162.527 138.728 162.527 138.017 161.763 137.583ZM154.862 141.556L152.202 140.017C151.451 139.583 150.213 139.583 149.449 140.017L146.776 141.556C146.012 141.99 146.012 142.7 146.776 143.134L149.436 144.673C150.187 145.107 151.425 145.107 152.189 144.673L154.862 143.134C155.626 142.7 155.626 141.99 154.862 141.556ZM147.961 145.528L145.301 143.989C144.55 143.555 143.312 143.555 142.548 143.989L139.875 145.528C139.111 145.962 139.111 146.672 139.875 147.106L142.535 148.645C143.286 149.079 144.524 149.079 145.288 148.645L147.961 147.106C148.725 146.672 148.725 145.962 147.961 145.528ZM138.374 152.631L141.047 151.092C141.811 150.658 141.811 149.947 141.047 149.513L138.387 147.974C137.636 147.54 136.398 147.54 135.634 147.974L132.961 149.513C132.197 149.947 132.197 150.658 132.961 151.092L135.621 152.631C136.372 153.065 137.61 153.065 138.374 152.631ZM131.473 156.603L134.146 155.064C134.91 154.63 134.91 153.92 134.146 153.486L131.486 151.947C130.735 151.513 129.497 151.513 128.733 151.947L126.06 153.486C125.296 153.92 125.296 154.63 126.06 155.064L128.72 156.603C129.471 157.037 130.709 157.037 131.473 156.603ZM124.572 160.575L127.245 159.036C128.009 158.602 128.009 157.892 127.245 157.458L124.585 155.919C123.834 155.485 122.596 155.485 121.833 155.919L119.159 157.458C118.395 157.892 118.395 158.602 119.159 159.036L121.819 160.575C122.57 161.009 123.808 161.009 124.572 160.575ZM117.671 164.548L120.344 163.009C121.108 162.575 121.108 161.864 120.344 161.43L117.684 159.891C116.933 159.457 115.696 159.457 114.932 159.891L112.258 161.43C111.494 161.864 111.494 162.575 112.258 163.009L114.919 164.548C115.669 164.982 116.907 164.982 117.671 164.548ZM110.77 168.52L113.444 166.981C114.207 166.547 114.207 165.837 113.444 165.403L110.783 163.864C110.033 163.43 108.795 163.43 108.031 163.864L105.357 165.403C104.594 165.837 104.594 166.547 105.357 166.981L108.018 168.52C108.768 168.954 110.006 168.954 110.77 168.52ZM103.869 172.492L106.543 170.953C107.306 170.519 107.306 169.809 106.543 169.375L103.882 167.836C103.132 167.402 101.894 167.402 101.13 167.836L98.4565 169.375C97.6927 169.809 97.6927 170.519 98.4565 170.953L101.117 172.492C101.867 172.926 103.105 172.926 103.869 172.492ZM99.655 173.347L96.9947 171.808C96.244 171.374 95.0061 171.374 94.2422 171.808L91.5688 173.347C90.805 173.781 90.805 174.491 91.5688 174.925L94.2291 176.464C94.9797 176.898 96.2177 176.898 96.9815 176.464L99.655 174.925C100.419 174.491 100.419 173.781 99.655 173.347ZM80.5327 181.305L83.1929 182.844C83.9436 183.278 85.1815 183.278 85.9454 182.844L92.7541 178.911C93.5179 178.477 93.5179 177.767 92.7541 177.333L90.0938 175.794C89.3431 175.36 88.1052 175.36 87.3414 175.794L80.5327 179.726C79.7688 180.16 79.7688 180.871 80.5327 181.305ZM180.964 133.795L178.659 132.467C177.803 131.98 176.421 131.98 175.551 132.467L163.277 139.543C162.421 140.043 162.408 140.845 163.277 141.332L165.582 142.661C166.438 143.147 167.821 143.147 168.69 142.661L180.964 135.584C181.82 135.084 181.833 134.282 180.964 133.795ZM164.12 143.515L161.816 142.187C160.96 141.7 159.577 141.7 158.707 142.187L156.39 143.529C155.534 144.028 155.52 144.831 156.39 145.317L158.694 146.646C159.55 147.133 160.933 147.133 161.802 146.646L164.12 145.304C164.976 144.805 164.989 144.002 164.12 143.515ZM157.219 147.488L154.915 146.159C154.059 145.673 152.676 145.673 151.807 146.159L149.489 147.501C148.633 148.001 148.62 148.803 149.489 149.29L151.793 150.618C152.649 151.105 154.032 151.105 154.901 150.618L157.219 149.277C158.075 148.777 158.089 147.974 157.219 147.488ZM150.318 151.46L148.014 150.132C147.158 149.645 145.775 149.645 144.906 150.132L142.588 151.473C141.732 151.973 141.719 152.775 142.588 153.262L144.893 154.591C145.749 155.077 147.131 155.077 148.001 154.591L150.318 153.249C151.174 152.749 151.188 151.947 150.318 151.46ZM143.418 155.432L141.113 154.104C140.257 153.617 138.874 153.617 138.005 154.104L135.687 155.445C134.831 155.945 134.818 156.748 135.687 157.234L137.992 158.563C138.848 159.049 140.231 159.049 141.1 158.563L143.418 157.221C144.274 156.721 144.287 155.919 143.418 155.432ZM136.517 159.405L134.212 158.076C133.356 157.589 131.973 157.589 131.104 158.076L128.786 159.418C127.93 159.918 127.917 160.72 128.786 161.207L131.091 162.535C131.947 163.022 133.33 163.022 134.199 162.535L136.517 161.193C137.373 160.694 137.386 159.891 136.517 159.405ZM129.616 163.377L127.311 162.048C126.455 161.562 125.072 161.562 124.203 162.048L121.885 163.39C121.029 163.89 121.016 164.692 121.885 165.179L124.19 166.507C125.046 166.994 126.429 166.994 127.298 166.507L129.616 165.166C130.472 164.666 130.485 163.864 129.616 163.377ZM122.715 167.349L120.41 166.021C119.554 165.534 118.171 165.534 117.302 166.021L114.984 167.362C114.128 167.862 114.115 168.665 114.984 169.151L117.289 170.48C118.145 170.966 119.528 170.966 120.397 170.48L122.715 169.138C123.571 168.638 123.584 167.836 122.715 167.349ZM115.814 171.321L113.509 169.993C112.653 169.506 111.271 169.506 110.401 169.993L108.083 171.335C107.227 171.834 107.214 172.637 108.083 173.123L110.388 174.452C111.244 174.939 112.627 174.939 113.496 174.452L115.814 173.11C116.67 172.61 116.683 171.808 115.814 171.321ZM108.913 175.294L106.609 173.965C105.752 173.479 104.37 173.479 103.5 173.965L101.183 175.307C100.327 175.807 100.313 176.609 101.183 177.096L103.487 178.424C104.343 178.911 105.726 178.911 106.595 178.424L108.913 177.083C109.769 176.583 109.782 175.78 108.913 175.294ZM102.012 179.266L99.7076 177.938C98.8516 177.451 97.4688 177.451 96.5996 177.938L94.2817 179.279C93.4257 179.779 93.4126 180.581 94.2817 181.068L96.5864 182.397C97.4425 182.883 98.8253 182.883 99.6945 182.397L102.012 181.055C102.868 180.555 102.882 179.753 102.012 179.266ZM87.2228 185.132L89.5275 186.461C90.3835 186.948 91.7663 186.948 92.6355 186.461L94.9534 185.119C95.8094 184.619 95.8226 183.817 94.9534 183.33L92.6487 182.002C91.7927 181.515 90.4099 181.515 89.5407 182.002L87.2228 183.344C86.3668 183.843 86.3536 184.646 87.2228 185.132ZM176.526 141.003L178.831 142.332C179.687 142.818 181.07 142.818 181.939 142.332L187.325 139.228C188.181 138.728 188.194 137.925 187.325 137.439L185.02 136.11C184.164 135.624 182.782 135.624 181.912 136.11L176.526 139.214C175.67 139.714 175.657 140.517 176.526 141.003ZM169.625 144.975L171.93 146.304C172.786 146.791 174.169 146.791 175.038 146.304L177.356 144.962C178.212 144.463 178.225 143.66 177.356 143.173L175.051 141.845C174.195 141.358 172.812 141.358 171.943 141.845L169.625 143.187C168.769 143.686 168.756 144.489 169.625 144.975ZM162.724 148.948L165.029 150.276C165.885 150.763 167.268 150.763 168.137 150.276L170.455 148.935C171.311 148.435 171.324 147.632 170.455 147.146L168.15 145.817C167.294 145.331 165.911 145.331 165.042 145.817L162.724 147.159C161.868 147.659 161.855 148.461 162.724 148.948ZM114.444 176.793L116.749 178.122C117.605 178.608 118.988 178.608 119.857 178.122L163.567 152.92C164.423 152.42 164.436 151.618 163.567 151.131L161.262 149.803C160.406 149.316 159.024 149.316 158.154 149.803L114.444 175.004C113.588 175.504 113.575 176.307 114.444 176.793ZM107.544 180.766L109.848 182.094C110.704 182.581 112.087 182.581 112.956 182.094L115.274 180.752C116.13 180.253 116.143 179.45 115.274 178.964L112.969 177.635C112.113 177.148 110.731 177.148 109.861 177.635L107.544 178.977C106.688 179.477 106.674 180.279 107.544 180.766ZM100.643 184.738L102.947 186.066C103.803 186.553 105.186 186.553 106.055 186.066L108.373 184.725C109.229 184.225 109.242 183.422 108.373 182.936L106.069 181.607C105.213 181.121 103.83 181.121 102.961 181.607L100.643 182.949C99.7866 183.449 99.7735 184.251 100.643 184.738ZM93.5969 188.802L95.9016 190.131C96.7576 190.617 98.1404 190.617 99.0096 190.131L101.327 188.789C102.184 188.289 102.197 187.487 101.327 187L99.0228 185.672C98.1668 185.185 96.784 185.185 95.9148 185.672L93.5969 187.013C92.7409 187.513 92.7277 188.315 93.5969 188.802Z" fill="url(#paint5_linear_38_5984)"/>
<path d="M41.116 168.665L148.817 106.529C152.992 104.122 156.363 97.6767 156.363 92.1261V7.73473C156.363 2.18406 152.979 -0.367675 148.817 2.03937L41.116 64.1754C36.9412 66.5824 33.5698 73.0275 33.5698 78.5782V162.97C33.5698 168.52 36.9544 171.072 41.116 168.665Z" fill="url(#paint6_linear_38_5984)"/>
<path d="M40.1414 164.337L146.684 102.872C150.042 100.741 152.11 96.4927 152.11 92.1259V7.32681C152.11 6.30085 150.99 5.65634 150.095 6.16932C149.989 6.23509 149.91 6.27454 149.858 6.30085L43.2363 67.845C39.2459 70.1468 37.8104 74.2374 37.8104 78.5912V163.18C37.8104 164.285 39.0089 164.982 39.9702 164.429L40.1414 164.324V164.337Z" fill="url(#paint7_linear_38_5984)"/>
<g style="mix-blend-mode:multiply">
<path d="M37.8104 78.5912V163.18C37.8104 164.285 39.0089 164.982 39.9702 164.429C40.0493 164.39 40.1019 164.35 40.1414 164.324L146.684 102.859C150.042 100.728 152.11 96.4796 152.11 92.1127V7.32681C152.11 6.30085 150.99 5.65634 150.095 6.16932C149.989 6.23509 149.91 6.27454 149.858 6.30085L43.2363 67.845C39.2459 70.1468 37.8104 74.2374 37.8104 78.5912ZM38.6533 78.5912C38.6533 75.3423 39.5225 70.9623 43.6577 68.5815L150.542 6.9059C150.621 6.86644 150.7 6.84013 150.793 6.84013C151.03 6.84013 151.28 7.02428 151.28 7.32681V92.1259C151.28 96.2691 149.304 100.215 146.275 102.135L39.5488 163.693C39.4566 163.745 39.3513 163.772 39.2591 163.772C38.9694 163.772 38.6664 163.548 38.6664 163.18V78.5912H38.6533Z" fill="#BCBEC0"/>
</g>
<path d="M38.9825 63.044L146.67 0.908007C148.317 -0.0390276 149.844 -0.223173 151.082 0.263497C151.24 0.329264 153.347 1.44729 153.492 1.52621C152.202 0.908007 150.569 1.02639 148.791 2.05234L41.116 64.1752C36.9412 66.5822 33.5698 73.0273 33.5698 78.578V162.969C33.5698 166.429 34.8868 168.73 36.8885 169.388C36.7305 169.388 36.5198 169.335 36.2301 169.165C36.1379 169.112 33.8464 167.823 33.7542 167.757C32.3187 166.757 31.4232 164.692 31.4232 161.838V77.4468C31.4232 71.8961 34.8077 65.4379 38.9693 63.044H38.9825Z" fill="url(#paint8_linear_38_5984)"/>
<path style="mix-blend-mode:screen" d="M40.7472 64.0038L148.448 1.85465C150.16 0.868152 151.728 0.723466 152.992 1.2759C151.912 1.10491 150.674 1.36798 149.357 2.13086L41.6559 64.2669C37.4812 66.6739 34.1098 73.119 34.1098 78.6697V163.061C34.1098 166.336 35.295 168.559 37.1124 169.348C34.7814 168.98 33.201 166.586 33.201 162.798V78.4066C33.201 72.8559 36.5856 66.3977 40.7472 64.0038Z" fill="url(#paint9_radial_38_5984)"/>
<path d="M42.1959 73.9874V153.828L139.783 97.7817V17.9414L42.1959 73.9874Z" fill="url(#paint10_linear_38_5984)"/>
<path d="M43.4339 75.0656V84.6938L141.021 28.6477V19.0195L43.4339 75.0656Z" fill="url(#paint11_linear_38_5984)"/>
<path d="M29 146.251C29 150.303 30.396 153.183 32.6743 154.577C32.7402 154.617 36.5725 156.984 36.6384 157.024C39.0089 158.352 37.4944 155.34 41.0897 153.262C48.333 149.079 54.2066 138.964 54.2066 130.665C54.2066 126.561 58.0127 126.521 55.6816 125.154C55.6158 125.114 51.3357 122.668 51.2698 122.641C48.8993 121.365 45.6727 121.602 42.1169 123.654C34.8736 127.837 29 137.952 29 146.251Z" fill="url(#paint12_linear_38_5984)"/>
<path d="M55.6358 146.622C60.7932 137.811 60.8458 128.258 55.7534 125.285C50.661 122.311 42.352 127.044 37.1946 135.855C32.0372 144.667 31.9846 154.22 37.077 157.193C42.1694 160.166 50.4785 155.434 55.6358 146.622Z" fill="url(#paint13_linear_38_5984)"/>
<path style="mix-blend-mode:color-dodge" d="M45.7781 125.89C49.2548 123.89 52.4024 123.614 54.7597 124.785C52.5736 124.18 49.8607 124.627 46.9107 126.324C39.6674 130.507 33.7937 140.621 33.7937 148.921C33.7937 153.249 35.3872 156.221 37.9421 157.497C34.7419 156.603 32.6611 153.42 32.6611 148.487C32.6611 140.187 38.5348 130.059 45.7781 125.89Z" fill="url(#paint14_radial_38_5984)"/>
<path d="M39.3908 143.002L44.1845 140.24V134.742L49.268 131.809V137.307L54.0618 134.544V140.371L49.268 143.134V148.632L44.1845 151.552V146.067L39.3908 148.829V143.002Z" fill="white"/>
<path d="M55.3787 86.6932L55.326 86.7195L102.592 12.6009C104.844 9.06263 108.202 7.1291 110.454 8.06299L157.772 27.6482L157.72 27.6745C158.26 27.9244 158.602 28.5163 158.602 29.4107V102.661C158.602 104.332 157.417 106.37 155.955 107.212L57.1434 164.205C55.6816 165.047 54.4963 164.376 54.4963 162.706V89.4554C54.4963 88.5609 54.8387 87.5744 55.3787 86.7063V86.6932Z" fill="url(#paint15_linear_38_5984)"/>
<path opacity="0.15" d="M66.8889 152.933L144.142 108.383V19.0459L66.8889 63.596V152.933Z" fill="black"/>
<path style="mix-blend-mode:color-dodge" d="M55.5367 164.14V90.8891C55.5367 89.9946 55.8791 89.0081 56.4191 88.14L56.3664 88.1663L103.619 14.0477C105.871 10.5095 109.229 8.57596 111.481 9.50984L158.536 28.9898C158.444 28.3322 158.141 27.8849 157.707 27.6745L157.759 27.6482L110.454 8.06299C108.189 7.1291 104.844 9.06263 102.592 12.6009L55.326 86.7326L55.3787 86.7063C54.8387 87.5744 54.4963 88.5609 54.4963 89.4554V162.706C54.4963 163.692 54.9178 164.324 55.5631 164.508C55.5499 164.389 55.5236 164.284 55.5236 164.153L55.5367 164.14Z" fill="url(#paint16_radial_38_5984)"/>
<path d="M67.9162 153.959L145.182 109.409V20.0723L67.9162 64.6224V153.959Z" fill="#F1F2F2"/>
<path d="M98.496 93.546L104.673 90.0078V91.8361L98.496 95.3612V93.546Z" fill="url(#paint17_linear_38_5984)"/>
<path d="M101.077 78.6164L94.9402 82.1546V80.3263L101.077 76.7881V78.6164Z" fill="url(#paint18_linear_38_5984)"/>
<path d="M100.748 88.3242V90.1525L93.8998 94.0327V92.2044L100.748 88.3242Z" fill="url(#paint19_linear_38_5984)"/>
<path d="M93.5443 86.824V85.0089L102.223 79.958V81.7732L93.5443 86.824Z" fill="url(#paint20_linear_38_5984)"/>
<path d="M88.2764 84.1152V85.9435L82.6135 89.1398V87.3246L88.2764 84.1152Z" fill="url(#paint21_linear_38_5984)"/>
<path d="M108.9 77.9196L104.04 80.7213V78.9061L108.9 76.1045V77.9196Z" fill="url(#paint22_linear_38_5984)"/>
<path d="M96.7313 88.679V86.8639L99.6154 85.2197V87.0349L96.7313 88.679Z" fill="url(#paint23_linear_38_5984)"/>
<path d="M106.49 90.7833V88.9681L108.07 88.0605V89.8757L106.49 90.7833Z" fill="url(#paint24_linear_38_5984)"/>
<path d="M94.9139 87.8896V89.718L89.0402 93.0589V91.2306L94.9139 87.8896Z" fill="url(#paint25_linear_38_5984)"/>
<path d="M102.579 89.1002V87.2851L108.887 83.6416V85.4568L102.579 89.1002Z" fill="url(#paint26_linear_38_5984)"/>
<path d="M91.7532 86.0488V87.864L84.3782 91.981V90.1658L91.7532 86.0488Z" fill="url(#paint27_linear_38_5984)"/>
<path d="M86.1561 102.424V100.595L91.9244 97.2939V99.1222L86.1561 102.424Z" fill="url(#paint28_linear_38_5984)"/>
<path d="M96.6786 96.4001L93.7418 98.0837V96.2554L96.6786 94.585V96.4001Z" fill="url(#paint29_linear_38_5984)"/>
<path d="M93.1492 83.1814L90.107 84.9044V83.0893L93.1492 81.3662V83.1814Z" fill="url(#paint30_linear_38_5984)"/>
<path d="M119.488 69.9489L122.662 68.1338V69.9621L119.488 71.7641V69.9489Z" fill="url(#paint31_linear_38_5984)"/>
<path d="M80.7961 90.1657L78.0041 91.7704V89.9421L80.7961 88.3506V90.1657Z" fill="url(#paint32_linear_38_5984)"/>
<path d="M72.3148 110.066V108.238L84.6943 101.201V103.029L72.3148 110.066Z" fill="url(#paint33_linear_38_5984)"/>
<path d="M117.869 84.3126V82.4974L130.235 75.4473V77.2756L117.869 84.3126Z" fill="url(#paint34_linear_38_5984)"/>
<path d="M111.429 78.4849L114.339 76.7881V78.6032L111.429 80.3V78.4849Z" fill="url(#paint35_linear_38_5984)"/>
<path d="M110.704 82.5891L123.689 75.2891V77.1174L110.704 84.4174V82.5891Z" fill="url(#paint36_linear_38_5984)"/>
<path d="M101.433 84.1801L109.638 79.5107V81.339L101.433 86.0085V84.1801Z" fill="url(#paint37_linear_38_5984)"/>
<path d="M109.888 88.8368V87.0217L116.407 83.2861V85.1013L109.888 88.8368Z" fill="url(#paint38_linear_38_5984)"/>
<path d="M82.5608 93.006L78.0041 95.5446V93.7295L82.5608 91.1777V93.006Z" fill="url(#paint39_linear_38_5984)"/>
<path d="M117.697 72.8029L110.717 76.8804V75.0521L117.697 70.9746V72.8029Z" fill="url(#paint40_linear_38_5984)"/>
<path d="M87.2228 94.0978L78.0041 99.3328V97.5045L87.2228 92.2695V94.0978Z" fill="url(#paint41_linear_38_5984)"/>
<path d="M126.613 69.8306L129.524 68.1338V69.9489L126.613 71.6457V69.8306Z" fill="url(#paint42_linear_38_5984)"/>
<path d="M116.617 75.5259L124.822 70.8564V72.6847L116.617 77.341V75.5259Z" fill="url(#paint43_linear_38_5984)"/>
<path d="M79.7688 84.5222L73.8293 87.9157V86.0874L79.7688 82.707V84.5222Z" fill="url(#paint44_linear_38_5984)"/>
<path d="M83.0481 69.4621L73.8293 74.6971V72.8819L83.0481 67.6338V69.4621Z" fill="url(#paint45_linear_38_5984)"/>
<path d="M86.1429 72.882L73.8293 79.8927V78.0776L86.1429 71.0537V72.882Z" fill="url(#paint46_linear_38_5984)"/>
<path d="M92.0692 95.072L78.0041 103.109V101.293L92.0692 93.2568V95.072Z" fill="url(#paint47_linear_38_5984)"/>
<path d="M98.496 112.868L104.673 109.343V111.158L98.496 114.696V112.868Z" fill="url(#paint48_linear_38_5984)"/>
<path d="M101.077 97.9523L94.9402 101.491V99.6622L101.077 96.124V97.9523Z" fill="url(#paint49_linear_38_5984)"/>
<path d="M100.748 107.659V109.487L93.8998 113.368V111.539L100.748 107.659Z" fill="url(#paint50_linear_38_5984)"/>
<path d="M93.5443 106.16V104.344L97.0342 102.332V104.16L93.5443 106.16Z" fill="url(#paint51_linear_38_5984)"/>
<path d="M88.2764 103.45V105.265L82.6135 108.475V106.646L88.2764 103.45Z" fill="url(#paint52_linear_38_5984)"/>
<path d="M103.711 100.307L98.8516 103.108V101.28L103.711 98.4785V100.307Z" fill="url(#paint53_linear_38_5984)"/>
<path d="M96.7313 108.014V106.199L99.6154 104.555V106.37L96.7313 108.014Z" fill="url(#paint54_linear_38_5984)"/>
<path d="M106.49 110.119V108.304L108.07 107.396V109.212L106.49 110.119Z" fill="url(#paint55_linear_38_5984)"/>
<path d="M94.9139 107.226V109.054L89.0402 112.395V110.567L94.9139 107.226Z" fill="url(#paint56_linear_38_5984)"/>
<path d="M102.579 108.436V106.62L111.231 101.675V103.49L102.579 108.436Z" fill="url(#paint57_linear_38_5984)"/>
<path d="M91.7532 105.384V107.199L84.3782 111.316V109.501L91.7532 105.384Z" fill="url(#paint58_linear_38_5984)"/>
<path d="M93.1492 102.516L90.107 104.239V102.424L93.1492 100.701V102.516Z" fill="url(#paint59_linear_38_5984)"/>
<path d="M109.611 95.0842L117.473 90.5068V92.3351L109.611 96.8993V95.0842Z" fill="url(#paint60_linear_38_5984)"/>
<path d="M102.17 97.4786V95.6503L114.537 88.6133V90.4284L102.17 97.4786Z" fill="url(#paint61_linear_38_5984)"/>
<path d="M111.429 97.8208L114.339 96.124V97.9392L111.429 99.6359V97.8208Z" fill="url(#paint62_linear_38_5984)"/>
<path d="M113.048 100.635L123.69 94.624V96.4523L113.048 102.45V100.635Z" fill="url(#paint63_linear_38_5984)"/>
<path d="M101.433 103.516L109.638 98.8467V100.675L101.433 105.331V103.516Z" fill="url(#paint64_linear_38_5984)"/>
<path d="M109.888 108.172V106.343L116.407 102.621V104.436L109.888 108.172Z" fill="url(#paint65_linear_38_5984)"/>
<path d="M107.807 97.9387L105.529 99.254V97.4388L107.807 96.1104V97.9387Z" fill="url(#paint66_linear_38_5984)"/>
<path d="M116.117 87.7847L119.027 86.0879V87.903L116.117 89.5998V87.7847Z" fill="url(#paint67_linear_38_5984)"/>
<path d="M116.617 94.8608L124.822 90.1914V92.0197L116.617 96.676V94.8608Z" fill="url(#paint68_linear_38_5984)"/>
<path d="M101.143 57.5186L88.1447 64.8581V66.6864L101.143 59.3469V57.5186Z" fill="url(#paint69_linear_38_5984)"/>
<path d="M102.539 56.7294V58.5577L112.364 53.007V51.1787L102.539 56.7294Z" fill="url(#paint70_linear_38_5984)"/>
<path d="M97.5478 66.5425L106.674 61.3601V59.5449L97.5478 64.7273V66.5425Z" fill="url(#paint71_linear_38_5984)"/>
<path d="M111.218 56.9531L108.07 58.742V60.5703L111.218 58.7814V56.9531Z" fill="url(#paint72_linear_38_5984)"/>
<path d="M120.66 51.5996L112.627 56.1638V57.9789L120.66 53.4148V51.5996Z" fill="url(#paint73_linear_38_5984)"/>
<path d="M129.866 46.365V48.1801L134.159 45.7468V43.9316L129.866 46.365Z" fill="url(#paint74_linear_38_5984)"/>
<path d="M128.47 47.1543L122.056 50.7977V52.6129L128.47 48.9826V47.1543Z" fill="url(#paint75_linear_38_5984)"/>
<path d="M96.1518 65.5166L88.1447 70.0676V71.8828L96.1518 67.3449V65.5166Z" fill="url(#paint76_linear_38_5984)"/>
<path d="M82.5344 81.1416L80.9409 82.0492V83.8643L82.5344 82.9568V81.1416Z" fill="url(#paint77_linear_38_5984)"/>
<path d="M83.8909 80.366V82.1811L96.4152 75.1047V73.2764L83.8909 80.366Z" fill="url(#paint78_linear_38_5984)"/>
<path d="M67.9162 71.1332L145.182 26.57V20.0723L67.9162 64.6224V71.1332Z" fill="url(#paint79_linear_38_5984)"/>
<path opacity="0.2" d="M102.565 107.384C104.87 108.331 108.281 106.371 110.573 102.767L158.602 30.4766V99.6364C158.602 101.307 157.417 103.346 155.955 104.187L57.1434 161.167C55.6816 162.009 54.4963 161.338 54.4963 159.668V90.508L102.565 107.384Z" fill="black"/>
<path d="M102.565 110.409C104.87 111.356 108.281 109.396 110.573 105.792L158.602 30.4766V102.662C158.602 104.332 157.417 106.371 155.955 107.213L57.1434 164.206C55.6816 165.048 54.4963 164.377 54.4963 162.706V90.5212L102.565 110.422V110.409Z" fill="url(#paint80_linear_38_5984)"/>
<path style="mix-blend-mode:color-dodge" d="M55.5367 92.3622L103.606 112.263C105.911 113.21 109.321 111.25 111.613 107.646L158.602 33.9617V30.4893L110.586 105.792C108.281 109.396 104.87 111.369 102.579 110.408L54.5095 90.5076V162.693C54.5095 163.666 54.9178 164.284 55.5367 164.482V92.3622Z" fill="url(#paint81_radial_38_5984)"/>
<path opacity="0.2" d="M156.205 107.147L156.258 107.12L110.862 86.049C108.689 85.1545 105.476 87.0092 103.303 90.4027L57.8809 163.837L57.9336 163.811L156.218 107.134L156.205 107.147Z" fill="black"/>
<path d="M156.205 107.146L156.258 107.12L110.862 88.2843C108.689 87.3899 105.476 89.2445 103.303 92.638L57.8809 163.837L57.9336 163.81L156.218 107.133L156.205 107.146Z" fill="url(#paint82_linear_38_5984)"/>
<path style="mix-blend-mode:color-dodge" d="M103.935 93.7166C106.108 90.3099 109.321 88.4553 111.494 89.3629L155.441 107.593L156.218 107.146L156.271 107.12L110.875 88.2843C108.702 87.3899 105.489 89.2445 103.316 92.638L57.8809 163.85L57.9336 163.823L59.9617 162.653L103.948 93.7166H103.935Z" fill="url(#paint83_radial_38_5984)"/>
<path d="M138.756 38.4076C138.756 42.906 140.31 46.0891 142.838 47.6411C142.917 47.6938 147.158 50.3112 147.237 50.3639C149.871 51.837 148.185 48.4961 152.175 46.1943C160.209 41.5643 166.728 30.3314 166.728 21.1242C166.728 16.5731 170.942 16.5337 168.361 15.0079C168.295 14.9684 163.541 12.2589 163.462 12.2194C160.841 10.7989 157.259 11.0619 153.308 13.3374C145.275 17.9674 138.756 29.2003 138.756 38.4076Z" fill="url(#paint84_linear_38_5984)"/>
<path d="M168.308 38.8167C174.027 29.0459 174.082 18.4503 168.431 15.1508C162.78 11.8512 153.562 17.0972 147.843 26.868C142.124 36.6388 142.069 47.2344 147.721 50.5339C153.372 53.8335 162.589 48.5875 168.308 38.8167Z" fill="url(#paint85_linear_38_5984)"/>
<path style="mix-blend-mode:color-dodge" d="M157.377 15.8103C161.236 13.5874 164.726 13.2849 167.334 14.587C164.91 13.9031 161.895 14.4161 158.628 16.297C150.595 20.9269 144.076 32.1598 144.076 41.3671C144.076 46.168 145.841 49.4695 148.672 50.8769C145.116 49.8904 142.825 46.3522 142.825 40.8804C142.825 31.6731 149.344 20.4402 157.377 15.8103Z" fill="url(#paint86_radial_38_5984)"/>
<path d="M159.748 31.9761L161.499 45.6029L166.227 19.2832L159.748 31.9761Z" fill="white"/>
<path d="M158.8 31.5683L166.227 19.2832L145.828 36.685L158.8 31.5683Z" fill="white"/>
</g>
<defs>
<linearGradient id="paint0_linear_38_5984" x1="231.575" y1="166.337" x2="24.0745" y2="166.337" gradientUnits="userSpaceOnUse">
<stop offset="0.06" stop-color="#9F79B8"/>
<stop offset="0.26" stop-color="#A07BB9"/>
<stop offset="0.36" stop-color="#A782BF"/>
<stop offset="0.43" stop-color="#B28FC8"/>
<stop offset="0.49" stop-color="#C1A1D5"/>
<stop offset="0.51" stop-color="#C3A5D6"/>
<stop offset="0.52" stop-color="#CCB2DC"/>
<stop offset="0.53" stop-color="#DAC8E6"/>
<stop offset="0.55" stop-color="#EEE6F4"/>
<stop offset="0.56" stop-color="white"/>
<stop offset="0.57" stop-color="#EBDFF3"/>
<stop offset="0.58" stop-color="#DDC7EA"/>
<stop offset="0.59" stop-color="#D4B9E4"/>
<stop offset="0.6" stop-color="#D1B4E3"/>
<stop offset="0.66" stop-color="#B294D5"/>
<stop offset="0.72" stop-color="#9B7CCB"/>
<stop offset="0.77" stop-color="#8D6EC5"/>
<stop offset="0.81" stop-color="#8969C3"/>
<stop offset="1" stop-color="#B086CC"/>
</linearGradient>
<linearGradient id="paint1_linear_38_5984" x1="235.987" y1="160.904" x2="36.3618" y2="160.904" gradientUnits="userSpaceOnUse">
<stop stop-color="#9F79C8"/>
<stop offset="0.14" stop-color="#A47FCA"/>
<stop offset="0.33" stop-color="#B491D3"/>
<stop offset="0.55" stop-color="#CDAFE1"/>
<stop offset="0.58" stop-color="#D1B4E3"/>
<stop offset="0.76" stop-color="#DAC3E8"/>
<stop offset="1" stop-color="#EBDEF3"/>
</linearGradient>
<linearGradient id="paint2_linear_38_5984" x1="233.761" y1="160.904" x2="38.6006" y2="160.904" gradientUnits="userSpaceOnUse">
<stop stop-color="#3D065F"/>
<stop offset="1" stop-color="#5F27BD"/>
</linearGradient>
<radialGradient id="paint3_radial_38_5984" cx="0" cy="0" r="1" gradientUnits="userSpaceOnUse" gradientTransform="translate(171.004 128.369) rotate(-161.042) scale(27.9027 16.4465)">
<stop stop-color="#972A74"/>
<stop offset="0.04" stop-color="#8A266A"/>
<stop offset="0.19" stop-color="#601A49"/>
<stop offset="0.35" stop-color="#3D112F"/>
<stop offset="0.51" stop-color="#22091A"/>
<stop offset="0.67" stop-color="#0F040B"/>
<stop offset="0.83" stop-color="#030102"/>
<stop offset="1"/>
</radialGradient>
<linearGradient id="paint4_linear_38_5984" x1="3907.98" y1="-1990.16" x2="3952.29" y2="-2095.14" gradientUnits="userSpaceOnUse">
<stop stop-color="#3D065F"/>
<stop offset="1" stop-color="#10054D"/>
</linearGradient>
<linearGradient id="paint5_linear_38_5984" x1="151.201" y1="115.091" x2="100.324" y2="195.041" gradientUnits="userSpaceOnUse">
<stop offset="0.06" stop-color="#9F79B8"/>
<stop offset="0.25" stop-color="#A17BB9"/>
<stop offset="0.35" stop-color="#A882C0"/>
<stop offset="0.42" stop-color="#B48FCB"/>
<stop offset="0.48" stop-color="#C5A2DB"/>
<stop offset="0.54" stop-color="#DBBAF0"/>
<stop offset="0.56" stop-color="#E6C6FA"/>
<stop offset="0.6" stop-color="#D6B6F0"/>
<stop offset="0.69" stop-color="#B494DC"/>
<stop offset="0.77" stop-color="#9C7CCE"/>
<stop offset="0.85" stop-color="#8E6EC5"/>
<stop offset="0.92" stop-color="#8969C3"/>
</linearGradient>
<linearGradient id="paint6_linear_38_5984" x1="149.107" y1="132.664" x2="-9.41595" y2="-6.21883" gradientUnits="userSpaceOnUse">
<stop stop-color="#9F79C8"/>
<stop offset="0.14" stop-color="#A27CC9"/>
<stop offset="0.27" stop-color="#AB87CE"/>
<stop offset="0.4" stop-color="#BB9AD7"/>
<stop offset="0.52" stop-color="#D1B4E3"/>
<stop offset="0.65" stop-color="#DAC3E8"/>
<stop offset="0.9" stop-color="#F3ECF8"/>
<stop offset="1" stop-color="white"/>
</linearGradient>
<linearGradient id="paint7_linear_38_5984" x1="143.128" y1="112.711" x2="40.0595" y2="53.8843" gradientUnits="userSpaceOnUse">
<stop stop-color="#2A0C5C"/>
<stop offset="0.69" stop-color="#5F27BD"/>
<stop offset="1" stop-color="#B4299A"/>
</linearGradient>
<linearGradient id="paint8_linear_38_5984" x1="7.0462" y1="173.334" x2="108.955" y2="10.2908" gradientUnits="userSpaceOnUse">
<stop offset="0.06" stop-color="#9F79B8"/>
<stop offset="0.26" stop-color="#A07BB9"/>
<stop offset="0.36" stop-color="#A782BF"/>
<stop offset="0.43" stop-color="#B28FC8"/>
<stop offset="0.49" stop-color="#C1A1D5"/>
<stop offset="0.51" stop-color="#C3A5D6"/>
<stop offset="0.52" stop-color="#CCB2DC"/>
<stop offset="0.53" stop-color="#DAC8E6"/>
<stop offset="0.55" stop-color="#EEE6F4"/>
<stop offset="0.56" stop-color="white"/>
<stop offset="0.57" stop-color="#EBDFF3"/>
<stop offset="0.58" stop-color="#DDC7EA"/>
<stop offset="0.59" stop-color="#D4B9E4"/>
<stop offset="0.6" stop-color="#D1B4E3"/>
<stop offset="0.61" stop-color="#CFB1E1"/>
<stop offset="0.76" stop-color="#BE99D5"/>
<stop offset="0.89" stop-color="#B38BCE"/>
<stop offset="1" stop-color="#B086CC"/>
</linearGradient>
<radialGradient id="paint9_radial_38_5984" cx="0" cy="0" r="1" gradientUnits="userSpaceOnUse" gradientTransform="translate(36.1774 73.2374) rotate(180) scale(17.3444 17.3228)">
<stop stop-color="white"/>
<stop offset="1"/>
</radialGradient>
<linearGradient id="paint10_linear_38_5984" x1="139.875" y1="98.8471" x2="38.3802" y2="71.8598" gradientUnits="userSpaceOnUse">
<stop stop-color="#25054D"/>
<stop offset="1" stop-color="#45108A"/>
</linearGradient>
<linearGradient id="paint11_linear_38_5984" x1="137.241" y1="28.0427" x2="34.166" y2="82.7084" gradientUnits="userSpaceOnUse">
<stop offset="0.03" stop-color="#7C1DC9"/>
<stop offset="0.21" stop-color="#6E41D1"/>
<stop offset="0.62" stop-color="#4C9BE8"/>
<stop offset="1" stop-color="#2AF6FF"/>
</linearGradient>
<linearGradient id="paint12_linear_38_5984" x1="30.554" y1="153.249" x2="53.1959" y2="122.877" gradientUnits="userSpaceOnUse">
<stop offset="0.04" stop-color="#6B24D6"/>
<stop offset="0.2" stop-color="#7733DC"/>
<stop offset="0.5" stop-color="#965BEC"/>
<stop offset="0.63" stop-color="#A56EF4"/>
<stop offset="0.87" stop-color="#6B24D6"/>
</linearGradient>
<linearGradient id="paint13_linear_38_5984" x1="52.5297" y1="143.031" x2="11.1329" y2="130.626" gradientUnits="userSpaceOnUse">
<stop offset="0.04" stop-color="#6B24D6"/>
<stop offset="0.29" stop-color="#7733DC"/>
<stop offset="0.79" stop-color="#965BEC"/>
<stop offset="1" stop-color="#A56EF4"/>
</linearGradient>
<radialGradient id="paint14_radial_38_5984" cx="0" cy="0" r="1" gradientUnits="userSpaceOnUse" gradientTransform="translate(38.0475 139.096) rotate(180) scale(14.1705 14.1529)">
<stop stop-color="white"/>
<stop offset="0.07" stop-color="#D8D8D8"/>
<stop offset="0.16" stop-color="#A5A5A5"/>
<stop offset="0.26" stop-color="#797979"/>
<stop offset="0.37" stop-color="#545454"/>
<stop offset="0.47" stop-color="#353535"/>
<stop offset="0.59" stop-color="#1D1D1D"/>
<stop offset="0.7" stop-color="#0D0D0D"/>
<stop offset="0.84" stop-color="#030303"/>
<stop offset="1"/>
</radialGradient>
<linearGradient id="paint15_linear_38_5984" x1="-608.808" y1="542.789" x2="-660.357" y2="453.393" gradientUnits="userSpaceOnUse">
<stop offset="0.04" stop-color="#14B8F4"/>
<stop offset="0.49" stop-color="#12C7F4"/>
<stop offset="1" stop-color="#11DEF4"/>
</linearGradient>
<radialGradient id="paint16_radial_38_5984" cx="0" cy="0" r="1" gradientUnits="userSpaceOnUse" gradientTransform="translate(96.4021 44.2739) scale(42.1559 42.1036)">
<stop stop-color="white"/>
<stop offset="0.07" stop-color="#D8D8D8"/>
<stop offset="0.16" stop-color="#A5A5A5"/>
<stop offset="0.26" stop-color="#797979"/>
<stop offset="0.37" stop-color="#545454"/>
<stop offset="0.47" stop-color="#353535"/>
<stop offset="0.59" stop-color="#1D1D1D"/>
<stop offset="0.7" stop-color="#0D0D0D"/>
<stop offset="0.84" stop-color="#030303"/>
<stop offset="1"/>
</radialGradient>
<linearGradient id="paint17_linear_38_5984" x1="78.8338" y1="121.47" x2="142.188" y2="41.1327" gradientUnits="userSpaceOnUse">
<stop stop-color="#25054D"/>
<stop offset="1" stop-color="#45108A"/>
</linearGradient>
<linearGradient id="paint18_linear_38_5984" x1="70.1945" y1="114.656" x2="133.549" y2="34.3185" gradientUnits="userSpaceOnUse">
<stop stop-color="#25054D"/>
<stop offset="1" stop-color="#45108A"/>
</linearGradient>
<linearGradient id="paint19_linear_38_5984" x1="75.4755" y1="118.813" x2="138.816" y2="38.4757" gradientUnits="userSpaceOnUse">
<stop stop-color="#25054D"/>
<stop offset="1" stop-color="#45108A"/>
</linearGradient>
<linearGradient id="paint20_linear_38_5984" x1="72.0251" y1="116.103" x2="135.379" y2="35.7654" gradientUnits="userSpaceOnUse">
<stop stop-color="#25054D"/>
<stop offset="1" stop-color="#45108A"/>
</linearGradient>
<linearGradient id="paint21_linear_38_5984" x1="65.9407" y1="111.303" x2="129.295" y2="30.9653" gradientUnits="userSpaceOnUse">
<stop stop-color="#25054D"/>
<stop offset="1" stop-color="#45108A"/>
</linearGradient>
<linearGradient id="paint22_linear_38_5984" x1="74.8961" y1="118.366" x2="138.237" y2="38.0282" gradientUnits="userSpaceOnUse">
<stop stop-color="#25054D"/>
<stop offset="1" stop-color="#45108A"/>
</linearGradient>
<linearGradient id="paint23_linear_38_5984" x1="73.9347" y1="117.603" x2="137.289" y2="37.2653" gradientUnits="userSpaceOnUse">
<stop stop-color="#25054D"/>
<stop offset="1" stop-color="#45108A"/>
</linearGradient>
<linearGradient id="paint24_linear_38_5984" x1="80.7565" y1="122.982" x2="144.097" y2="42.6447" gradientUnits="userSpaceOnUse">
<stop stop-color="#25054D"/>
<stop offset="1" stop-color="#45108A"/>
</linearGradient>
<linearGradient id="paint25_linear_38_5984" x1="71.8407" y1="115.946" x2="135.182" y2="35.6078" gradientUnits="userSpaceOnUse">
<stop stop-color="#25054D"/>
<stop offset="1" stop-color="#45108A"/>
</linearGradient>
<linearGradient id="paint26_linear_38_5984" x1="78.307" y1="121.049" x2="141.661" y2="40.7117" gradientUnits="userSpaceOnUse">
<stop stop-color="#25054D"/>
<stop offset="1" stop-color="#45108A"/>
</linearGradient>
<linearGradient id="paint27_linear_38_5984" x1="68.7195" y1="113.487" x2="132.06" y2="33.1488" gradientUnits="userSpaceOnUse">
<stop stop-color="#25054D"/>
<stop offset="1" stop-color="#45108A"/>
</linearGradient>
<linearGradient id="paint28_linear_38_5984" x1="74.6063" y1="118.129" x2="137.947" y2="37.791" gradientUnits="userSpaceOnUse">
<stop stop-color="#25054D"/>
<stop offset="1" stop-color="#45108A"/>
</linearGradient>
<linearGradient id="paint29_linear_38_5984" x1="76.6871" y1="119.773" x2="140.028" y2="39.4357" gradientUnits="userSpaceOnUse">
<stop stop-color="#25054D"/>
<stop offset="1" stop-color="#45108A"/>
</linearGradient>
<linearGradient id="paint30_linear_38_5984" x1="68.0479" y1="112.96" x2="131.389" y2="32.6227" gradientUnits="userSpaceOnUse">
<stop stop-color="#25054D"/>
<stop offset="1" stop-color="#45108A"/>
</linearGradient>
<linearGradient id="paint31_linear_38_5984" x1="79.7688" y1="122.207" x2="143.123" y2="41.869" gradientUnits="userSpaceOnUse">
<stop stop-color="#25054D"/>
<stop offset="1" stop-color="#45108A"/>
</linearGradient>
<linearGradient id="paint32_linear_38_5984" x1="63.8862" y1="109.685" x2="127.24" y2="29.3473" gradientUnits="userSpaceOnUse">
<stop stop-color="#25054D"/>
<stop offset="1" stop-color="#45108A"/>
</linearGradient>
<linearGradient id="paint33_linear_38_5984" x1="70.9188" y1="115.223" x2="134.273" y2="34.8848" gradientUnits="userSpaceOnUse">
<stop stop-color="#25054D"/>
<stop offset="1" stop-color="#45108A"/>
</linearGradient>
<linearGradient id="paint34_linear_38_5984" x1="86.4458" y1="127.468" x2="149.787" y2="47.1307" gradientUnits="userSpaceOnUse">
<stop stop-color="#25054D"/>
<stop offset="1" stop-color="#45108A"/>
</linearGradient>
<linearGradient id="paint35_linear_38_5984" x1="78.9128" y1="121.522" x2="142.254" y2="41.1845" gradientUnits="userSpaceOnUse">
<stop stop-color="#25054D"/>
<stop offset="1" stop-color="#45108A"/>
</linearGradient>
<linearGradient id="paint36_linear_38_5984" x1="82.2052" y1="124.127" x2="145.546" y2="43.7894" gradientUnits="userSpaceOnUse">
<stop stop-color="#25054D"/>
<stop offset="1" stop-color="#45108A"/>
</linearGradient>
<linearGradient id="paint37_linear_38_5984" x1="76.4369" y1="119.576" x2="139.778" y2="39.2378" gradientUnits="userSpaceOnUse">
<stop stop-color="#25054D"/>
<stop offset="1" stop-color="#45108A"/>
</linearGradient>
<linearGradient id="paint38_linear_38_5984" x1="82.732" y1="124.535" x2="146.073" y2="44.1969" gradientUnits="userSpaceOnUse">
<stop stop-color="#25054D"/>
<stop offset="1" stop-color="#45108A"/>
</linearGradient>
<linearGradient id="paint39_linear_38_5984" x1="66.0461" y1="111.381" x2="129.387" y2="31.0434" gradientUnits="userSpaceOnUse">
<stop stop-color="#25054D"/>
<stop offset="1" stop-color="#45108A"/>
</linearGradient>
<linearGradient id="paint40_linear_38_5984" x1="77.4773" y1="120.391" x2="140.818" y2="40.0537" gradientUnits="userSpaceOnUse">
<stop stop-color="#25054D"/>
<stop offset="1" stop-color="#45108A"/>
</linearGradient>
<linearGradient id="paint41_linear_38_5984" x1="68.6668" y1="113.446" x2="132.008" y2="33.1085" gradientUnits="userSpaceOnUse">
<stop stop-color="#25054D"/>
<stop offset="1" stop-color="#45108A"/>
</linearGradient>
<linearGradient id="paint42_linear_38_5984" x1="84.049" y1="125.574" x2="147.39" y2="45.2364" gradientUnits="userSpaceOnUse">
<stop stop-color="#25054D"/>
<stop offset="1" stop-color="#45108A"/>
</linearGradient>
<linearGradient id="paint43_linear_38_5984" x1="81.5731" y1="123.627" x2="144.914" y2="43.2895" gradientUnits="userSpaceOnUse">
<stop stop-color="#25054D"/>
<stop offset="1" stop-color="#45108A"/>
</linearGradient>
<linearGradient id="paint44_linear_38_5984" x1="59.9749" y1="106.593" x2="123.316" y2="26.2556" gradientUnits="userSpaceOnUse">
<stop stop-color="#25054D"/>
<stop offset="1" stop-color="#45108A"/>
</linearGradient>
<linearGradient id="paint45_linear_38_5984" x1="73.8293" y1="71.172" x2="83.0481" y2="71.172" gradientUnits="userSpaceOnUse">
<stop offset="0.04" stop-color="#6B24D6"/>
<stop offset="0.29" stop-color="#7733DC"/>
<stop offset="0.79" stop-color="#965BEC"/>
<stop offset="1" stop-color="#A56EF4"/>
</linearGradient>
<linearGradient id="paint46_linear_38_5984" x1="73.8293" y1="75.4732" x2="86.1429" y2="75.4732" gradientUnits="userSpaceOnUse">
<stop offset="0.04" stop-color="#6B24D6"/>
<stop offset="0.29" stop-color="#7733DC"/>
<stop offset="0.79" stop-color="#965BEC"/>
<stop offset="1" stop-color="#A56EF4"/>
</linearGradient>
<linearGradient id="paint47_linear_38_5984" x1="71.3271" y1="115.538" x2="134.668" y2="35.2007" gradientUnits="userSpaceOnUse">
<stop stop-color="#25054D"/>
<stop offset="1" stop-color="#45108A"/>
</linearGradient>
<linearGradient id="paint48_linear_38_5984" x1="88.2501" y1="128.889" x2="151.591" y2="48.5508" gradientUnits="userSpaceOnUse">
<stop stop-color="#25054D"/>
<stop offset="1" stop-color="#45108A"/>
</linearGradient>
<linearGradient id="paint49_linear_38_5984" x1="79.6108" y1="122.075" x2="142.965" y2="41.7376" gradientUnits="userSpaceOnUse">
<stop stop-color="#25054D"/>
<stop offset="1" stop-color="#45108A"/>
</linearGradient>
<linearGradient id="paint50_linear_38_5984" x1="84.8918" y1="126.245" x2="148.233" y2="45.907" gradientUnits="userSpaceOnUse">
<stop stop-color="#25054D"/>
<stop offset="1" stop-color="#45108A"/>
</linearGradient>
<linearGradient id="paint51_linear_38_5984" x1="80.5853" y1="122.851" x2="143.939" y2="42.5133" gradientUnits="userSpaceOnUse">
<stop stop-color="#25054D"/>
<stop offset="1" stop-color="#45108A"/>
</linearGradient>
<linearGradient id="paint52_linear_38_5984" x1="75.357" y1="118.721" x2="138.698" y2="38.3834" gradientUnits="userSpaceOnUse">
<stop stop-color="#25054D"/>
<stop offset="1" stop-color="#45108A"/>
</linearGradient>
<linearGradient id="paint53_linear_38_5984" x1="82.6003" y1="124.43" x2="145.941" y2="44.0922" gradientUnits="userSpaceOnUse">
<stop stop-color="#25054D"/>
<stop offset="1" stop-color="#45108A"/>
</linearGradient>
<linearGradient id="paint54_linear_38_5984" x1="83.3509" y1="125.034" x2="146.705" y2="44.6966" gradientUnits="userSpaceOnUse">
<stop stop-color="#25054D"/>
<stop offset="1" stop-color="#45108A"/>
</linearGradient>
<linearGradient id="paint55_linear_38_5984" x1="90.1728" y1="130.402" x2="153.514" y2="50.0637" gradientUnits="userSpaceOnUse">
<stop stop-color="#25054D"/>
<stop offset="1" stop-color="#45108A"/>
</linearGradient>
<linearGradient id="paint56_linear_38_5984" x1="81.257" y1="123.378" x2="144.598" y2="43.04" gradientUnits="userSpaceOnUse">
<stop stop-color="#25054D"/>
<stop offset="1" stop-color="#45108A"/>
</linearGradient>
<linearGradient id="paint57_linear_38_5984" x1="88.1315" y1="128.797" x2="151.472" y2="48.4591" gradientUnits="userSpaceOnUse">
<stop stop-color="#25054D"/>
<stop offset="1" stop-color="#45108A"/>
</linearGradient>
<linearGradient id="paint58_linear_38_5984" x1="78.1358" y1="120.918" x2="141.477" y2="40.58" gradientUnits="userSpaceOnUse">
<stop stop-color="#25054D"/>
<stop offset="1" stop-color="#45108A"/>
</linearGradient>
<linearGradient id="paint59_linear_38_5984" x1="77.4642" y1="120.392" x2="140.805" y2="40.0539" gradientUnits="userSpaceOnUse">
<stop stop-color="#25054D"/>
<stop offset="1" stop-color="#45108A"/>
</linearGradient>
<linearGradient id="paint60_linear_38_5984" x1="86.696" y1="127.665" x2="150.037" y2="47.327" gradientUnits="userSpaceOnUse">
<stop stop-color="#25054D"/>
<stop offset="1" stop-color="#45108A"/>
</linearGradient>
<linearGradient id="paint61_linear_38_5984" x1="83.1798" y1="124.89" x2="146.521" y2="44.5522" gradientUnits="userSpaceOnUse">
<stop stop-color="#25054D"/>
<stop offset="1" stop-color="#45108A"/>
</linearGradient>
<linearGradient id="paint62_linear_38_5984" x1="88.3291" y1="128.955" x2="151.67" y2="48.6167" gradientUnits="userSpaceOnUse">
<stop stop-color="#25054D"/>
<stop offset="1" stop-color="#45108A"/>
</linearGradient>
<linearGradient id="paint63_linear_38_5984" x1="92.0298" y1="131.861" x2="155.371" y2="51.5231" gradientUnits="userSpaceOnUse">
<stop stop-color="#25054D"/>
<stop offset="1" stop-color="#45108A"/>
</linearGradient>
<linearGradient id="paint64_linear_38_5984" x1="85.8532" y1="126.995" x2="149.194" y2="46.6569" gradientUnits="userSpaceOnUse">
<stop stop-color="#25054D"/>
<stop offset="1" stop-color="#45108A"/>
</linearGradient>
<linearGradient id="paint65_linear_38_5984" x1="92.1483" y1="131.966" x2="155.489" y2="51.6282" gradientUnits="userSpaceOnUse">
<stop stop-color="#25054D"/>
<stop offset="1" stop-color="#45108A"/>
</linearGradient>
<linearGradient id="paint66_linear_38_5984" x1="84.4045" y1="125.85" x2="147.745" y2="45.5253" gradientUnits="userSpaceOnUse">
<stop stop-color="#25054D"/>
<stop offset="1" stop-color="#45108A"/>
</linearGradient>
<linearGradient id="paint67_linear_38_5984" x1="86.3273" y1="127.376" x2="149.668" y2="47.0383" gradientUnits="userSpaceOnUse">
<stop stop-color="#25054D"/>
<stop offset="1" stop-color="#45108A"/>
</linearGradient>
<linearGradient id="paint68_linear_38_5984" x1="90.9893" y1="131.045" x2="154.33" y2="50.7076" gradientUnits="userSpaceOnUse">
<stop stop-color="#25054D"/>
<stop offset="1" stop-color="#45108A"/>
</linearGradient>
<linearGradient id="paint69_linear_38_5984" x1="59.672" y1="106.357" x2="123.013" y2="26.0189" gradientUnits="userSpaceOnUse">
<stop stop-color="#25054D"/>
<stop offset="1" stop-color="#45108A"/>
</linearGradient>
<linearGradient id="paint70_linear_38_5984" x1="64.0312" y1="109.79" x2="127.372" y2="29.4519" gradientUnits="userSpaceOnUse">
<stop stop-color="#25054D"/>
<stop offset="1" stop-color="#45108A"/>
</linearGradient>
<linearGradient id="paint71_linear_38_5984" x1="64.7291" y1="110.343" x2="128.07" y2="30.0051" gradientUnits="userSpaceOnUse">
<stop stop-color="#25054D"/>
<stop offset="1" stop-color="#45108A"/>
</linearGradient>
<linearGradient id="paint72_linear_38_5984" x1="67.284" y1="112.355" x2="130.625" y2="32.0169" gradientUnits="userSpaceOnUse">
<stop stop-color="#25054D"/>
<stop offset="1" stop-color="#45108A"/>
</linearGradient>
<linearGradient id="paint73_linear_38_5984" x1="69.6546" y1="114.222" x2="132.996" y2="33.8846" gradientUnits="userSpaceOnUse">
<stop stop-color="#25054D"/>
<stop offset="1" stop-color="#45108A"/>
</linearGradient>
<linearGradient id="paint74_linear_38_5984" x1="74.8697" y1="118.34" x2="138.224" y2="38.0018" gradientUnits="userSpaceOnUse">
<stop stop-color="#25054D"/>
<stop offset="1" stop-color="#45108A"/>
</linearGradient>
<linearGradient id="paint75_linear_38_5984" x1="72.5783" y1="116.538" x2="135.932" y2="36.2" gradientUnits="userSpaceOnUse">
<stop stop-color="#25054D"/>
<stop offset="1" stop-color="#45108A"/>
</linearGradient>
<linearGradient id="paint76_linear_38_5984" x1="61.3445" y1="107.673" x2="124.685" y2="27.335" gradientUnits="userSpaceOnUse">
<stop stop-color="#25054D"/>
<stop offset="1" stop-color="#45108A"/>
</linearGradient>
<linearGradient id="paint77_linear_38_5984" x1="61.6474" y1="107.922" x2="125.001" y2="27.5837" gradientUnits="userSpaceOnUse">
<stop stop-color="#25054D"/>
<stop offset="1" stop-color="#45108A"/>
</linearGradient>
<linearGradient id="paint78_linear_38_5984" x1="64.5053" y1="110.171" x2="127.859" y2="29.8335" gradientUnits="userSpaceOnUse">
<stop stop-color="#25054D"/>
<stop offset="1" stop-color="#45108A"/>
</linearGradient>
<linearGradient id="paint79_linear_38_5984" x1="67.9162" y1="45.6027" x2="145.182" y2="45.6027" gradientUnits="userSpaceOnUse">
<stop offset="0.03" stop-color="#7C1DC9"/>
<stop offset="0.21" stop-color="#6E41D1"/>
<stop offset="0.62" stop-color="#4C9BE8"/>
<stop offset="1" stop-color="#2AF6FF"/>
</linearGradient>
<linearGradient id="paint80_linear_38_5984" x1="-590.535" y1="569.008" x2="-636.067" y2="497.523" gradientUnits="userSpaceOnUse">
<stop stop-color="#14BDF5"/>
<stop offset="1" stop-color="#10DFF5"/>
</linearGradient>
<radialGradient id="paint81_radial_38_5984" cx="0" cy="0" r="1" gradientUnits="userSpaceOnUse" gradientTransform="translate(89.8041 78.4987) scale(41.3526 41.3012)">
<stop stop-color="white"/>
<stop offset="0.07" stop-color="#D8D8D8"/>
<stop offset="0.16" stop-color="#A5A5A5"/>
<stop offset="0.26" stop-color="#797979"/>
<stop offset="0.37" stop-color="#545454"/>
<stop offset="0.47" stop-color="#353535"/>
<stop offset="0.59" stop-color="#1D1D1D"/>
<stop offset="0.7" stop-color="#0D0D0D"/>
<stop offset="0.84" stop-color="#030303"/>
<stop offset="1"/>
</radialGradient>
<linearGradient id="paint82_linear_38_5984" x1="123.031" y1="163.403" x2="85.5942" y2="97.7409" gradientUnits="userSpaceOnUse">
<stop offset="0.04" stop-color="#0F95F6"/>
<stop offset="0.26" stop-color="#0FA4F6"/>
<stop offset="0.68" stop-color="#0FCCF6"/>
<stop offset="1" stop-color="#0FEFF6"/>
</linearGradient>
<radialGradient id="paint83_radial_38_5984" cx="0" cy="0" r="1" gradientUnits="userSpaceOnUse" gradientTransform="translate(97.4556 121.773) scale(29.0917 29.0555)">
<stop stop-color="white"/>
<stop offset="0.07" stop-color="#D8D8D8"/>
<stop offset="0.16" stop-color="#A5A5A5"/>
<stop offset="0.26" stop-color="#797979"/>
<stop offset="0.37" stop-color="#545454"/>
<stop offset="0.47" stop-color="#353535"/>
<stop offset="0.59" stop-color="#1D1D1D"/>
<stop offset="0.7" stop-color="#0D0D0D"/>
<stop offset="0.84" stop-color="#030303"/>
<stop offset="1"/>
</radialGradient>
<linearGradient id="paint84_linear_38_5984" x1="140.481" y1="46.168" x2="165.595" y2="12.4789" gradientUnits="userSpaceOnUse">
<stop offset="0.04" stop-color="#1BB0D4"/>
<stop offset="0.2" stop-color="#1EBFDD"/>
<stop offset="0.53" stop-color="#26E7F6"/>
<stop offset="0.63" stop-color="#2AF6FF"/>
<stop offset="0.87" stop-color="#1BB0D4"/>
</linearGradient>
<linearGradient id="paint85_linear_38_5984" x1="198.389" y1="41.8305" x2="115.97" y2="23.3328" gradientUnits="userSpaceOnUse">
<stop offset="0.04" stop-color="#138BBD"/>
<stop offset="0.23" stop-color="#169AC6"/>
<stop offset="0.59" stop-color="#1EC2DF"/>
<stop offset="1" stop-color="#2AF6FF"/>
</linearGradient>
<radialGradient id="paint86_radial_38_5984" cx="0" cy="0" r="1" gradientUnits="userSpaceOnUse" gradientTransform="translate(148.791 30.4762) rotate(-180) scale(15.7245 15.705)">
<stop stop-color="white"/>
<stop offset="0.07" stop-color="#D8D8D8"/>
<stop offset="0.16" stop-color="#A5A5A5"/>
<stop offset="0.26" stop-color="#797979"/>
<stop offset="0.37" stop-color="#545454"/>
<stop offset="0.47" stop-color="#353535"/>
<stop offset="0.59" stop-color="#1D1D1D"/>
<stop offset="0.7" stop-color="#0D0D0D"/>
<stop offset="0.84" stop-color="#030303"/>
<stop offset="1"/>
</radialGradient>
<clipPath id="clip0_38_5984">
<rect width="207" height="224" fill="white" transform="translate(29)"/>
</clipPath>
</defs>
</svg>
