<svg width="211" height="2172" viewBox="0 0 211 2172" fill="none" xmlns="http://www.w3.org/2000/svg">
<path d="M67.49 1078.31L67.49 1363.03L71.4391 1363.03L71.4391 1082.26L67.49 1078.31Z" fill="#0F95F7"/>
<path d="M62.0402 1362.64C62.0402 1366.75 65.3575 1370.07 69.4645 1370.07C73.5716 1370.07 76.8888 1366.75 76.8888 1362.64C76.8888 1358.53 73.5716 1355.21 69.4645 1355.21C65.3575 1355.21 62.0402 1358.53 62.0402 1362.64Z" fill="#0F95F7"/>
<path d="M200.89 2061.35L200.89 1758.95L139.679 1697.68L139.679 1156.14L67.4505 1083.84L70.2543 1081.03L143.392 1154.09L143.628 1696.02L204.839 1757.29L204.839 2061.35L200.89 2061.35Z" fill="#0F95F7"/>
<path d="M195.48 2060.99C195.48 2065.1 198.797 2068.42 202.904 2068.42C207.011 2068.42 210.329 2065.1 210.329 2060.99C210.329 2056.88 207.011 2053.56 202.904 2053.56C198.797 2053.56 195.48 2056.88 195.48 2060.99Z" fill="#0F95F7"/>
<path d="M63.86 718.041L61.0561 715.274L87.4361 688.869L87.4361 590.047L167.721 509.685L167.721 80.9556L171.67 80.9556L171.67 511.305L91.3852 591.707L91.3852 690.529L63.86 718.041Z" fill="#0F95F7"/>
<path d="M58.0516 711.123C55.1688 714.009 55.1688 718.713 58.0516 721.638C60.9345 724.523 65.6339 724.523 68.5562 721.638C71.4786 718.752 71.4391 714.048 68.5562 711.123C65.6734 708.238 60.974 708.238 58.0516 711.123Z" fill="#0F95F7"/>
<path d="M186.479 1214.72L186.479 1114.91L139.09 1067.48L139.09 940.311L200.301 879.042L200.301 787.809L167.721 755.198L167.721 402.404L171.67 402.404L171.67 753.538L204.25 786.149L204.25 880.702L143.039 941.972L143.039 1065.82L190.428 1113.25L190.428 1214.72L186.479 1214.72Z" fill="#0F95F7"/>
<path d="M181.619 1214.36C181.619 1218.48 184.936 1221.8 189.043 1221.8C193.15 1221.8 196.467 1218.48 196.467 1214.36C196.467 1210.25 193.15 1206.93 189.043 1206.93C184.936 1206.93 181.619 1210.25 181.619 1214.36Z" fill="#0F95F7"/>
<path d="M205.237 421.97L171.67 388.371L171.67 0.19824L167.721 0.19824L167.721 389.991L201.288 423.591L201.288 510.594L205.237 510.594L205.237 421.97Z" fill="#0F95F7"/>
<path d="M196.151 510.198C196.151 514.31 199.469 517.63 203.576 517.63C207.683 517.63 211 514.31 211 510.198C211 506.088 207.683 502.767 203.576 502.767C199.469 502.767 196.151 506.088 196.151 510.198Z" fill="#0F95F7"/>
<path d="M143.419 1216.09L143.039 1061.6L139.09 1057.6L139.679 1217.72L194.967 1273.06L194.967 1642.03L198.916 1642.03L198.916 1271.44L143.419 1216.09Z" fill="#0F95F7"/>
<path d="M189.517 1641.67C189.517 1645.78 192.834 1649.1 196.941 1649.1C201.048 1649.1 204.366 1645.78 204.366 1641.67C204.366 1637.56 201.048 1634.24 196.941 1634.24C192.834 1634.24 189.517 1637.56 189.517 1641.67Z" fill="#0F95F7"/>
<path d="M5.44975 2164.12L5.41025 1954.3L73.8875 1885.76L73.8875 1566.92L140.864 1499.88L143.628 1502.69L77.8366 1568.54L77.8366 1887.42L9.35935 1955.92L9.39884 2164.12L5.44975 2164.12Z" fill="#0F95F7"/>
<path d="M-8.86188e-08 2163.77C-3.95956e-08 2167.88 3.31724 2171.2 7.42429 2171.2C11.5314 2171.2 14.8486 2167.88 14.8486 2163.77C14.8486 2159.66 11.5314 2156.34 7.42429 2156.34C3.31724 2156.34 -1.37642e-07 2159.66 -8.86188e-08 2163.77Z" fill="#0F95F7"/>
<path d="M106.112 892.442L106.112 736.619L168.31 674.362L168.31 487.43L171.67 487.43L171.67 676.136L110.061 738.28L110.061 892.442L106.112 892.442Z" fill="#0F95F7"/>
<path d="M100.662 892.086C100.662 896.197 103.98 899.518 108.087 899.518C112.194 899.518 115.511 896.197 115.511 892.086C115.511 887.975 112.194 884.655 108.087 884.655C103.98 884.655 100.662 887.975 100.662 892.086Z" fill="#0F95F7"/>
</svg>
