<svg width="50" height="50" viewBox="0 0 50 50" fill="none" xmlns="http://www.w3.org/2000/svg">
<path d="M3 0C17.6667 0 32.3333 0 47 0C46.7588 2.72709 46.5188 5.45418 46.2764 8.18005C45.9933 11.3606 45.7091 14.5424 45.4248 17.723C45.1516 20.7909 44.8809 23.8587 44.6064 26.9253C44.3258 30.0581 44.0416 33.1896 43.7622 36.3212C43.5185 39.0642 43.2737 41.8072 43.0435 44.5515C43.0103 44.94 42.8774 45.1202 42.4713 45.2317C36.8793 46.7687 31.2934 48.3265 25.7113 49.8966C25.2191 50.0351 24.7773 50.0339 24.2862 49.8966C18.6721 48.3192 13.053 46.7564 7.43273 45.2035C7.114 45.1153 6.98109 44.978 6.95894 44.6508C6.9011 43.7891 6.8125 42.9299 6.7362 42.0695C6.42854 38.5801 6.12457 35.0894 5.81445 31.5999C5.5031 28.0946 5.18314 24.5892 4.87056 21.0838C4.56044 17.5943 4.25771 14.1037 3.94759 10.6142C3.63501 7.07573 3.31627 3.53848 3 0ZM25.0234 9.20838C24.2875 9.20838 23.5503 9.20838 22.8144 9.20838C19.0671 9.20838 15.3186 9.20838 11.5713 9.2096C11.3252 9.2096 11.0459 9.11645 11.0852 9.57607C11.2059 10.9721 11.2686 12.373 11.3855 13.7691C11.452 14.5621 11.3425 14.4468 12.1067 14.4444C18.8825 14.426 25.6572 14.4064 32.433 14.3709C32.849 14.3684 32.94 14.4591 32.9007 14.882C32.7591 16.3907 32.6471 17.902 32.5733 19.4157C32.5499 19.8912 32.3936 20.0028 31.9383 20.0077C25.491 20.0726 19.0437 20.1621 12.5952 20.2258C12.1362 20.2307 11.9664 20.3067 12.0304 20.808C12.2088 22.1967 12.3614 23.5915 12.4734 24.9863C12.5103 25.4386 12.6961 25.4974 13.0813 25.4876C14.2098 25.4606 15.3395 25.4667 16.4693 25.4643C21.4939 25.4533 26.5174 25.4484 31.542 25.4226C31.9678 25.4202 32.0441 25.5194 31.9949 25.9325C31.7328 28.1485 31.4977 30.3682 31.2701 32.5878C31.2319 32.9567 31.1052 33.148 30.7187 33.2472C28.9146 33.7069 27.1179 34.1996 25.32 34.6849C25.0911 34.7474 24.8757 34.7425 24.6456 34.68C22.8329 34.1873 21.0201 33.6946 19.2013 33.2227C18.8961 33.1431 18.7816 33.0021 18.757 32.6981C18.6549 31.432 18.522 30.1671 18.426 28.8998C18.4026 28.5836 18.2968 28.4843 17.9842 28.4868C16.3967 28.499 14.8091 28.499 13.2216 28.4868C12.9004 28.4843 12.7946 28.5713 12.8254 28.9035C13.0776 31.5803 13.3213 34.2572 13.549 36.9352C13.5785 37.2882 13.7213 37.4218 14.0572 37.5125C17.5731 38.4673 21.0829 39.438 24.5927 40.4137C24.8745 40.4921 25.1268 40.4847 25.4049 40.4075C28.8359 39.4552 32.2656 38.498 35.7065 37.5824C36.2357 37.4414 36.4338 37.2306 36.4793 36.6877C36.8202 32.6454 37.1968 28.6057 37.5561 24.5647C37.9955 19.6314 38.4237 14.6969 38.8815 9.76483C38.9246 9.30398 38.8397 9.19244 38.3745 9.19489C33.9233 9.21205 29.4721 9.2047 25.0197 9.2047L25.0234 9.20838Z" fill="#0F95F7"/>
</svg>
