<svg width="50" height="51" viewBox="0 0 50 51" fill="none" xmlns="http://www.w3.org/2000/svg">
<path d="M3.00478 1.66607L6.27119 43.4538C6.32022 44.0813 6.74497 44.6164 7.34499 44.8066L24.5329 50.256C24.8368 50.3523 25.1632 50.3523 25.4671 50.256L42.655 44.8066C43.255 44.6164 43.6798 44.0813 43.7288 43.4538L46.9952 1.66607C47.0654 0.767651 46.3554 0 45.4543 0H4.54577C3.64469 0 2.93465 0.767651 3.00478 1.66607ZM38.6187 14.6314H17.331L17.9734 20.5557H38.1557L36.8355 37.4451L25 41.1974L13.1646 37.4451L12.4749 28.6214H18.687V32.9495L25.1661 34.6884L31.6063 32.9495L32.106 26.0517H12.274L10.9573 9.2066H39.0427L38.6187 14.6314Z" fill="#FC490B"/>
</svg>
