<svg width="50" height="69" viewBox="0 0 50 69" fill="none" xmlns="http://www.w3.org/2000/svg">
<path d="M16.06 51.6856C6.87933 54.479 21.6442 60.2501 33.3327 54.795C31.4182 53.9843 30.0474 53.0483 30.0474 53.0483C24.8334 54.1229 22.4152 54.2072 17.6838 53.6194C13.7783 53.1305 16.06 51.6856 16.06 51.6856ZM14.0732 46.3141C2.84064 50.0432 20.3228 54.2719 36.0184 49.6812C34.3501 49.0928 33.2891 48.0169 33.2891 48.0169C25.6182 49.4943 21.1852 49.4469 15.5717 48.8677C11.2309 48.4186 14.0732 46.3141 14.0732 46.3141ZM45.4917 57.4842C45.4917 57.4842 47.3536 58.6611 43.4411 59.5716C36.0015 61.3005 12.4767 61.8226 5.94161 59.6404C3.59241 58.8564 7.99783 57.7684 9.3836 57.5401C10.8288 57.2997 11.6547 57.3445 11.6547 57.3445C9.04217 55.9327 -5.23173 60.1168 4.40428 61.315C30.6831 64.5843 52.308 59.8429 45.4917 57.4842ZM17.7403 38.2669C17.7403 38.2669 6.08083 40.9016 13.6114 41.8584C16.7911 42.2634 23.1296 42.1718 29.0338 41.7011C33.859 41.3139 38.7041 40.4905 38.7041 40.4905C38.7041 40.4905 37.0027 41.1838 35.7717 41.9834C23.9317 44.946 1.059 43.5677 7.64377 40.5374C13.2125 37.9764 17.7403 38.2669 17.7403 38.2669ZM38.9272 48.6646C38.8758 48.823 38.7041 49 38.7041 48.9999C53.5247 44.5056 48.076 33.1581 40.9912 36.0313C40.3688 36.2862 40.0429 36.875 40.0429 36.875C40.0429 36.875 40.4343 36.6924 41.3121 36.4817C44.8933 35.6205 50.0241 42.0128 38.9272 48.6646ZM17.2393 66.2788C29.2397 66.9323 47.6677 65.9162 48.1041 61.0856C48.1041 61.0856 47.2652 62.9168 38.1864 64.3711C27.9438 66.011 15.3111 65.8195 7.81841 64.7686C7.81859 64.7684 9.35225 65.8485 17.2393 66.2788Z" fill="#5382A1"/>
<path d="M29.2819 33.8478C19.439 21.1782 40.0472 15.4286 40.0472 15.4286C26.9182 23.9345 29.3434 26.4016 32.5058 31.3668C35.8919 36.6911 28.519 40.9429 28.519 40.9429C28.519 40.9429 32.1855 37.5823 29.2819 33.8478ZM31.5278 2C31.5278 2 38.5633 8.86933 24.8549 19.4324C13.8622 27.9058 22.3482 32.7372 24.8504 38.2571C18.4337 32.6064 13.7248 27.6321 16.8839 23.0024C21.5208 16.2064 34.3664 12.9115 31.5278 2Z" fill="#E76F00"/>
</svg>
