<svg width="50" height="50" viewBox="0 0 50 50" fill="none" xmlns="http://www.w3.org/2000/svg">
<path d="M48.9729 11.1787C48.9907 11.2446 48.9998 11.3125 49 11.3807V21.9872C49 22.1234 48.9641 22.2571 48.8958 22.3749C48.8276 22.4927 48.7295 22.5904 48.6114 22.6581L39.7091 27.7835V37.9424C39.7091 38.2189 39.5622 38.4741 39.3225 38.6133L20.7398 49.3107C20.6973 49.3349 20.6509 49.3503 20.6045 49.3668C20.5871 49.3726 20.5706 49.3832 20.5523 49.388C20.4224 49.4223 20.2858 49.4223 20.1559 49.388C20.1347 49.3822 20.1153 49.3706 20.095 49.3629C20.0525 49.3474 20.008 49.3339 19.9674 49.3107L1.38861 38.6133C1.27058 38.5455 1.17252 38.4478 1.10429 38.33C1.03607 38.2122 1.00009 38.0786 1 37.9424V6.12289C1 6.05329 1.00967 5.98562 1.02707 5.91988C1.03287 5.89765 1.0464 5.87735 1.05413 5.85511C1.06863 5.81451 1.08217 5.77295 1.10344 5.73524C1.11794 5.71011 1.1392 5.68981 1.1566 5.66661C1.17884 5.63568 1.19914 5.60378 1.22524 5.57671C1.24747 5.55447 1.27647 5.53804 1.30161 5.51871C1.32964 5.49551 1.35478 5.47037 1.38668 5.452H1.38764L10.6775 0.103311C10.7952 0.0356242 10.9285 0 11.0642 0C11.1999 0 11.3333 0.0356242 11.4509 0.103311L20.7408 5.452H20.7427C20.7736 5.47134 20.7997 5.49551 20.8278 5.51774C20.8529 5.53707 20.8809 5.55447 20.9032 5.57574C20.9302 5.60378 20.9496 5.63568 20.9728 5.66661C20.9892 5.68981 21.0114 5.71011 21.025 5.73524C21.0472 5.77391 21.0598 5.81451 21.0752 5.85511C21.083 5.87735 21.0965 5.89765 21.1023 5.92085C21.1201 5.98673 21.1292 6.05465 21.1294 6.12289V25.9971L28.8706 21.5397V11.3797C28.8706 11.3121 28.8803 11.2434 28.8977 11.1787C28.9045 11.1555 28.917 11.1352 28.9248 11.1129C28.9402 11.0723 28.9538 11.0308 28.975 10.9931C28.9895 10.9679 29.0108 10.9476 29.0272 10.9244C29.0504 10.8935 29.0698 10.8616 29.0968 10.8345C29.1191 10.8123 29.1471 10.7959 29.1722 10.7765C29.2012 10.7533 29.2264 10.7282 29.2573 10.7098H29.2583L38.5491 5.36114C38.6667 5.29335 38.8001 5.25768 38.9358 5.25768C39.0715 5.25768 39.2049 5.29335 39.3225 5.36114L48.6124 10.7098C48.6452 10.7292 48.6704 10.7533 48.6994 10.7756C48.7235 10.7949 48.7516 10.8123 48.7738 10.8336C48.8009 10.8616 48.8202 10.8935 48.8434 10.9244C48.8608 10.9476 48.8821 10.9679 48.8956 10.9931C48.9178 11.0308 48.9304 11.0723 48.9459 11.1129C48.9546 11.1352 48.9671 11.1555 48.9729 11.1787V11.1787ZM47.4514 21.5397V12.7196L44.2004 14.5911L39.7091 17.177V25.9971L47.4523 21.5397H47.4514ZM38.1615 37.4949V28.669L33.7437 31.192L21.1284 38.392V47.301L38.1615 37.4949ZM2.54864 7.46175V37.4949L19.5798 47.3V38.3929L10.6824 33.3574L10.6795 33.3555L10.6756 33.3536C10.6456 33.3362 10.6205 33.311 10.5925 33.2898C10.5683 33.2704 10.5403 33.255 10.519 33.2337L10.5171 33.2308C10.4919 33.2066 10.4745 33.1767 10.4533 33.1496C10.4339 33.1235 10.4107 33.1013 10.3953 33.0742L10.3943 33.0713C10.3769 33.0423 10.3663 33.0075 10.3537 32.9746C10.3411 32.9456 10.3247 32.9186 10.317 32.8876V32.8867C10.3073 32.8499 10.3054 32.8113 10.3015 32.7736C10.2976 32.7446 10.2899 32.7156 10.2899 32.6865V11.9192L5.79961 9.3323L2.54864 7.46272V7.46175ZM11.0652 1.66742L3.32489 6.12289L11.0632 10.5784L18.8026 6.12192L11.0632 1.66742H11.0652ZM15.0905 29.4733L19.5807 26.8883V7.46175L16.3298 9.33326L11.8385 11.9192V31.3457L15.0905 29.4733ZM38.9358 6.92524L31.1965 11.3807L38.9358 15.8362L46.6741 11.3797L38.9358 6.92524ZM38.1615 17.177L33.6702 14.5911L30.4193 12.7196V21.5397L34.9095 24.1246L38.1615 25.9971V17.177ZM20.3531 37.0531L31.705 30.5724L37.3794 27.334L29.6459 22.8814L20.7417 28.0078L12.6264 32.6798L20.3531 37.0531Z" fill="#FF2D20"/>
</svg>
