<svg width="84" height="120" viewBox="0 0 84 120" fill="none" xmlns="http://www.w3.org/2000/svg">
<g clip-path="url(#clip0_38_6442)">
<path d="M76.0923 0.563615C74.592 -0.313669 72.5135 -0.188343 70.2162 1.14325L23.3637 28.2451C18.8004 30.8769 15.1122 37.2842 15.1278 42.5323L15.2059 67.4566C15.2059 70.0571 16.128 71.89 17.6126 72.7516L23.0511 75.9161L81.5151 3.72811L76.0766 0.563615H76.0923Z" fill="url(#paint0_linear_38_6442)"/>
<path d="M84 33.947L83.9219 9.02273C83.9219 3.77469 80.2024 1.6598 75.6391 4.29166L48.3215 20.1141L28.7866 31.4248C24.2233 34.0567 20.5351 40.464 20.5507 45.712L20.6288 70.6363C20.6288 75.8843 24.3483 77.9992 28.9116 75.3674L63.8244 55.1585C67.0906 57.1167 74.1857 60.4692 82.3591 58.8086C82.1559 58.5893 78.4208 54.4535 77.2175 47.2473C81.062 44.2238 84 38.6467 83.9844 33.9783L84 33.947Z" fill="url(#paint1_linear_38_6442)"/>
<g style="mix-blend-mode:multiply" opacity="0.6">
<path d="M26.6612 51.885L20.582 55.3941L20.6289 70.6212C20.6289 75.8693 24.3483 77.9842 28.9116 75.3523L39.9918 68.9293C40.992 66.0468 41.5546 63.133 41.539 60.3758C41.5077 50.945 34.8502 47.1382 26.6456 51.885H26.6612Z" fill="#0F95F6"/>
</g>
<path d="M5.57915 99.4316C5.7198 106.967 1.60966 116.335 1.39087 116.836L6.82938 120.001C7.04817 119.515 11.1583 110.131 11.0177 102.596L5.57915 99.4316Z" fill="url(#paint2_linear_38_6442)"/>
<path d="M44.9927 51.2431C42.2891 49.6765 38.554 49.8959 34.4283 52.2771L14.7996 63.6348C6.59496 68.3815 -0.0312678 79.8802 -1.19489e-05 89.3267C-1.19489e-05 94.0108 1.67217 97.3162 4.32892 98.8671L9.76743 102.032L50.4312 54.4076L44.9927 51.2431Z" fill="url(#paint3_linear_38_6442)"/>
<path d="M39.8668 55.4416L30.0993 61.0969L20.2381 66.7993C12.0335 71.546 5.42288 83.0447 5.4385 92.4755C5.4385 97.8646 7.62641 101.405 11.0177 102.58C11.1583 110.115 7.04818 119.483 6.82939 119.985C13.1899 113.906 18.6753 104.93 21.1914 100.481L39.9606 89.6244C48.1652 84.8776 54.7758 73.3789 54.7602 63.9325C54.7289 54.5016 48.0714 50.6949 39.8668 55.4416Z" fill="url(#paint4_linear_38_6442)"/>
<path d="M25.4109 81.4459C25.4109 82.7149 24.3951 84.3284 23.1293 85.0647C21.8634 85.801 20.8476 85.3624 20.8476 84.0935C20.8476 82.8245 21.8634 81.2109 23.1293 80.4747C24.3951 79.7384 25.4109 80.177 25.4109 81.4459Z" fill="white"/>
<path d="M32.9905 77.0592C32.9905 78.3281 31.9747 79.9417 30.7088 80.678C29.4429 81.4143 28.4271 80.9757 28.4271 79.7067C28.4271 78.4378 29.4429 76.8242 30.7088 76.0879C31.9747 75.3516 32.9905 75.7903 32.9905 77.0592Z" fill="white"/>
<path d="M40.5544 72.6725C40.5544 73.9414 39.5386 75.555 38.2727 76.2913C37.0068 77.0276 35.991 76.5889 35.991 75.32C35.991 74.0511 37.0068 72.4375 38.2727 71.7012C39.5386 70.9649 40.5544 71.4036 40.5544 72.6725Z" fill="white"/>
<path d="M47.04 43.2536C47.04 44.7262 45.8523 46.6218 44.3676 47.4677C42.8986 48.3137 41.6953 47.8124 41.6953 46.3398C41.6953 44.8672 42.883 42.9717 44.3676 42.1257C45.8366 41.2797 47.04 41.7811 47.04 43.2536Z" fill="white"/>
<path d="M55.8854 38.1462C55.8854 39.6188 54.6977 41.5144 53.213 42.3603C51.744 43.2063 50.5406 42.705 50.5406 41.2324C50.5406 39.7598 51.7284 37.8642 53.213 37.0183C54.682 36.1723 55.8854 36.6736 55.8854 38.1462Z" fill="white"/>
<path d="M64.7464 33.0232C64.7464 34.4958 63.5587 36.3913 62.074 37.2373C60.605 38.0832 59.4017 37.5819 59.4017 36.1093C59.4017 34.6367 60.5894 32.7412 62.074 31.8952C63.5431 31.0493 64.7464 31.5506 64.7464 33.0232Z" fill="white"/>
<path style="mix-blend-mode:screen" d="M75.6391 4.29297C56.4168 15.9953 44.352 22.8569 28.7866 31.4105C43.9769 22.152 55.9636 15.1024 75.6391 4.29297Z" fill="url(#paint5_radial_38_6442)"/>
<path style="mix-blend-mode:screen" d="M39.8667 55.4414C31.6465 60.4388 24.0357 64.9819 20.2381 66.7991C23.6762 64.4336 33.8031 58.3552 39.8667 55.4414Z" fill="url(#paint6_radial_38_6442)"/>
</g>
<defs>
<linearGradient id="paint0_linear_38_6442" x1="64.1682" y1="-6.345" x2="18.1805" y2="73.1095" gradientUnits="userSpaceOnUse">
<stop offset="0.09375" stop-color="#A31FA9"/>
<stop offset="0.83" stop-color="#0F95F6"/>
<stop offset="1" stop-color="#00255B"/>
</linearGradient>
<linearGradient id="paint1_linear_38_6442" x1="20.5507" y1="39.8217" x2="84" y2="39.8217" gradientUnits="userSpaceOnUse">
<stop stop-color="#6EE8FC"/>
<stop offset="0.57" stop-color="#8CB9FF"/>
<stop offset="1" stop-color="#A6BAFF"/>
</linearGradient>
<linearGradient id="paint2_linear_38_6442" x1="10.4863" y1="102.267" x2="1.89104" y2="117.147" gradientUnits="userSpaceOnUse">
<stop stop-color="#0F95F6"/>
<stop offset="0.154167" stop-color="#00255B"/>
<stop offset="0.888542" stop-color="#0F95F6"/>
</linearGradient>
<linearGradient id="paint3_linear_38_6442" x1="37.5382" y1="46.9194" x2="6.67068" y2="100.228" gradientUnits="userSpaceOnUse">
<stop offset="0.54" stop-color="#0F95F6"/>
<stop offset="0.83" stop-color="#04439F"/>
<stop offset="1" stop-color="#A31FA9"/>
</linearGradient>
<linearGradient id="paint4_linear_38_6442" x1="5.4385" y1="86.6949" x2="54.7602" y2="86.6949" gradientUnits="userSpaceOnUse">
<stop stop-color="#6EE8FC"/>
<stop offset="0.57" stop-color="#42BBFF"/>
<stop offset="1" stop-color="#657EFF"/>
</linearGradient>
<radialGradient id="paint5_radial_38_6442" cx="0" cy="0" r="1" gradientUnits="userSpaceOnUse" gradientTransform="translate(51.6502 18.0475) scale(62.3866 62.5379)">
<stop stop-color="#FFEC3D"/>
<stop offset="0.22" stop-color="#E53DFF"/>
<stop offset="0.26" stop-color="#C735DD"/>
<stop offset="0.34" stop-color="#9928AA"/>
<stop offset="0.42" stop-color="#701D7C"/>
<stop offset="0.51" stop-color="#4D1456"/>
<stop offset="0.59" stop-color="#310D37"/>
<stop offset="0.68" stop-color="#1B071E"/>
<stop offset="0.78" stop-color="#0C030D"/>
<stop offset="0.88" stop-color="#020003"/>
<stop offset="1"/>
</radialGradient>
<radialGradient id="paint6_radial_38_6442" cx="0" cy="0" r="1" gradientUnits="userSpaceOnUse" gradientTransform="translate(30.0368 61.1281) scale(25.786 25.8486)">
<stop stop-color="#FFEC3D"/>
<stop offset="0.22" stop-color="#E53DFF"/>
<stop offset="0.26" stop-color="#C735DD"/>
<stop offset="0.34" stop-color="#9928AA"/>
<stop offset="0.42" stop-color="#701D7C"/>
<stop offset="0.51" stop-color="#4D1456"/>
<stop offset="0.59" stop-color="#310D37"/>
<stop offset="0.68" stop-color="#1B071E"/>
<stop offset="0.78" stop-color="#0C030D"/>
<stop offset="0.88" stop-color="#020003"/>
<stop offset="1"/>
</radialGradient>
<clipPath id="clip0_38_6442">
<rect width="84" height="120" fill="white"/>
</clipPath>
</defs>
</svg>
