<svg width="50" height="50" viewBox="0 0 50 50" fill="none" xmlns="http://www.w3.org/2000/svg">
<path d="M25.3794 50C24.7001 50 24.0254 49.8244 23.4298 49.4864L17.224 45.8651C16.2971 45.3542 16.7494 45.1735 17.0551 45.0694C18.2909 44.6429 18.5417 44.5466 19.8609 43.8082C19.9995 43.7302 20.181 43.7578 20.3229 43.8403L25.0905 46.6287C25.2627 46.7204 25.5069 46.7204 25.6665 46.6287L44.2556 36.053C44.4278 35.9567 44.5395 35.7595 44.5395 35.5577V14.4155C44.5395 14.2045 44.4278 14.0165 44.2519 13.911L25.6703 3.34446C25.4981 3.24357 25.2701 3.24357 25.0979 3.34446L6.52002 13.911C6.33995 14.0119 6.22548 14.2091 6.22548 14.4109V35.5531C6.22548 35.7549 6.33716 35.9475 6.51397 36.0438L11.6045 38.9423C14.3684 40.3044 16.0575 38.6992 16.0575 37.0849V16.2178C16.0575 15.9197 16.2948 15.6904 16.5972 15.6904H18.9517C19.2448 15.6904 19.4868 15.9197 19.4868 16.2178V37.0941C19.4868 40.7263 17.4766 42.813 13.9822 42.813C12.9073 42.813 12.0605 42.813 9.69668 41.6665L4.82025 38.8964C3.6151 38.2085 2.87061 36.9244 2.87061 35.5531V14.4109C2.87061 13.035 3.6151 11.7509 4.82025 11.0722L23.4279 0.491866C24.6052 -0.163955 26.1686 -0.163955 27.3365 0.491866L45.921 11.0767C47.1215 11.7601 47.8706 13.0396 47.8706 14.4155V35.5577C47.8706 36.929 47.1215 38.2085 45.921 38.8964L27.3365 49.4767C26.7409 49.8161 26.0662 49.9904 25.3776 49.9904" fill="#689F63"/>
<path d="M31.1213 35.4312C22.9877 35.4312 21.2824 31.7513 21.2824 28.6648C21.2824 28.3713 21.5225 28.1374 21.8207 28.1374H24.2217C24.4869 28.1374 24.7103 28.3277 24.7522 28.5859C25.1151 30.9973 26.1946 32.2135 31.1129 32.2135C35.0308 32.2135 36.6966 31.3413 36.6966 29.2935C36.6966 28.1149 36.222 27.2389 30.1358 26.6519C25.0453 26.1566 21.8998 25.0513 21.8998 21.0384C21.8998 17.342 25.0639 15.1406 30.3638 15.1406C36.3151 15.1406 39.2651 17.1769 39.6374 21.5521C39.6514 21.7034 39.5955 21.8502 39.4932 21.9603C39.3908 22.0657 39.2465 22.1299 39.0976 22.1299H36.6827C36.4314 22.1299 36.2127 21.9557 36.1615 21.7172C35.5799 19.181 34.1747 18.3693 30.3545 18.3693C26.0783 18.3693 25.5804 19.8369 25.5804 20.9375C25.5804 22.2721 26.1667 22.6619 31.9365 23.4141C37.6505 24.1616 40.3633 25.2164 40.3633 29.1743C40.3633 33.1643 36.9851 35.4528 31.0943 35.4528" fill="#689F63"/>
</svg>
