<svg width="50" height="50" viewBox="0 0 50 50" fill="none" xmlns="http://www.w3.org/2000/svg">
<path d="M19.6483 0.000149999C15.6983 0.000149999 12.4998 3.19863 12.4998 7.1486V11.3478H23.2225C24.1975 11.3478 24.9998 12.7752 24.9998 13.7502H7.14845C3.19848 13.7502 0 16.9486 0 20.8986V30.3515C0 34.3015 3.19848 37.5 7.14845 37.5H10.0977V30.8008C10.0977 26.8508 13.2767 23.6523 17.2266 23.6523H30.3515C34.3015 23.6523 37.5 20.4734 37.5 16.5234V7.14845C37.5 3.19848 34.3015 0 30.3515 0L19.6483 0.000149999ZM17.8514 4.02362C18.8514 4.02362 19.6483 4.32597 19.6483 5.80096C19.6483 7.27595 18.8514 8.0275 17.8514 8.0275C16.8764 8.0275 16.0741 7.27595 16.0741 5.80096C16.0741 4.32597 16.8764 4.02362 17.8514 4.02362Z" fill="#3C78AA"/>
<path d="M39.8975 12.5V19.1992C39.8975 23.1493 36.7235 26.3477 32.7735 26.3477H19.6485C15.6985 26.3477 12.5 29.5217 12.5 33.4717V42.8467C12.4991 44.7434 13.2519 46.5626 14.5925 47.9041C15.9332 49.2457 17.7519 49.9996 19.6485 50H30.3515C32.2481 49.9996 34.0668 49.2457 35.4075 47.9041C36.7481 46.5626 37.5008 44.7434 37.5 42.8467V38.6475H26.7725C25.7975 38.6475 25 37.225 25 36.25H42.8515C44.7481 36.2497 46.5668 35.4957 47.9075 34.1542C49.2481 32.8126 50.0009 30.9934 50 29.0968V19.6485C49.9992 15.7009 46.7992 12.5009 42.8515 12.5L39.8975 12.5ZM15.8007 23.7842L15.791 23.794C15.8209 23.788 15.8537 23.79 15.8838 23.7842H15.8007ZM32.1485 41.9727C33.1235 41.9727 33.9258 42.7243 33.9258 44.1993C33.9244 45.1795 33.1287 45.973 32.1485 45.9717C31.1485 45.9717 30.3516 45.6743 30.3516 44.1993C30.3516 42.7243 31.1485 41.9727 32.1485 41.9727Z" fill="#FDD835"/>
</svg>
