<svg width="79" height="129" viewBox="0 0 79 129" fill="none" xmlns="http://www.w3.org/2000/svg">
<g clip-path="url(#clip0_38_6406)">
<path d="M50.1379 92.3757L62.5728 101.938L64.1162 92.7281C64.3324 91.4377 64.2815 90.2628 63.9574 89.2828L59.9399 77.0706C59.0761 74.4402 56.3968 73.5538 53.0845 74.792L50.1391 92.3686L50.1379 92.3757Z" fill="url(#paint0_linear_38_6406)"/>
<path d="M19.2571 87.2008L4.38416 92.1874L5.92753 82.9772C6.14377 81.6868 6.58199 80.5939 7.20077 79.7718L14.9798 69.5364C16.654 67.3313 19.4759 67.3668 22.2036 69.6171L19.2583 87.1937L19.2571 87.2008Z" fill="url(#paint1_linear_38_6406)"/>
<path d="M37.7908 111.212L24.7891 109.033L24.4814 110.87C24.4814 110.87 24.4755 110.905 24.4731 110.919C24.1226 113.011 26.7523 115.194 30.3395 115.795C33.9267 116.396 37.1243 115.19 37.4748 113.098C37.4772 113.084 37.4807 113.062 37.4831 113.048L37.7908 111.212Z" fill="url(#paint2_linear_38_6406)"/>
<path d="M49.541 96.4584L18.4829 91.2539L16.936 100.485C16.9289 100.528 16.9218 100.57 16.9146 100.613C16.0782 105.604 22.3543 110.818 30.9253 112.255C39.4962 113.691 47.1292 110.808 47.9656 105.816C47.9727 105.774 47.9799 105.731 47.987 105.689L49.5339 96.4572L49.541 96.4584Z" fill="url(#paint3_linear_38_6406)"/>
<g style="mix-blend-mode:multiply" opacity="0.5">
<path d="M49.4876 96.7767L18.4295 91.5723L17.1962 98.9319C17.1962 98.9319 17.1855 98.9957 17.1796 99.0312C16.5119 103.016 22.9258 107.407 31.4968 108.844C40.0677 110.28 47.5628 108.219 48.2306 104.234C48.2365 104.199 48.2413 104.171 48.2472 104.135L49.4805 96.7755L49.4876 96.7767Z" fill="#C7BCD6"/>
</g>
<path d="M63.4159 67.3737C67.196 54.4709 66.3908 40.5738 60.6905 28.4003C60.4487 27.886 60.2058 27.3788 59.9545 26.8774L48.9264 4.87451L31.3281 22.0805C30.9271 22.4725 30.525 22.8716 30.1358 23.2802C20.7785 32.9304 15.4857 45.813 14.8544 59.2362L13.3834 90.4139C13.3739 90.4706 13.3644 90.5274 13.3561 90.577C12.244 97.2134 20.5807 104.136 31.9661 106.044C43.3514 107.951 53.4893 104.125 54.6014 97.4885C54.6109 97.4318 54.6204 97.3751 54.6216 97.3243L54.6287 97.3255L63.4017 67.3714L63.4159 67.3737Z" fill="url(#paint4_linear_38_6406)"/>
<path d="M59.9474 26.8769L48.9264 4.87519L31.3281 22.0811C31.2311 22.1815 31.1353 22.2748 31.0383 22.3752C32.9683 26.0371 38.1685 29.2338 44.6623 30.322C51.156 31.4101 57.1072 30.0821 60.1326 27.2506C60.0736 27.1241 60.0135 27.0046 59.9545 26.8781L59.9474 26.8769Z" fill="url(#paint5_linear_38_6406)"/>
<path opacity="0.3" d="M59.9474 26.8769L48.9264 4.87519L31.3281 22.0811C31.2311 22.1815 31.1353 22.2748 31.0383 22.3752C32.9683 26.0371 38.1685 29.2338 44.6623 30.322C51.156 31.4101 57.1072 30.0821 60.1326 27.2506C60.0736 27.1241 60.0135 27.0046 59.9545 26.8781L59.9474 26.8769Z" fill="url(#paint6_linear_38_6406)"/>
<path style="mix-blend-mode:multiply" opacity="0.5" d="M63.4159 67.3737C67.196 54.4709 66.3908 40.5738 60.6905 28.4003C60.4487 27.886 60.2058 27.3788 59.9545 26.8774L48.9264 4.87451L31.3281 22.0805C30.9271 22.4725 30.525 22.8716 30.1358 23.2802C20.7785 32.9304 15.4857 45.813 14.8544 59.2362L13.3834 90.4139C13.3739 90.4706 13.3644 90.5274 13.3561 90.577C12.244 97.2134 20.5807 104.136 31.9661 106.044C43.3514 107.951 53.4893 104.125 54.6014 97.4885C54.6109 97.4318 54.6204 97.3751 54.6216 97.3243L54.6287 97.3255L63.4017 67.3714L63.4159 67.3737Z" fill="url(#paint7_radial_38_6406)"/>
<path style="mix-blend-mode:color-dodge" opacity="0.7" d="M51.6729 47.9407C50.3365 30.7764 45.0159 10.3787 47.1896 9.80258C51.0122 8.78118 62.7597 29.753 64.1032 46.9184C65.2807 62.0297 55.1604 97.4583 51.2462 97.7646C47.3392 98.072 52.8504 63.052 51.6729 47.9407Z" fill="url(#paint8_radial_38_6406)"/>
<path d="M34.6472 70.9063C34.1696 73.7566 32.8455 75.6122 31.0865 76.3233C31.0321 76.3434 29.3853 77.0369 29.331 77.0569C27.5094 77.7066 28.9256 75.779 26.6466 73.8955C22.0555 70.1084 19.1212 62.3055 20.1002 56.4632C20.5838 53.5774 17.9218 53.1095 19.7139 52.4185C19.7612 52.3972 21.7424 51.7087 21.7897 51.6875C23.5994 51.065 25.8395 51.6153 28.1008 53.474C32.6919 57.2611 35.6262 65.064 34.6472 70.9063Z" fill="url(#paint9_linear_38_6406)"/>
<path d="M32.6531 71.6718C31.6753 77.5071 27.1549 79.1696 22.5638 75.3825C17.9726 71.5954 15.0384 63.7925 16.0174 57.9502C16.9964 52.1079 21.5156 50.4524 26.1067 54.2395C30.6978 58.0266 33.6321 65.8295 32.6531 71.6718Z" fill="url(#paint10_linear_38_6406)"/>
<path d="M31.0907 70.3833C30.297 75.1196 26.6301 76.4732 22.8963 73.3984C19.1624 70.3235 16.7846 63.9842 17.5795 59.2409C18.3743 54.4975 22.04 53.151 25.7727 56.2329C29.5065 59.3078 31.8843 65.6471 31.0907 70.3833Z" fill="url(#paint11_linear_38_6406)"/>
<path style="mix-blend-mode:screen" d="M29.9267 67.7614C29.3291 71.3278 26.5712 72.3454 23.7596 70.03C20.9551 67.7159 19.1596 62.9466 19.7572 59.3803C20.3549 55.8139 23.1127 54.7963 25.9243 57.1116C28.7288 59.4258 30.5243 64.195 29.9267 67.7614Z" fill="url(#paint12_linear_38_6406)"/>
<path d="M24.4671 73.0264C20.7333 69.9515 18.3554 63.6123 19.1491 58.876C19.5151 56.6922 20.4889 55.2299 21.8071 54.5834C19.7249 54.6135 18.0797 56.2549 17.5783 59.247C16.7846 63.9832 19.1624 70.3225 22.8951 73.4045C24.906 75.0608 26.8993 75.4313 28.4315 74.6821C27.2107 74.7035 25.8428 74.1681 24.4659 73.0335L24.4671 73.0264Z" fill="url(#paint13_linear_38_6406)"/>
<path style="mix-blend-mode:color-dodge" d="M26.414 54.0592C24.2105 52.2467 21.6713 51.9159 20.4089 52.273C22.0197 52.0982 24.1451 52.7241 26.0084 54.2609C30.5996 58.0481 33.5338 65.8509 32.5548 71.6933C32.0451 74.735 30.3027 76.6517 28.3594 77.2445C30.3545 76.8644 32.3723 74.9575 32.9532 71.4903C33.9311 65.6551 30.9968 57.8522 26.4069 54.058L26.414 54.0592Z" fill="url(#paint14_radial_38_6406)"/>
<path d="M17.2912 99.8465L2.93506 118.842L0.95481 117.176L2.43164 108.363C2.63837 107.13 3.09925 105.815 3.78584 104.501L12.3208 88.1889C14.1556 84.6768 17.3632 81.6717 20.5348 80.4902L22.4335 82.1204L17.2912 99.8465Z" fill="url(#paint15_linear_38_6406)"/>
<path d="M19.2714 101.511L2.93496 118.841L4.41179 110.028C4.61852 108.794 5.08059 107.472 5.76479 106.173L14.2997 89.8608C16.1346 86.3487 19.3421 83.3436 22.5137 82.1621L19.2702 101.518L19.2714 101.511Z" fill="url(#paint16_linear_38_6406)"/>
<path style="mix-blend-mode:color-dodge" d="M4.5628 110.303C4.76954 109.069 5.23042 107.754 5.91581 106.448L14.4507 90.1356C16.2074 86.7853 19.214 83.8923 22.2427 82.6067L22.3306 82.082C19.1578 83.2706 15.9503 86.2757 14.1166 89.7807L5.5817 106.093C4.89631 107.399 4.43543 108.714 4.2287 109.948L2.75186 118.761L3.23092 118.251L4.5628 110.303Z" fill="url(#paint17_radial_38_6406)"/>
<path d="M47.8671 104.97L55.2466 127.608L57.6617 126.679L59.1386 117.866C59.3453 116.632 59.3383 115.239 59.1174 113.773L56.3663 95.5697C55.7766 91.6512 53.7239 87.7647 51.1107 85.6138L48.7842 86.536L47.8671 104.97Z" fill="url(#paint18_linear_38_6406)"/>
<path d="M45.452 105.9L55.2466 127.609L56.7235 118.796C56.9302 117.562 56.9244 116.161 56.7012 114.71L53.95 96.5067C53.3603 92.5883 51.3076 88.7017 48.6944 86.5508L45.4508 105.907L45.452 105.9Z" fill="url(#paint19_linear_38_6406)"/>
<path style="mix-blend-mode:color-dodge" d="M56.993 114.751L54.2418 96.5477C53.6521 92.6293 51.5995 88.7427 48.9862 86.5918L48.9672 86.7052C51.2838 88.9303 53.0673 92.5094 53.6147 96.1146L56.3659 114.318C56.5879 115.776 56.5949 117.17 56.387 118.411L55.0266 126.529L55.5361 127.664L57.0129 118.851C57.2197 117.617 57.2127 116.224 56.9906 114.765L56.993 114.751Z" fill="url(#paint20_radial_38_6406)"/>
</g>
<defs>
<linearGradient id="paint0_linear_38_6406" x1="55.7511" y1="88.4981" x2="94.8673" y2="83.5896" gradientUnits="userSpaceOnUse">
<stop offset="0.04" stop-color="#6B24D6"/>
<stop offset="0.29" stop-color="#7733DC"/>
<stop offset="0.79" stop-color="#965BEC"/>
<stop offset="1" stop-color="#A56EF4"/>
</linearGradient>
<linearGradient id="paint1_linear_38_6406" x1="35.142" y1="89.5711" x2="-7.81653" y2="72.0899" gradientUnits="userSpaceOnUse">
<stop offset="0.04" stop-color="#6B24D6"/>
<stop offset="0.29" stop-color="#7733DC"/>
<stop offset="0.79" stop-color="#965BEC"/>
<stop offset="1" stop-color="#A56EF4"/>
</linearGradient>
<linearGradient id="paint2_linear_38_6406" x1="24.3706" y1="111.879" x2="37.1738" y2="114.024" gradientUnits="userSpaceOnUse">
<stop offset="0.02" stop-color="#45108A"/>
<stop offset="0.29" stop-color="#3D065F"/>
<stop offset="1" stop-color="#10054D"/>
</linearGradient>
<linearGradient id="paint3_linear_38_6406" x1="17.0908" y1="100.475" x2="47.6597" y2="105.597" gradientUnits="userSpaceOnUse">
<stop stop-color="#5C1CCC"/>
<stop offset="0.03" stop-color="#6223CF"/>
<stop offset="0.07" stop-color="#7437D9"/>
<stop offset="0.12" stop-color="#9258E9"/>
<stop offset="0.14" stop-color="#A56EF4"/>
<stop offset="0.23" stop-color="#C994FF"/>
<stop offset="0.28" stop-color="#AE79EF"/>
<stop offset="0.38" stop-color="#7945D1"/>
<stop offset="0.54" stop-color="#4916A1"/>
<stop offset="0.62" stop-color="#4B16A4"/>
<stop offset="0.69" stop-color="#5219AF"/>
<stop offset="0.76" stop-color="#5D1EC0"/>
<stop offset="0.82" stop-color="#6B24D6"/>
<stop offset="0.94" stop-color="#5B1DBC"/>
<stop offset="1" stop-color="#531AB0"/>
</linearGradient>
<linearGradient id="paint4_linear_38_6406" x1="15.9983" y1="51.3659" x2="64.581" y2="59.507" gradientUnits="userSpaceOnUse">
<stop offset="0.01" stop-color="#C1A1D5"/>
<stop offset="0.04" stop-color="#C7ABD9"/>
<stop offset="0.1" stop-color="#D9C6E5"/>
<stop offset="0.18" stop-color="#F6F2F9"/>
<stop offset="0.2" stop-color="white"/>
<stop offset="0.23" stop-color="#F9F5FB"/>
<stop offset="0.29" stop-color="#E9DBF1"/>
<stop offset="0.36" stop-color="#D1B4E3"/>
<stop offset="0.43" stop-color="#B294D5"/>
<stop offset="0.49" stop-color="#9B7CCB"/>
<stop offset="0.56" stop-color="#8D6EC5"/>
<stop offset="0.61" stop-color="#8969C3"/>
<stop offset="0.76" stop-color="#9371C5"/>
<stop offset="1" stop-color="#B086CC"/>
</linearGradient>
<linearGradient id="paint5_linear_38_6406" x1="37.9418" y1="13.276" x2="61.8185" y2="27.9388" gradientUnits="userSpaceOnUse">
<stop stop-color="#5C1CCC"/>
<stop offset="0.04" stop-color="#6223CF"/>
<stop offset="0.09" stop-color="#7437D9"/>
<stop offset="0.16" stop-color="#9258E9"/>
<stop offset="0.19" stop-color="#A56EF4"/>
<stop offset="0.34" stop-color="#7945D1"/>
<stop offset="0.44" stop-color="#6D37C6"/>
<stop offset="0.6" stop-color="#5E26B9"/>
<stop offset="0.77" stop-color="#551DB2"/>
<stop offset="1" stop-color="#531AB0"/>
</linearGradient>
<linearGradient id="paint6_linear_38_6406" x1="58.7229" y1="15.3952" x2="22.9284" y2="26.0495" gradientUnits="userSpaceOnUse">
<stop stop-color="#5C1CCC"/>
<stop offset="0.04" stop-color="#6223CF"/>
<stop offset="0.09" stop-color="#7437D9"/>
<stop offset="0.16" stop-color="#9258E9"/>
<stop offset="0.19" stop-color="#A56EF4"/>
<stop offset="0.34" stop-color="#7945D1"/>
<stop offset="0.44" stop-color="#6D37C6"/>
<stop offset="0.6" stop-color="#5E26B9"/>
<stop offset="0.77" stop-color="#551DB2"/>
<stop offset="1" stop-color="#531AB0"/>
</linearGradient>
<radialGradient id="paint7_radial_38_6406" cx="0" cy="0" r="1" gradientUnits="userSpaceOnUse" gradientTransform="translate(40.4482 55.4689) rotate(9.51277) scale(34.9558 55.9367)">
<stop offset="0.53" stop-color="white"/>
<stop offset="0.6" stop-color="#FAFAFC"/>
<stop offset="0.68" stop-color="#EFECF5"/>
<stop offset="0.76" stop-color="#DBD4EA"/>
<stop offset="0.85" stop-color="#C0B4D9"/>
<stop offset="0.95" stop-color="#9D8AC5"/>
<stop offset="1" stop-color="#8770B8"/>
</radialGradient>
<radialGradient id="paint8_radial_38_6406" cx="0" cy="0" r="1" gradientUnits="userSpaceOnUse" gradientTransform="translate(18.0411 56.1166) rotate(175.531) scale(9.61381 41.8041)">
<stop stop-color="#972A74"/>
<stop offset="0.02" stop-color="#8C276B"/>
<stop offset="0.11" stop-color="#671C4F"/>
<stop offset="0.21" stop-color="#471336"/>
<stop offset="0.32" stop-color="#2D0C22"/>
<stop offset="0.43" stop-color="#180613"/>
<stop offset="0.57" stop-color="#0A0308"/>
<stop offset="0.73" stop-color="#020001"/>
<stop offset="1"/>
</radialGradient>
<linearGradient id="paint9_linear_38_6406" x1="22.6941" y1="51.1611" x2="32.0703" y2="76.2533" gradientUnits="userSpaceOnUse">
<stop stop-color="#5C1CCC"/>
<stop offset="0.03" stop-color="#6223CF"/>
<stop offset="0.07" stop-color="#7437D9"/>
<stop offset="0.12" stop-color="#9258E9"/>
<stop offset="0.14" stop-color="#A56EF4"/>
<stop offset="0.23" stop-color="#C994FF"/>
<stop offset="0.28" stop-color="#AE79EF"/>
<stop offset="0.38" stop-color="#7945D1"/>
<stop offset="0.54" stop-color="#4916A1"/>
<stop offset="0.62" stop-color="#4B16A4"/>
<stop offset="0.69" stop-color="#5219AF"/>
<stop offset="0.76" stop-color="#5D1EC0"/>
<stop offset="0.82" stop-color="#6B24D6"/>
<stop offset="0.94" stop-color="#5B1DBC"/>
<stop offset="1" stop-color="#531AB0"/>
</linearGradient>
<linearGradient id="paint10_linear_38_6406" x1="15.1263" y1="63.2679" x2="33.5442" y2="66.3542" gradientUnits="userSpaceOnUse">
<stop offset="0.04" stop-color="#A56EF4"/>
<stop offset="0.36" stop-color="#C994FF"/>
<stop offset="0.54" stop-color="#B279F5"/>
<stop offset="0.91" stop-color="#7935DC"/>
<stop offset="1" stop-color="#6B24D6"/>
</linearGradient>
<linearGradient id="paint11_linear_38_6406" x1="27.9459" y1="74.4924" x2="20.5132" y2="54.5948" gradientUnits="userSpaceOnUse">
<stop offset="0.04" stop-color="#138BBD"/>
<stop offset="0.23" stop-color="#169AC6"/>
<stop offset="0.59" stop-color="#1EC2DF"/>
<stop offset="1" stop-color="#2AF6FF"/>
</linearGradient>
<linearGradient id="paint12_linear_38_6406" x1="18.8863" y1="52.8343" x2="26.512" y2="66.5756" gradientUnits="userSpaceOnUse">
<stop stop-color="white"/>
<stop offset="1"/>
</linearGradient>
<linearGradient id="paint13_linear_38_6406" x1="25.7233" y1="75.6205" x2="18.3306" y2="55.8317" gradientUnits="userSpaceOnUse">
<stop stop-color="#5C1CCC"/>
<stop offset="0.23" stop-color="#BA85FF"/>
<stop offset="0.38" stop-color="#7945D1"/>
<stop offset="0.54" stop-color="#4916A1"/>
<stop offset="0.61" stop-color="#4B16A4"/>
<stop offset="0.68" stop-color="#5219AF"/>
<stop offset="0.74" stop-color="#5D1EC0"/>
<stop offset="0.79" stop-color="#6B24D6"/>
<stop offset="0.93" stop-color="#5B1DBC"/>
<stop offset="1" stop-color="#531AB0"/>
</linearGradient>
<radialGradient id="paint14_radial_38_6406" cx="0" cy="0" r="1" gradientUnits="userSpaceOnUse" gradientTransform="translate(26.1844 64.8672) rotate(9.51277) scale(10.0202 10.0216)">
<stop stop-color="white"/>
<stop offset="1"/>
</radialGradient>
<linearGradient id="paint15_linear_38_6406" x1="4.0793" y1="114.536" x2="23.2509" y2="77.8703" gradientUnits="userSpaceOnUse">
<stop offset="0.2" stop-color="#7734DC"/>
<stop offset="0.39" stop-color="#8C4EE7"/>
<stop offset="0.59" stop-color="#A56EF4"/>
<stop offset="0.67" stop-color="#BA8AFF"/>
<stop offset="0.8" stop-color="#A067F1"/>
<stop offset="1" stop-color="#9155EA"/>
</linearGradient>
<linearGradient id="paint16_linear_38_6406" x1="5.96886" y1="101.345" x2="51.6669" y2="95.6083" gradientUnits="userSpaceOnUse">
<stop offset="0.04" stop-color="#6B24D6"/>
<stop offset="0.29" stop-color="#7733DC"/>
<stop offset="0.79" stop-color="#965BEC"/>
<stop offset="1" stop-color="#A56EF4"/>
</linearGradient>
<radialGradient id="paint17_radial_38_6406" cx="0" cy="0" r="1" gradientUnits="userSpaceOnUse" gradientTransform="translate(20.9168 97.7728) rotate(9.51277) scale(14.7141 14.716)">
<stop stop-color="white"/>
<stop offset="1"/>
</radialGradient>
<linearGradient id="paint18_linear_38_6406" x1="53.7261" y1="110.238" x2="50.2388" y2="88.6318" gradientUnits="userSpaceOnUse">
<stop offset="0.04" stop-color="#6B24D6"/>
<stop offset="0.19" stop-color="#7633DB"/>
<stop offset="0.2" stop-color="#7734DC"/>
<stop offset="0.39" stop-color="#8C4EE7"/>
<stop offset="0.59" stop-color="#A56EF4"/>
<stop offset="0.67" stop-color="#BA8AFF"/>
<stop offset="0.8" stop-color="#A067F1"/>
<stop offset="1" stop-color="#9155EA"/>
</linearGradient>
<linearGradient id="paint19_linear_38_6406" x1="83.9468" y1="120.092" x2="18.5822" y2="93.4852" gradientUnits="userSpaceOnUse">
<stop offset="0.04" stop-color="#6B24D6"/>
<stop offset="0.29" stop-color="#7733DC"/>
<stop offset="0.79" stop-color="#965BEC"/>
<stop offset="1" stop-color="#A56EF4"/>
</linearGradient>
<radialGradient id="paint20_radial_38_6406" cx="0" cy="0" r="1" gradientUnits="userSpaceOnUse" gradientTransform="translate(46.5868 100.346) rotate(9.51277) scale(14.6997 14.7017)">
<stop stop-color="white"/>
<stop offset="1"/>
</radialGradient>
<clipPath id="clip0_38_6406">
<rect width="59" height="120" fill="white" transform="translate(19.8321) rotate(9.51277)"/>
</clipPath>
</defs>
</svg>
