<svg width="50" height="51" viewBox="0 0 50 51" fill="none" xmlns="http://www.w3.org/2000/svg">
<path d="M21.9862 50.6833C17.239 50.3411 12.5469 49.1462 9.66937 47.5465C8.0303 46.6353 6.78156 45.5156 6.29155 44.5175L6 43.9237V25.298V6.67231L6.2307 6.20389C7.26165 4.11078 10.5519 2.22384 15.1449 1.09165C16.704 0.707298 18.9548 0.324544 20.791 0.131535C22.666 -0.0656039 27.6359 -0.0356107 29.5062 0.184422C34.4772 0.768448 38.7073 2.07594 41.3141 3.83425C42.3194 4.51231 43.3509 5.59729 43.7004 6.34411L44 6.98442L43.9744 25.5538L43.9487 44.1232L43.7082 44.6119C43.5759 44.8806 43.1764 45.4093 42.8203 45.7867C40.6527 48.0845 36.0032 49.7843 29.9047 50.5085C28.6617 50.6561 23.2616 50.7755 21.9863 50.6836L21.9862 50.6833ZM30.7347 34.7236C30.7164 34.676 30.0067 34.0437 29.1576 33.3186C28.3085 32.5934 27.5772 31.966 27.5325 31.9244C27.4878 31.8827 27.6447 31.7352 27.8811 31.5966C28.1176 31.458 28.5706 31.0724 28.8878 30.7398C29.8155 29.767 30.2532 28.5653 30.2532 26.9913C30.2532 25.4417 29.7812 24.1914 28.8356 23.237C27.8826 22.275 26.7885 21.8617 25.195 21.8617C22.7389 21.8617 20.8526 23.2948 20.2505 25.6183C20.0434 26.4175 20.0445 28.0324 20.2527 28.7411C20.7956 30.5896 22.2744 31.9321 24.1148 32.2473C24.7376 32.354 24.8219 32.4 25.2465 32.8642C25.4988 33.1401 26.0167 33.6908 26.3972 34.0879L27.0891 34.81H28.9285C29.9402 34.81 30.7529 34.7711 30.7347 34.7236ZM24.4267 29.5734C23.9839 29.3425 23.8165 29.1634 23.564 28.65C23.3689 28.2535 23.3356 28.028 23.3334 27.0909C23.3312 26.1387 23.3615 25.9329 23.5652 25.5194C23.8983 24.8428 24.3575 24.5225 25.0677 24.4711C26.0563 24.3994 26.627 24.8846 26.926 26.0506C27.2927 27.4802 26.8895 29.0002 26.0097 29.5046C25.5481 29.7692 24.8597 29.7992 24.4267 29.5734ZM16.2737 32.227C18.2022 31.8613 19.297 30.7398 19.297 29.1298C19.297 27.7016 18.5902 26.8693 16.6368 25.9973C15.5186 25.4981 15.1136 25.1848 15.1136 24.8187C15.1136 24.5153 15.498 24.1828 15.9454 24.0992C16.3823 24.0177 17.5411 24.2189 18.2254 24.4953L18.7989 24.727V23.4574V22.1877L18.1764 22.0496C17.7917 21.9643 16.9832 21.9131 16.0598 21.9157C14.7519 21.9157 14.4958 21.9475 14.0036 22.143C12.5658 22.7138 11.8836 23.6861 11.8945 25.1486C11.9047 26.5178 12.627 27.3719 14.4247 28.1402C15.4853 28.5935 15.9105 28.9387 15.9105 29.3467C15.9105 30.2135 14.4661 30.3202 12.9368 29.5663C12.518 29.3598 12.1417 29.1741 12.1007 29.1535C12.0596 29.1329 12.026 29.726 12.026 30.4715C12.026 31.8208 12.0274 31.8273 12.2717 31.9203C13.1917 32.2701 15.225 32.4259 16.2737 32.227ZM38.3211 30.9753V29.8299H36.578H34.835V25.8956V21.9613H33.2911H31.7473V27.041V32.1208H35.0342H38.3211V30.9753ZM27.564 10.9028C30.6319 10.6901 32.9316 10.2883 34.9552 9.61169C36.9713 8.93761 38.1622 8.12197 38.4286 7.23285C38.5313 6.89023 38.5239 6.76027 38.3805 6.38462C37.7373 4.7005 34.1443 3.40657 28.654 2.88196C26.3055 2.65751 22.0344 2.73027 19.7951 3.03275C16.3783 3.49441 13.6054 4.35191 12.3724 5.32819C9.87831 7.3032 12.5159 9.47544 18.6496 10.4979C21.3091 10.9412 24.7548 11.0977 27.564 10.9028H27.564Z" fill="#00BCF2"/>
</svg>
