<svg width="55" height="55" viewBox="0 0 55 55" fill="none" xmlns="http://www.w3.org/2000/svg">
<path d="M41.4849 48.5428C34.9968 52.3377 26.117 52.7283 17.1273 48.8219C9.86949 45.6967 3.84883 40.2276 0 33.9773C1.84194 35.512 4.01378 36.7676 6.32307 37.8837C15.5877 42.2646 24.8249 41.9576 31.3404 37.8837C22.0758 30.6568 14.1857 21.2533 8.32996 13.5799C7.09284 12.3243 6.18562 10.7617 5.2509 9.36649C28.014 26.248 27.0243 30.5452 11.8764 6.54825C25.3198 20.3325 37.801 28.1455 37.801 28.1455C38.2408 28.3966 38.4883 28.5919 38.7907 28.7593C39.0656 28.0618 39.313 27.3363 39.5055 26.5829C41.6773 18.6304 39.203 9.50601 33.7872 2C46.2959 9.67343 53.7186 24.0716 50.6121 36.1537C50.5296 36.4607 50.4471 36.7676 50.4746 37.242C56.6327 45.1386 54.9832 53.3701 54.186 51.8075C50.8595 45.1386 44.6189 47.2035 41.4849 48.5428Z" fill="#FE5E2F"/>
</svg>
