<svg width="44" height="29" viewBox="0 0 44 29" fill="none" xmlns="http://www.w3.org/2000/svg">
<path d="M21.0727 28.5C20.7833 27.5651 20.4545 26.6041 20.0861 25.6172C19.7441 24.6304 19.4021 23.6435 19.0601 22.6566L13.6933 7.6195C13.3513 8.60639 7.70824 24.6304 7.33992 25.6172C6.99792 26.6041 6.68223 27.5651 6.39284 28.5H0C1.02601 25.5913 1.99941 22.9033 2.92019 20.4361C3.84096 17.9689 4.73544 15.6445 5.6036 13.4629C6.49807 11.2814 7.36623 9.21671 8.20809 7.2689C9.07625 5.29512 9.97072 3.37328 10.8915 1.50339H16.7713C17.6658 3.37328 18.5471 5.29512 19.4153 7.2689C20.2834 9.21671 21.1516 11.2814 22.0198 13.4629C22.9142 15.6445 23.8219 17.9689 24.7427 20.4361C25.6634 22.9033 26.6368 25.5913 27.6628 28.5H21.0727Z" fill="white"/>
<path d="M33.0739 23.349C33.9544 23.349 34.6748 23.2845 35.2351 23.1554C35.8221 23.0005 36.289 22.8068 36.6359 22.5745C36.9828 22.3163 37.2229 22.0194 37.3563 21.6838C37.4897 21.3481 37.5564 20.9738 37.5564 20.5607C37.5564 19.6828 37.1295 18.9599 36.2757 18.3919C35.4219 17.7981 33.9544 17.1656 31.8733 16.4943C30.9661 16.1845 30.0589 15.836 29.1517 15.4487C28.2446 15.0356 27.4308 14.5321 26.7104 13.9383C25.99 13.3187 25.403 12.5829 24.9494 11.7309C24.4958 10.8531 24.269 9.79452 24.269 8.55525C24.269 7.31598 24.5092 6.2058 24.9894 5.22471C25.4697 4.21781 26.1501 3.36581 27.0306 2.66872C27.911 1.97163 28.9783 1.44236 30.2323 1.08091C31.4864 0.693636 32.9005 0.5 34.4747 0.5C36.3424 0.5 37.9566 0.693636 39.3174 1.08091C40.6782 1.46818 41.7988 1.89418 42.6793 2.3589L40.8783 7.12234C40.1045 6.73507 39.2374 6.39944 38.2768 6.11544C37.343 5.80562 36.209 5.65071 34.8749 5.65071C33.3808 5.65071 32.3002 5.85726 31.6331 6.27035C30.9928 6.65762 30.6726 7.26434 30.6726 8.09052C30.6726 8.58107 30.7927 8.99416 31.0328 9.32979C31.2729 9.66543 31.6064 9.97524 32.0333 10.2592C32.4869 10.5174 32.9939 10.7627 33.5542 10.9951C34.1412 11.2016 34.7815 11.4211 35.4753 11.6534C36.9161 12.1698 38.1701 12.6861 39.2374 13.2025C40.3046 13.6931 41.1851 14.274 41.8788 14.9452C42.5992 15.6165 43.1329 16.404 43.4797 17.3076C43.8266 18.2112 44 19.3085 44 20.5994C44 23.1038 43.0928 25.053 41.2785 26.4472C39.4641 27.8156 36.7293 28.4997 33.0739 28.4997C31.8466 28.4997 32.0333 28.4801 32.0333 28.4801L29.7521 23.0996C29.7521 23.0996 31.3129 23.349 33.0739 23.349Z" fill="white"/>
<path d="M16.8699 20.5868C16.8699 22.2676 15.4896 23.6302 13.7869 23.6302C12.0843 23.6302 10.704 22.2676 10.704 20.5868C10.704 18.9059 12.0843 17.5433 13.7869 17.5433C15.4896 17.5433 16.8699 18.9059 16.8699 20.5868Z" fill="white"/>
</svg>
