<?xml version="1.0" encoding="utf-8"?><svg viewBox="0 0 194.29 2000" xmlns="http://www.w3.org/2000/svg" xmlns:xlink="http://www.w3.org/1999/xlink"><style>:root>svg{display:none}:root>svg:target{display:block}</style><svg fill="none" viewBox="0 0 55 55" id="c" xmlns="http://www.w3.org/2000/svg"><path d="M3 27.519V16.49c0-2.005.898-3.509 2.695-4.511C12.182 8.17 18.768 4.46 25.355.752c1.697-1.003 3.393-1.003 5.19 0 6.587 3.71 13.174 7.418 19.86 11.228C52.102 12.982 53 14.486 53 16.49v22.155c0 2.005-.898 3.509-2.595 4.511-6.587 3.71-13.174 7.419-19.86 11.128-1.697 1.003-3.393.903-5.19 0-6.587-3.81-13.173-7.418-19.66-11.127C3.898 42.154 3 40.65 3 38.545V27.519Zm47.505 0V16.59c0-1.203-.499-2.005-1.497-2.606-6.487-3.71-13.074-7.318-19.56-11.028-.999-.601-1.997-.601-2.995 0-6.487 3.71-13.074 7.319-19.56 11.028-1.099.601-1.498 1.403-1.498 2.707v21.754c0 1.303.5 2.205 1.597 2.807 6.487 3.609 12.974 7.318 19.361 10.927 1.098.602 1.996.602 3.094 0 6.487-3.71 13.074-7.318 19.561-11.027.998-.602 1.497-1.404 1.497-2.607V27.519Z" fill="#00A6FB"/><path d="m33.838 23.409 7.186-4.21c-3.793-5.915-10.779-8.422-17.266-6.417-6.686 1.905-11.277 8.02-11.277 15.038 0 6.917 4.79 13.032 11.477 14.837 6.587 1.704 13.373-.902 17.066-6.717l-7.186-4.21c-1.397 1.704-3.193 2.807-5.389 3.007-2.196.1-4.192-.601-5.689-2.205-2.594-2.807-2.694-7.018-.1-9.825 1.298-1.403 2.795-2.205 4.691-2.306 2.695-.2 4.79.903 6.487 3.008Z" fill="#00A6FB"/><path d="M44.517 21.604h2.395v2.305h2.395v2.406h-2.295v2.406h2.295v2.406h-2.295v2.406h-2.395v-2.306h-2.395v2.306h-2.396v-2.306h-2.395v-2.405h2.296v-2.406H37.43v-2.407h2.296v-2.405h2.395v2.305h2.395v-2.305Zm0 7.117v-2.305h-2.295v2.305h2.295Z" fill="#00A6FB"/></svg><svg fill="none" viewBox="0 0 50 50" id="c++" xmlns="http://www.w3.org/2000/svg"><path d="M47.428 37.5c.353-.604.572-1.284.572-1.895v-21.21c0-.61-.22-1.291-.572-1.895L25.5 25l21.928 12.5Z" fill="#00599C"/><path d="m27.449 49.542 18.603-10.605c.535-.305 1.023-.833 1.376-1.437L25.5 25 3.573 37.5c.353.604.84 1.132 1.376 1.437l18.603 10.605c1.071.61 2.825.61 3.897 0Z" fill="#004482"/><path d="M47.428 12.5c-.354-.604-.84-1.132-1.377-1.437L27.448.458c-1.071-.61-2.825-.61-3.896 0L4.948 11.063C3.877 11.673 3 13.173 3 14.395v21.21c0 .61.22 1.291.572 1.895L25.5 25l21.928-12.5Z" fill="#659AD2"/><path d="M25.5 39.812c-8.271 0-15-6.644-15-14.811s6.729-14.81 15-14.81c5.337 0 10.315 2.835 12.99 7.4l-6.492 3.71c-1.339-2.286-3.829-3.705-6.498-3.705-4.136 0-7.5 3.322-7.5 7.405s3.364 7.405 7.5 7.405c2.67 0 5.16-1.42 6.499-3.704l6.491 3.708c-2.675 4.566-7.653 7.402-12.99 7.402Z" fill="#fff"/><path d="M40.5 24.178h-1.667v-1.646h-1.667v1.646H35.5v1.645h1.666v1.646h1.667v-1.646H40.5v-1.645ZM46.75 24.178h-1.667v-1.646h-1.666v1.646H41.75v1.645h1.667v1.646h1.666v-1.646h1.667v-1.645Z" fill="#fff"/></svg><svg fill="none" viewBox="0 0 50 50" id="clojure" xmlns="http://www.w3.org/2000/svg"><path d="M23.965 25.45a115.95 115.95 0 0 0-.806 1.787c-1.004 2.274-2.116 5.042-2.522 6.815a10.237 10.237 0 0 0-.234 2.281c0 .344.018.704.047 1.072a13.24 13.24 0 0 0 4.553.81 13.262 13.262 0 0 0 4.167-.679 7.847 7.847 0 0 1-.869-.92c-1.776-2.265-2.767-5.585-4.336-11.167Zm-6.558-11.255A13.22 13.22 0 0 0 11.785 25a13.218 13.218 0 0 0 5.47 10.696c.81-3.38 2.844-6.474 5.894-12.676a49.663 49.663 0 0 0-.619-1.614c-.845-2.12-2.064-4.58-3.152-5.695-.555-.582-1.228-1.085-1.971-1.515Z" fill="#64DD17"/><path d="M36.515 40.16c-1.75-.22-3.195-.485-4.459-.93a15.816 15.816 0 0 1-7.054 1.651c-8.77 0-15.88-7.108-15.882-15.882 0-4.76 2.098-9.027 5.415-11.938a11.653 11.653 0 0 0-2.758-.337C7.117 12.767 2.2 15.346.151 22.31-.041 23.325.005 24.09.005 25c0 13.806 11.192 25 24.997 25 8.455 0 15.924-4.202 20.447-10.627-2.447.61-4.8.902-6.814.908-.755 0-1.464-.04-2.12-.12" fill="#7CB342"/><path d="M31.82 35.315c.153.077.503.202.99.34a13.219 13.219 0 0 0 5.413-10.656h-.001c-.013-7.298-5.919-13.203-13.219-13.218-1.45.003-2.845.242-4.15.675 2.684 3.06 3.975 7.431 5.223 12.213l.002.006c.003.004.4 1.328 1.081 3.085.677 1.754 1.642 3.926 2.693 5.509.69 1.06 1.45 1.823 1.967 2.046Z" fill="#29B6F6"/><path d="M25.003 0C16.63 0 9.223 4.122 4.687 10.442c2.36-1.478 4.771-2.012 6.875-1.993 2.906.009 5.19.91 6.287 1.526.264.153.516.317.762.486a15.816 15.816 0 0 1 6.391-1.343c8.772 0 15.883 7.11 15.884 15.881h-.001c0 4.423-1.81 8.421-4.725 11.3.716.081 1.479.13 2.258.127 2.769.001 5.761-.61 8.005-2.497 1.463-1.232 2.688-3.036 3.368-5.741.133-1.045.21-2.107.21-3.188C50 11.194 38.808 0 25.002 0" fill="#1E88E5"/></svg><svg fill="none" viewBox="0 0 211 2172" id="contacts-decor" xmlns="http://www.w3.org/2000/svg"><path d="M67.49 1078.31v284.72h3.95v-280.77l-3.95-3.95Z" fill="#0F95F7"/><path d="M62.04 1362.64c0 4.11 3.318 7.43 7.425 7.43a7.419 7.419 0 0 0 7.424-7.43c0-4.11-3.317-7.43-7.424-7.43a7.419 7.419 0 0 0-7.425 7.43ZM200.89 2061.35v-302.4l-61.211-61.27v-541.54l-72.228-72.3 2.803-2.81 73.138 73.06.236 541.93 61.211 61.27v304.06h-3.949Z" fill="#0F95F7"/><path d="M195.48 2060.99c0 4.11 3.317 7.43 7.424 7.43a7.42 7.42 0 0 0 7.425-7.43 7.42 7.42 0 0 0-7.425-7.43 7.418 7.418 0 0 0-7.424 7.43ZM63.86 718.041l-2.804-2.767 26.38-26.405v-98.822l80.285-80.362V80.955h3.949v430.35l-80.285 80.402v98.822L63.86 718.041Z" fill="#0F95F7"/><path d="M58.052 711.123c-2.883 2.886-2.883 7.59 0 10.515 2.883 2.885 7.582 2.885 10.504 0 2.923-2.886 2.883-7.59 0-10.515-2.883-2.885-7.582-2.885-10.504 0ZM186.479 1214.72v-99.81l-47.389-47.43V940.311l61.211-61.269v-91.233l-32.58-32.611V402.404h3.949v351.134l32.58 32.611v94.553l-61.211 61.27v123.848l47.389 47.43v101.47h-3.949Z" fill="#0F95F7"/><path d="M181.619 1214.36a7.42 7.42 0 0 0 7.424 7.44 7.42 7.42 0 0 0 7.424-7.44c0-4.11-3.317-7.43-7.424-7.43a7.418 7.418 0 0 0-7.424 7.43ZM205.237 421.97l-33.567-33.599V.198h-3.949v389.793l33.567 33.6v87.003h3.949V421.97Z" fill="#0F95F7"/><path d="M196.151 510.198a7.42 7.42 0 0 0 7.425 7.432 7.419 7.419 0 0 0 7.424-7.432 7.42 7.42 0 0 0-7.424-7.431 7.42 7.42 0 0 0-7.425 7.431ZM143.419 1216.09l-.38-154.49-3.949-4 .589 160.12 55.288 55.34v368.97h3.949v-370.59l-55.497-55.35Z" fill="#0F95F7"/><path d="M189.517 1641.67c0 4.11 3.317 7.43 7.424 7.43a7.42 7.42 0 0 0 7.425-7.43 7.42 7.42 0 0 0-7.425-7.43 7.418 7.418 0 0 0-7.424 7.43ZM5.45 2164.12l-.04-209.82 68.477-68.54v-318.84l66.977-67.04 2.764 2.81-65.791 65.85v318.88l-68.478 68.5.04 208.2h-3.95Z" fill="#0F95F7"/><path d="M0 2163.77c0 4.11 3.317 7.43 7.424 7.43a7.419 7.419 0 0 0 7.425-7.43c0-4.11-3.318-7.43-7.425-7.43A7.419 7.419 0 0 0 0 2163.77ZM106.112 892.442V736.619l62.198-62.257V487.43h3.36v188.706l-61.609 62.144v154.162h-3.949Z" fill="#0F95F7"/><path d="M100.662 892.086a7.42 7.42 0 0 0 7.425 7.432 7.42 7.42 0 0 0 7.424-7.432 7.419 7.419 0 0 0-7.424-7.431 7.42 7.42 0 0 0-7.425 7.431Z" fill="#0F95F7"/></svg><svg fill="none" viewBox="0 0 50 50" id="css" xmlns="http://www.w3.org/2000/svg"><path d="M3 0h44c-.241 2.727-.481 5.454-.724 8.18l-.851 9.543c-.273 3.068-.544 6.136-.819 9.202-.28 3.133-.564 6.265-.844 9.396-.243 2.743-.488 5.486-.718 8.23-.034.389-.167.57-.573.68a2920.652 2920.652 0 0 0-16.76 4.666 2.506 2.506 0 0 1-1.425 0 4039.317 4039.317 0 0 0-16.853-4.694c-.319-.088-.452-.225-.474-.552-.058-.862-.146-1.721-.223-2.582-.307-3.489-.611-6.98-.922-10.47-.31-3.504-.63-7.01-.943-10.515-.31-3.49-.613-6.98-.923-10.47C3.635 7.076 3.316 3.538 3 0Zm22.023 9.208h-2.209c-3.747 0-7.495 0-11.243.002-.246 0-.525-.094-.486.366.12 1.396.184 2.797.3 4.193.067.793-.043.678.722.675 6.776-.018 13.55-.038 20.326-.073.416-.003.507.088.468.511-.142 1.509-.254 3.02-.328 4.534-.023.475-.18.587-.635.592-6.447.065-12.894.154-19.343.218-.459.005-.629.08-.565.582.179 1.389.331 2.784.443 4.178.037.453.223.511.608.502 1.129-.027 2.258-.021 3.388-.024 5.025-.01 10.048-.016 15.073-.041.426-.003.502.096.453.51a430.7 430.7 0 0 0-.725 6.655c-.038.369-.165.56-.551.66-1.804.459-3.601.952-5.399 1.437a1.236 1.236 0 0 1-.674-.005 488.61 488.61 0 0 0-5.445-1.457c-.305-.08-.42-.22-.444-.525-.102-1.266-.235-2.53-.331-3.798-.023-.316-.13-.416-.442-.413-1.587.012-3.175.012-4.762 0-.322-.003-.427.084-.397.417.253 2.676.496 5.353.724 8.031.03.353.172.487.508.578 3.516.954 7.026 1.925 10.536 2.9.282.08.534.072.812-.005 3.43-.953 6.86-1.91 10.301-2.826.53-.14.728-.351.773-.894.341-4.043.718-8.082 1.077-12.123.44-4.934.868-9.868 1.326-14.8.043-.461-.042-.573-.508-.57-4.45.017-8.902.01-13.354.01l.003.003Z" fill="#0F95F7"/></svg><svg fill="none" viewBox="0 0 90 34" id="go" xmlns="http://www.w3.org/2000/svg"><path d="M6.792 10.295c-.175 0-.219-.089-.131-.222l.92-1.196c.087-.133.307-.222.482-.222h15.643c.176 0 .22.133.132.266l-.745 1.152c-.088.133-.307.266-.438.266l-15.863-.044ZM.175 14.372c-.175 0-.219-.089-.131-.222l.92-1.196c.088-.133.307-.222.482-.222h19.982c.175 0 .263.133.219.266l-.35 1.064c-.044.177-.22.266-.395.266l-20.727.044ZM10.78 18.446c-.176 0-.22-.133-.132-.266l.614-1.107c.087-.133.262-.266.438-.266h8.764c.175 0 .263.133.263.31l-.088 1.063c0 .177-.175.31-.307.31l-9.553-.044ZM56.264 9.497c-2.76.71-4.645 1.24-7.361 1.95-.658.177-.701.221-1.271-.443-.657-.753-1.14-1.24-2.06-1.684-2.76-1.374-5.433-.975-7.931.665-2.98 1.95-4.513 4.83-4.47 8.418.044 3.545 2.454 6.47 5.916 6.957 2.98.399 5.477-.665 7.45-2.925.394-.487.744-1.019 1.182-1.639h-8.457c-.92 0-1.139-.576-.832-1.33.57-1.373 1.621-3.677 2.235-4.829.131-.266.438-.709 1.095-.709h15.95c-.087 1.196-.087 2.393-.263 3.59-.482 3.19-1.665 6.114-3.593 8.684-3.155 4.209-7.274 6.823-12.488 7.532-4.295.576-8.282-.266-11.788-2.924-3.242-2.482-5.083-5.76-5.565-9.837-.57-4.83.833-9.172 3.725-12.982 3.111-4.12 7.23-6.735 12.27-7.666C44.125-.428 48.07.06 51.618 2.496c2.323 1.551 3.988 3.678 5.084 6.248.262.399.087.62-.439.753Z" fill="#00ACD7"/><path d="M70.769 34c-3.988-.088-7.625-1.24-10.692-3.898-2.586-2.26-4.207-5.14-4.733-8.552-.789-5.007.57-9.438 3.55-13.381 3.198-4.254 7.054-6.47 12.269-7.4 4.47-.797 8.676-.354 12.489 2.26 3.461 2.393 5.608 5.627 6.178 9.88.745 5.983-.964 10.856-5.04 15.021-2.891 2.97-6.44 4.83-10.516 5.672-1.183.222-2.366.266-3.505.399Zm10.429-17.9c-.044-.576-.044-1.019-.132-1.462-.788-4.387-4.776-6.868-8.939-5.893-4.075.93-6.704 3.545-7.668 7.71-.79 3.456.876 6.956 4.031 8.374 2.41 1.063 4.82.93 7.143-.266 3.461-1.817 5.346-4.652 5.565-8.463Z" fill="#00ACD7"/></svg><svg fill="none" viewBox="0 0 50 51" id="html" xmlns="http://www.w3.org/2000/svg"><path d="M3.005 1.666 6.27 43.454a1.545 1.545 0 0 0 1.074 1.353l17.188 5.449c.304.096.63.096.934 0l17.188-5.45c.6-.19 1.025-.725 1.074-1.352l3.266-41.788A1.546 1.546 0 0 0 45.455 0H4.544c-.9 0-1.61.768-1.54 1.666Zm35.614 12.965H17.33l.642 5.925h20.183l-1.32 16.89L25 41.196l-11.835-3.752-.69-8.824h6.212v4.329l6.48 1.738 6.44-1.739.499-6.897H12.274L10.957 9.207h28.086l-.424 5.424Z" fill="#FC490B"/></svg><svg fill="none" viewBox="0 0 50 69" id="java" xmlns="http://www.w3.org/2000/svg"><path d="M16.06 51.686c-9.18 2.793 5.584 8.564 17.273 3.109-1.915-.81-3.286-1.747-3.286-1.747-5.214 1.075-7.632 1.16-12.363.571-3.906-.489-1.624-1.933-1.624-1.933Zm-1.987-5.372c-11.232 3.73 6.25 7.958 21.945 3.367-1.668-.588-2.729-1.664-2.729-1.664-7.67 1.477-12.104 1.43-17.717.85-4.341-.448-1.499-2.553-1.499-2.553Zm31.419 11.17s1.862 1.177-2.05 2.088c-7.44 1.728-30.965 2.25-37.5.068-2.35-.784 2.056-1.872 3.442-2.1 1.445-.24 2.27-.196 2.27-.196-2.612-1.411-16.886 2.773-7.25 3.971 26.28 3.27 47.904-1.472 41.088-3.83ZM17.74 38.267s-11.66 2.635-4.129 3.591c3.18.405 9.519.314 15.423-.157 4.825-.387 9.67-1.21 9.67-1.21s-1.701.693-2.932 1.492c-11.84 2.963-34.713 1.585-28.128-1.446 5.569-2.56 10.096-2.27 10.096-2.27Zm21.187 10.398c-.051.158-.223.335-.223.335 14.82-4.494 9.372-15.842 2.287-12.969-.622.255-.948.844-.948.844s.391-.183 1.27-.393c3.58-.861 8.711 5.53-2.386 12.183ZM17.24 66.279c12 .653 30.429-.363 30.865-5.193 0 0-.839 1.83-9.918 3.285-10.242 1.64-22.875 1.449-30.368.398 0 0 1.534 1.08 9.421 1.51Z" fill="#5382A1"/><path d="M29.282 33.848c-9.843-12.67 10.765-18.42 10.765-18.42-13.129 8.506-10.704 10.974-7.541 15.939 3.386 5.324-3.987 9.576-3.987 9.576s3.666-3.36.763-7.095ZM31.528 2s7.035 6.87-6.673 17.432c-10.993 8.474-2.507 13.305-.005 18.825-6.416-5.65-11.125-10.625-7.966-15.255C21.52 16.206 34.366 12.912 31.528 2Z" fill="#E76F00"/></svg><svg fill="none" viewBox="0 0 50 50" id="js" xmlns="http://www.w3.org/2000/svg"><path fill-rule="evenodd" clip-rule="evenodd" d="m3 0 3.684 44.829L25.166 50l17.938-5.171L47 .09 3 0Zm15.435 9.185h4.79v34.09L10.274 39.92v-8.302l4.435.706v3.71l3.726.706V9.185Zm21.645 0H26.82v19.907l8.21-1.184-.449 7.242-7.761 2.65v5.476l11.487-2.65.887-17.493h-7.312v-8.667h7.312l.887-5.281Z" fill="#FFDE25"/></svg><svg fill="none" viewBox="0 0 50 50" id="kotlin" xmlns="http://www.w3.org/2000/svg"><path d="M25.112.012 0 26.397v23.597l25.065-25.109L50 0 25.112.012Z" fill="url(#ja)"/><path d="m0 50 25.065-25.108L50 50H0Z" fill="url(#jb)"/><path d="M0 .012h25.112L0 26.396V.012Z" fill="url(#jc)"/><defs><linearGradient id="ja" x1="-8.416" y1="45.972" x2="38.103" y2="-.552" gradientUnits="userSpaceOnUse"><stop offset=".108" stop-color="#C757BC"/><stop offset=".173" stop-color="#CD5CA9"/><stop offset=".492" stop-color="#E8744F"/><stop offset=".716" stop-color="#F88316"/><stop offset=".823" stop-color="#FF8900"/></linearGradient><linearGradient id="jb" x1="15.961" y1="59.021" x2="38.635" y2="36.344" gradientUnits="userSpaceOnUse"><stop offset=".296" stop-color="#00AFFF"/><stop offset=".694" stop-color="#5282FF"/><stop offset="1" stop-color="#945DFF"/></linearGradient><linearGradient id="jc" x1="-.594" y1="13.807" x2="15.306" y2="-2.101" gradientUnits="userSpaceOnUse"><stop offset=".296" stop-color="#00AFFF"/><stop offset=".694" stop-color="#5282FF"/><stop offset="1" stop-color="#945DFF"/></linearGradient></defs></svg><svg fill="none" viewBox="0 0 50 50" id="laravel" xmlns="http://www.w3.org/2000/svg"><path d="M48.973 11.179a.783.783 0 0 1 .027.202v10.606a.773.773 0 0 1-.389.671l-8.902 5.125v10.16a.775.775 0 0 1-.387.67L20.74 49.311c-.043.024-.09.04-.135.056-.018.006-.034.016-.053.021a.776.776 0 0 1-.396 0c-.021-.006-.04-.017-.061-.025-.043-.016-.087-.03-.128-.052L1.39 38.613a.774.774 0 0 1-.389-.67V6.122c0-.07.01-.137.027-.203.006-.022.02-.043.027-.065.015-.04.028-.082.05-.12.014-.025.035-.045.053-.068.022-.031.042-.063.068-.09.022-.023.051-.039.077-.058.028-.023.053-.049.085-.067l9.29-5.349a.776.776 0 0 1 .774 0l9.29 5.349h.002c.03.02.057.044.085.066.025.02.053.036.075.058.027.028.047.06.07.09.016.024.038.044.052.07.022.038.035.079.05.12.008.021.021.042.027.065a.783.783 0 0 1 .027.202v19.874l7.742-4.457V11.38c0-.068.01-.137.027-.201.006-.024.019-.044.027-.066.015-.04.029-.082.05-.12.014-.025.036-.045.052-.069.023-.03.043-.062.07-.09.022-.022.05-.038.075-.057.03-.024.054-.049.085-.067h.001L38.55 5.36a.774.774 0 0 1 .773 0l9.29 5.349c.033.02.058.043.087.066.025.019.053.036.075.058.027.028.046.06.07.09.017.024.038.044.052.07.022.037.034.078.05.119.009.022.021.043.027.066Zm-1.522 10.36v-8.82l-3.25 1.872-4.492 2.586v8.82l7.743-4.457Zm-9.29 15.956v-8.826l-4.417 2.523-12.616 7.2v8.909l17.033-9.806ZM2.55 7.462v30.033l17.03 9.805v-8.907l-8.897-5.036-.002-.002-.004-.001c-.03-.018-.056-.043-.084-.064-.024-.02-.052-.035-.073-.056l-.002-.003c-.025-.024-.042-.054-.064-.081-.02-.026-.042-.049-.058-.076v-.003c-.018-.029-.029-.063-.041-.096-.013-.03-.03-.056-.037-.087v-.001c-.01-.037-.012-.076-.015-.113-.004-.03-.012-.058-.012-.087V11.919L5.8 9.332l-3.251-1.87Zm8.516-5.795-7.74 4.456 7.738 4.455 7.74-4.456-7.74-4.455h.002Zm4.026 27.806 4.49-2.585V7.462L16.33 9.333l-4.491 2.586v19.427l3.252-1.873ZM38.935 6.925l-7.74 4.456 7.74 4.455 7.738-4.456-7.738-4.455Zm-.775 10.252-4.49-2.586-3.252-1.871v8.82l4.49 2.585 3.252 1.872v-8.82ZM20.353 37.053l11.352-6.48 5.674-3.239-7.733-4.453-8.904 5.127-8.116 4.672 7.727 4.373Z" fill="#FF2D20"/></svg><svg fill="none" viewBox="0 0 191 28" id="logo" xmlns="http://www.w3.org/2000/svg"><path d="M13.056 23a33.243 33.243 0 0 0-.6-1.776l-.624-1.824h-6.48a82.842 82.842 0 0 1-.648 1.824c-.208.608-.4 1.2-.576 1.776H.24a296.007 296.007 0 0 1 1.776-4.968c.56-1.52 1.104-2.952 1.632-4.296A221.682 221.682 0 0 1 5.232 9.92a91.287 91.287 0 0 1 1.632-3.552h3.576c.544 1.152 1.08 2.336 1.608 3.552.528 1.2 1.056 2.472 1.584 3.816a145.967 145.967 0 0 1 1.656 4.296c.56 1.52 1.152 3.176 1.776 4.968h-4.008ZM8.568 10.136c-.08.24-.2.568-.36.984l-.552 1.44c-.208.544-.44 1.144-.696 1.8-.24.656-.488 1.344-.744 2.064h4.728c-.256-.72-.504-1.408-.744-2.064a48.66 48.66 0 0 0-.696-1.8l-.552-1.44c-.16-.416-.288-.744-.384-.984ZM29.417 23a83.693 83.693 0 0 0-3.48-5.64 57.318 57.318 0 0 0-3.984-5.256V23h-3.696V6.368h3.048a29.325 29.325 0 0 1 1.752 1.944c.64.768 1.288 1.592 1.944 2.472a62.643 62.643 0 0 1 1.992 2.712c.656.928 1.272 1.824 1.848 2.688V6.368h3.72V23h-3.144Zm9.764-3.048c.177.016.377.032.6.048h.84c1.872 0 3.256-.472 4.152-1.416.912-.944 1.368-2.248 1.368-3.912 0-1.744-.431-3.064-1.295-3.96-.864-.896-2.232-1.344-4.104-1.344-.256 0-.52.008-.792.024-.273 0-.529.016-.769.048v10.512Zm10.825-5.28c0 1.44-.224 2.696-.672 3.768-.449 1.072-1.089 1.96-1.92 2.664-.817.704-1.817 1.232-3 1.584-1.184.352-2.513.528-3.985.528-.672 0-1.456-.032-2.352-.096a18.044 18.044 0 0 1-2.64-.336v-16.2c.864-.16 1.76-.264 2.689-.312a36.628 36.628 0 0 1 2.424-.096c1.424 0 2.712.16 3.864.48 1.167.32 2.167.824 3 1.512.831.688 1.471 1.568 1.92 2.64.447 1.072.671 2.36.671 3.864ZM52.172 23V6.368h11.232v3.144h-7.488v3.264h6.648v3.072h-6.648v4.008h8.04V23H52.173ZM70.639 6.176c2.496 0 4.409.448 5.737 1.344 1.328.88 1.992 2.256 1.992 4.128 0 1.168-.272 2.12-.816 2.856-.529.72-1.297 1.288-2.305 1.704.337.416.689.896 1.056 1.44.368.528.728 1.088 1.08 1.68.368.576.72 1.184 1.056 1.824.337.624.649 1.24.937 1.848h-4.2c-.305-.544-.617-1.096-.936-1.656a27.287 27.287 0 0 0-.96-1.632c-.32-.528-.64-1.024-.96-1.488-.32-.48-.64-.912-.96-1.296H69.51V23h-3.743V6.608c.816-.16 1.656-.272 2.52-.336.88-.064 1.663-.096 2.352-.096Zm.217 3.192c-.272 0-.52.008-.744.024l-.6.048v4.512h1.055c1.409 0 2.417-.176 3.025-.528.608-.352.912-.952.912-1.8 0-.816-.313-1.392-.937-1.728-.607-.352-1.511-.528-2.711-.528Zm19.3 10.776c.529 0 .96-.04 1.297-.12.352-.096.632-.216.84-.36.208-.16.352-.344.432-.552.08-.208.12-.44.12-.696 0-.544-.256-.992-.768-1.344-.512-.368-1.392-.76-2.64-1.176a23.045 23.045 0 0 1-1.632-.648 6.534 6.534 0 0 1-1.464-.936 4.678 4.678 0 0 1-1.056-1.368c-.272-.544-.408-1.2-.408-1.968s.144-1.456.432-2.064a4.404 4.404 0 0 1 1.224-1.584c.528-.432 1.168-.76 1.92-.984.752-.24 1.6-.36 2.544-.36 1.12 0 2.088.12 2.904.36.816.24 1.488.504 2.016.792l-1.08 2.952a9.322 9.322 0 0 0-1.56-.624c-.56-.192-1.24-.288-2.04-.288-.896 0-1.544.128-1.944.384-.384.24-.576.616-.576 1.128 0 .304.072.56.216.768.144.208.344.4.6.576.272.16.576.312.912.456.352.128.736.264 1.152.408.864.32 1.616.64 2.256.96.64.304 1.168.664 1.584 1.08.432.416.752.904.96 1.464.208.56.312 1.24.312 2.04 0 1.552-.544 2.76-1.632 3.624-1.088.848-2.728 1.272-4.92 1.272-.736 0-1.4-.048-1.992-.144-.592-.08-1.12-.184-1.584-.312a9.939 9.939 0 0 1-1.176-.408 9.642 9.642 0 0 1-.816-.408l1.056-2.976c.496.272 1.104.52 1.824.744.736.208 1.632.312 2.688.312ZM98.63 23V6.368h11.232v3.144h-7.488v3.264h6.648v3.072h-6.648v4.008h8.04V23H98.63Zm18.466-16.824c2.496 0 4.408.448 5.736 1.344 1.328.88 1.992 2.256 1.992 4.128 0 1.168-.272 2.12-.816 2.856-.528.72-1.296 1.288-2.304 1.704.336.416.688.896 1.056 1.44.368.528.728 1.088 1.08 1.68.368.576.72 1.184 1.056 1.824.336.624.648 1.24.936 1.848h-4.2c-.304-.544-.616-1.096-.936-1.656a27.287 27.287 0 0 0-.96-1.632c-.32-.528-.64-1.024-.96-1.488-.32-.48-.64-.912-.96-1.296h-1.848V23h-3.744V6.608c.816-.16 1.656-.272 2.52-.336.88-.064 1.664-.096 2.352-.096Zm.216 3.192c-.272 0-.52.008-.744.024l-.6.048v4.512h1.056c1.408 0 2.416-.176 3.024-.528.608-.352.912-.952.912-1.8 0-.816-.312-1.392-.936-1.728-.608-.352-1.512-.528-2.712-.528ZM131.865 23a125.076 125.076 0 0 1-1.944-4.344 164.427 164.427 0 0 1-1.824-4.464 232.847 232.847 0 0 1-1.608-4.224c-.48-1.344-.896-2.544-1.248-3.6h4.128c.32.96.664 2 1.032 3.12l1.152 3.312c.4 1.104.784 2.16 1.152 3.168.368 1.008.712 1.88 1.032 2.616.304-.736.64-1.608 1.008-2.616.384-1.008.768-2.064 1.152-3.168.4-1.104.784-2.208 1.152-3.312.384-1.12.736-2.16 1.056-3.12h3.984a501.444 501.444 0 0 1-1.272 3.6 150.848 150.848 0 0 1-1.584 4.224 164.427 164.427 0 0 1-1.824 4.464A125.076 125.076 0 0 1 135.465 23h-3.6Zm11.416-16.632h3.744V23h-3.744V6.368Zm14.218 16.968c-2.704 0-4.768-.752-6.192-2.256-1.408-1.504-2.112-3.64-2.112-6.408 0-1.376.216-2.6.648-3.672.432-1.088 1.024-2 1.776-2.736a7.347 7.347 0 0 1 2.688-1.704c1.04-.384 2.168-.576 3.384-.576.704 0 1.344.056 1.92.168.576.096 1.08.216 1.512.36.432.128.792.264 1.08.408.288.144.496.256.624.336l-1.08 3.024a8.992 8.992 0 0 0-1.8-.696c-.672-.192-1.44-.288-2.304-.288-.576 0-1.144.096-1.704.288a3.882 3.882 0 0 0-1.464.936c-.416.416-.752.96-1.008 1.632-.256.672-.384 1.488-.384 2.448 0 .768.08 1.488.24 2.16.176.656.448 1.224.816 1.704.384.48.88.864 1.488 1.152.608.272 1.344.408 2.208.408.544 0 1.032-.032 1.464-.096.432-.064.816-.136 1.152-.216.336-.096.632-.2.888-.312.256-.112.488-.216.696-.312l1.032 3c-.528.32-1.272.608-2.232.864-.96.256-2.072.384-3.336.384Zm7.018-.336V6.368h11.232v3.144h-7.488v3.264h6.648v3.072h-6.648v4.008h8.04V23h-11.784Zm18.131-2.856c.528 0 .96-.04 1.296-.12.352-.096.632-.216.84-.36.208-.16.352-.344.432-.552.08-.208.12-.44.12-.696 0-.544-.256-.992-.768-1.344-.512-.368-1.392-.76-2.64-1.176a23.045 23.045 0 0 1-1.632-.648 6.534 6.534 0 0 1-1.464-.936 4.678 4.678 0 0 1-1.056-1.368c-.272-.544-.408-1.2-.408-1.968s.144-1.456.432-2.064a4.404 4.404 0 0 1 1.224-1.584c.528-.432 1.168-.76 1.92-.984.752-.24 1.6-.36 2.544-.36 1.12 0 2.088.12 2.904.36.816.24 1.488.504 2.016.792l-1.08 2.952a9.322 9.322 0 0 0-1.56-.624c-.56-.192-1.24-.288-2.04-.288-.896 0-1.544.128-1.944.384-.384.24-.576.616-.576 1.128 0 .304.072.56.216.768.144.208.344.4.6.576.272.16.576.312.912.456.352.128.736.264 1.152.408.864.32 1.616.64 2.256.96.64.304 1.168.664 1.584 1.08.432.416.752.904.96 1.464.208.56.312 1.24.312 2.04 0 1.552-.544 2.76-1.632 3.624-1.088.848-2.728 1.272-4.92 1.272-.736 0-1.4-.048-1.992-.144-.592-.08-1.12-.184-1.584-.312a9.939 9.939 0 0 1-1.176-.408 9.642 9.642 0 0 1-.816-.408l1.056-2.976c.496.272 1.104.52 1.824.744.736.208 1.632.312 2.688.312Z" fill="#fff"/></svg><svg fill="none" viewBox="0 0 50 50" id="mysql" xmlns="http://www.w3.org/2000/svg"><path fill-rule="evenodd" clip-rule="evenodd" d="M46.055 38.9c-2.72-.076-4.83.203-6.598.95-.51.206-1.327.206-1.394.85.272.27.305.712.544 1.086.408.68 1.123 1.594 1.768 2.07l2.177 1.561c1.326.814 2.822 1.29 4.114 2.104.75.476 1.497 1.087 2.245 1.596.382.272.613.714 1.089.883v-.103c-.238-.304-.306-.745-.544-1.086l-1.021-.984c-.986-1.323-2.21-2.478-3.537-3.428-1.089-.747-3.469-1.765-3.91-3.02l-.068-.076c.747-.076 1.632-.34 2.347-.544 1.157-.304 2.21-.237 3.4-.542l1.633-.476v-.304c-.612-.611-1.054-1.426-1.7-2.003-1.734-1.493-3.64-2.953-5.613-4.175-1.054-.678-2.415-1.12-3.537-1.696-.409-.204-1.088-.306-1.326-.645-.614-.746-.953-1.731-1.395-2.614l-2.788-5.906c-.613-1.324-.988-2.648-1.735-3.87-3.503-5.77-7.313-9.266-13.163-12.695-1.258-.712-2.754-1.019-4.345-1.392l-2.55-.137c-.546-.237-1.09-.882-1.566-1.188-1.938-1.222-6.938-3.87-8.367-.38-.919 2.206 1.36 4.378 2.134 5.498.58.781 1.326 1.663 1.736 2.546.229.577.305 1.188.543 1.8.544 1.493 1.055 3.156 1.769 4.549.381.712.781 1.46 1.258 2.105.272.38.748.543.85 1.154-.477.68-.51 1.696-.782 2.546-1.225 3.836-.748 8.588.986 11.412.545.848 1.83 2.716 3.572 2.002 1.53-.61 1.19-2.546 1.631-4.243.103-.407.035-.678.238-.95v.075l1.395 2.817c1.054 1.663 2.891 3.395 4.421 4.55.816.61 1.462 1.664 2.482 2.036v-.102h-.067c-.204-.305-.51-.442-.782-.679-.613-.61-1.293-1.358-1.769-2.036-1.428-1.9-2.686-4.006-3.808-6.178-.545-1.052-1.022-2.206-1.462-3.258-.206-.408-.206-1.02-.546-1.222-.51.745-1.257 1.392-1.633 2.308-.647 1.46-.714 3.258-.951 5.125-.138.035-.077 0-.138.076-1.087-.27-1.462-1.392-1.87-2.341-1.02-2.41-1.19-6.28-.306-9.063.238-.713 1.26-2.954.851-3.632-.205-.645-.884-1.018-1.259-1.528-.442-.645-.917-1.459-1.223-2.172-.816-1.902-1.224-4.005-2.109-5.906-.41-.883-1.123-1.8-1.701-2.614-.647-.916-1.36-1.562-1.87-2.647-.17-.38-.408-.985-.136-1.392.067-.272.204-.38.475-.442.442-.38 1.701.102 2.144.305 1.257.51 2.312.984 3.366 1.696.476.34.987.985 1.6 1.155h.714c1.089.237 2.312.076 3.331.38 1.803.579 3.435 1.426 4.899 2.344 4.455 2.817 8.129 6.822 10.611 11.609.408.78.578 1.493.953 2.308.715 1.664 1.6 3.36 2.312 4.99.715 1.596 1.395 3.226 2.415 4.55.51.713 2.55 1.086 3.468 1.46.681.304 1.734.578 2.348.95 1.156.713 2.312 1.528 3.4 2.309.544.406 2.245 1.255 2.346 1.932l.004-.018ZM11.371 9.403a5.415 5.415 0 0 0-1.394.17v.076h.067c.273.543.749.916 1.089 1.392l.783 1.63.067-.077c.476-.339.715-.882.715-1.696-.204-.237-.238-.476-.408-.713-.204-.34-.646-.51-.92-.78v-.002Z" fill="#00678C"/></svg><svg fill="none" viewBox="0 0 50 50" id="node" xmlns="http://www.w3.org/2000/svg"><path d="M25.38 50c-.68 0-1.355-.176-1.95-.514l-6.206-3.62c-.927-.512-.475-.693-.169-.797 1.236-.426 1.487-.522 2.806-1.26.139-.079.32-.051.462.031l4.767 2.789a.637.637 0 0 0 .576 0l18.59-10.576a.576.576 0 0 0 .283-.495V14.416a.587.587 0 0 0-.287-.505L25.67 3.344a.58.58 0 0 0-.572 0L6.52 13.911a.582.582 0 0 0-.295.5v21.142c0 .202.112.395.289.49l5.09 2.9c2.764 1.361 4.454-.244 4.454-1.858V16.218c0-.298.237-.528.54-.528h2.354c.293 0 .535.23.535.528v20.876c0 3.632-2.01 5.719-5.505 5.719-1.075 0-1.921 0-4.285-1.147l-4.877-2.77a3.864 3.864 0 0 1-1.95-3.343V14.411a3.84 3.84 0 0 1 1.95-3.339L23.428.492c1.177-.656 2.74-.656 3.909 0L45.92 11.077a3.855 3.855 0 0 1 1.95 3.338v21.143c0 1.371-.75 2.65-1.95 3.338l-18.584 10.58a3.95 3.95 0 0 1-1.96.514" fill="#689F63"/><path d="M31.121 35.431c-8.133 0-9.839-3.68-9.839-6.766a.53.53 0 0 1 .539-.528h2.4c.266 0 .49.19.531.449.363 2.411 1.443 3.628 6.36 3.628 3.919 0 5.585-.873 5.585-2.92 0-1.18-.475-2.055-6.561-2.642-5.09-.495-8.236-1.6-8.236-5.614 0-3.696 3.164-5.897 8.464-5.897 5.951 0 8.901 2.036 9.273 6.411a.53.53 0 0 1-.144.408.558.558 0 0 1-.395.17h-2.415a.532.532 0 0 1-.522-.413c-.581-2.536-1.986-3.348-5.806-3.348-4.277 0-4.775 1.468-4.775 2.569 0 1.334.587 1.724 6.357 2.476 5.713.748 8.426 1.802 8.426 5.76 0 3.99-3.378 6.279-9.269 6.279" fill="#689F63"/></svg><svg fill="none" viewBox="0 0 70 40" id="php" xmlns="http://www.w3.org/2000/svg"><path d="M14 13.383a4.944 4.944 0 0 1 2.302.2c.749.249 1.45.672 2.06 1.247.395.728.647 1.554.736 2.415.09.861.015 1.735-.218 2.557-.204 2.023-1.021 3.886-2.295 5.236-1.536 1.186-3.352 1.742-5.175 1.584h-3.5l2.15-13.212 3.94-.027ZM0 40h5.75l1.363-8.387h4.917c1.812.055 3.62-.225 5.36-.83 1.43-.565 2.736-1.505 3.825-2.75 1.884-2.029 3.153-4.749 3.61-7.734.36-1.485.424-3.052.186-4.573-.24-1.52-.774-2.952-1.56-4.18-.95-1.126-2.092-1.99-3.349-2.533a7.78 7.78 0 0 0-3.927-.608H5.143L0 40ZM29.043 0h5.707l-1.382 8.387h5.077c2.333-.293 4.676.418 6.613 2.004.64.872 1.078 1.931 1.27 3.07a7.886 7.886 0 0 1-.18 3.42l-2.385 14.705h-5.775l2.27-13.98a4.5 4.5 0 0 0 .165-1.664 4.319 4.319 0 0 0-.45-1.588c-.828-.712-1.85-1.018-2.86-.857h-4.558l-2.937 18.104h-5.72L29.043 0ZM58.848 13.382a4.945 4.945 0 0 1 2.302.2c.748.249 1.449.673 2.06 1.247.395.728.646 1.554.736 2.415.09.861.015 1.736-.218 2.557-.205 2.023-1.021 3.886-2.295 5.236-1.54 1.189-3.36 1.745-5.185 1.585H52.75l2.145-13.228 3.953-.012ZM44.848 40h5.75l1.362-8.387h4.92a14.9 14.9 0 0 0 5.37-.83c1.43-.565 2.736-1.504 3.825-2.75 1.879-2.03 3.144-4.75 3.598-7.733.36-1.486.424-3.053.185-4.573-.239-1.521-.773-2.953-1.56-4.18-.95-1.124-2.092-1.987-3.348-2.528a7.78 7.78 0 0 0-3.925-.605h-11.05L44.848 40Z" fill="#00A6FB"/></svg><svg fill="none" viewBox="0 0 50 52" id="psql" xmlns="http://www.w3.org/2000/svg"><path d="M47.434 31.915c-6.115 1.267-6.536-.813-6.536-.813 6.457-9.623 9.156-21.84 6.826-24.83-6.353-8.155-17.353-4.298-17.536-4.198l-.06.01c-1.207-.251-2.56-.401-4.08-.426-2.766-.046-4.865.729-6.457 1.942 0 0-19.622-8.12-18.71 10.212.195 3.9 5.565 29.511 11.971 21.776a118.708 118.708 0 0 1 4.604-5.22c1.123.75 2.468 1.132 3.878.994l.11-.093c-.034.351-.019.695.044 1.101-1.65 1.852-1.165 2.178-4.464 2.86-3.338.69-1.378 1.921-.097 2.243 1.552.39 5.143.942 7.57-2.47l-.098.39c.647.52 1.1 3.383 1.025 5.98-.076 2.595-.127 4.378.382 5.77.51 1.392 1.018 4.524 5.354 3.59 3.624-.78 5.502-2.8 5.763-6.173.185-2.397.605-2.043.631-4.186l.337-1.015c.388-3.25.062-4.298 2.294-3.81l.542.048c1.644.075 3.794-.266 5.056-.855 2.718-1.267 4.33-3.383 1.65-2.827Z" fill="#336791"/><path d="M24.759 33.777c-.169 6.047.042 12.136.631 13.616.59 1.48 1.85 4.358 6.188 3.425 3.623-.78 4.941-2.29 5.513-5.624.422-2.452 1.234-9.263 1.338-10.659M19.56 3.464S-.073-4.597.839 13.736c.195 3.9 5.565 29.511 11.971 21.775 2.34-2.829 4.458-5.048 4.458-5.048M30.166 1.993c-.68.214 10.922-4.26 17.516 4.203 2.329 2.99-.37 15.206-6.827 24.83" stroke="#fff" stroke-linecap="round" stroke-linejoin="round"/><path d="M40.856 31.026s.421 2.08 6.536.813c2.68-.556 1.067 1.56-1.65 2.827-2.23 1.04-7.23 1.306-7.312-.13-.21-3.707 2.632-2.581 2.426-3.51-.185-.837-1.456-1.657-2.296-3.705-.734-1.787-10.065-15.49 2.587-13.455.464-.096-3.3-12.09-15.14-12.285-11.84-.195-11.45 14.625-11.45 14.625" stroke="#fff" stroke-linecap="round" stroke-linejoin="bevel"/><path d="M21.445 32.294c-1.65 1.852-1.165 2.177-4.464 2.86-3.338.69-1.377 1.92-.097 2.242 1.552.39 5.143.942 7.569-2.47.739-1.04-.005-2.698-1.02-3.12-.49-.204-1.145-.46-1.988.488v0Z" stroke="#fff" stroke-linecap="round" stroke-linejoin="round"/><path d="M21.337 32.26c-.167-1.088.356-2.384.916-3.9.841-2.274 2.783-4.55 1.23-11.765-1.158-5.376-8.923-1.119-8.928-.39-.004.73.352 3.696-.13 7.15-.627 4.508 2.856 8.32 6.866 7.93" stroke="#fff" stroke-linecap="round" stroke-linejoin="round"/><path d="M19.49 16.096c-.036.25.453.914 1.09 1.003.637.089 1.181-.43 1.216-.68.034-.248-.454-.522-1.092-.612-.636-.089-1.181.041-1.215.29ZM38.87 15.59c.034.249-.454.913-1.092 1.002-.637.089-1.181-.43-1.216-.679-.034-.249.455-.523 1.092-.612.636-.09 1.18.04 1.215.289Z" fill="#fff" stroke="#fff"/><path d="M41.147 13.865c.105 1.953-.42 3.284-.485 5.363-.098 3.022 1.434 6.481-.874 9.945" stroke="#fff" stroke-linecap="round" stroke-linejoin="round"/></svg><svg fill="none" viewBox="0 0 50 50" id="python" xmlns="http://www.w3.org/2000/svg"><path d="M19.648 0A7.146 7.146 0 0 0 12.5 7.15v4.199h10.723c.975 0 1.777 1.427 1.777 2.402H7.148A7.146 7.146 0 0 0 0 20.9v9.453A7.146 7.146 0 0 0 7.148 37.5h2.95v-6.7c0-3.95 3.179-7.148 7.129-7.148h13.125c3.95 0 7.148-3.179 7.148-7.129V7.148A7.146 7.146 0 0 0 30.352 0H19.648Zm-1.797 4.024c1 0 1.797.302 1.797 1.777 0 1.475-.797 2.226-1.797 2.226-.975 0-1.777-.751-1.777-2.226s.802-1.777 1.777-1.777Z" fill="#3C78AA"/><path d="M39.898 12.5v6.7c0 3.95-3.175 7.148-7.125 7.148H19.648c-3.95 0-7.148 3.174-7.148 7.124v9.375A7.15 7.15 0 0 0 19.648 50h10.704a7.15 7.15 0 0 0 7.148-7.153v-4.2H26.773c-.976 0-1.773-1.422-1.773-2.397h17.852A7.15 7.15 0 0 0 50 29.097v-9.449a7.15 7.15 0 0 0-7.148-7.148h-2.954ZM15.8 23.784l-.01.01c.03-.006.063-.004.093-.01H15.8Zm16.347 18.189c.975 0 1.778.751 1.778 2.226a1.775 1.775 0 0 1-1.778 1.773c-1 0-1.796-.298-1.796-1.773 0-1.475.796-2.226 1.796-2.226Z" fill="#FDD835"/></svg><svg fill="none" viewBox="0 0 50 50" id="ruby" xmlns="http://www.w3.org/2000/svg"><path fill-rule="evenodd" clip-rule="evenodd" d="M38.737 33.001 10.19 50l36.963-2.515L50 10.11 38.737 33.001Z" fill="url(#ra)"/><path fill-rule="evenodd" clip-rule="evenodd" d="m47.214 47.46-3.177-21.99-8.654 11.46 11.83 10.53Z" fill="url(#rb)"/><path fill-rule="evenodd" clip-rule="evenodd" d="m47.257 47.46-23.275-1.833-13.668 4.325 36.943-2.493Z" fill="url(#rc)"/><path fill-rule="evenodd" clip-rule="evenodd" d="m10.347 49.957 5.814-19.102L3.367 33.6l6.98 16.358Z" fill="url(#rd)"/><path fill-rule="evenodd" clip-rule="evenodd" d="m35.38 36.993-5.35-21.015L14.72 30.37l20.66 6.623Z" fill="url(#re)"/><path fill-rule="evenodd" clip-rule="evenodd" d="M48.786 16.274 34.313 4.421l-4.03 13.066 18.503-1.213Z" fill="url(#rf)"/><path fill-rule="evenodd" clip-rule="evenodd" d="m42.018.195-8.512 4.717-5.37-4.78 13.882.063Z" fill="url(#rg)"/><path fill-rule="evenodd" clip-rule="evenodd" d="m0 40.007 3.566-6.521-2.885-7.77L0 40.008Z" fill="url(#rh)"/><path fill-rule="evenodd" clip-rule="evenodd" d="m.49 25.47 2.902 8.256 12.61-2.837L30.4 17.47 34.462 4.53 28.065 0 17.188 4.082c-3.427 3.196-10.076 9.52-10.316 9.639-.237.121-4.391 7.994-6.382 11.75Z" fill="#fff"/><path fill-rule="evenodd" clip-rule="evenodd" d="M10.68 10.642c7.427-7.385 17.001-11.748 20.675-8.03 3.673 3.717-.221 12.752-7.649 20.133C16.28 30.127 6.824 34.73 3.152 31.014c-3.675-3.715.1-12.99 7.528-20.372Z" fill="url(#ri)"/><path fill-rule="evenodd" clip-rule="evenodd" d="m10.347 49.949 5.769-19.162 19.159 6.172c-6.927 6.514-14.632 12.02-24.928 12.99Z" fill="url(#rj)"/><path fill-rule="evenodd" clip-rule="evenodd" d="m30.424 17.433 4.919 19.536c5.786-6.101 10.98-12.66 13.523-20.774l-18.442 1.238Z" fill="url(#rk)"/><path fill-rule="evenodd" clip-rule="evenodd" d="M48.816 16.295c1.969-5.957 2.423-14.503-6.859-16.09l-7.616 4.219 14.475 11.87Z" fill="url(#rl)"/><path fill-rule="evenodd" clip-rule="evenodd" d="M0 39.921c.273 9.832 7.346 9.978 10.36 10.065l-6.96-16.3L0 39.92Z" fill="#9E1209"/><path fill-rule="evenodd" clip-rule="evenodd" d="M30.452 17.465c4.447 2.74 13.408 8.244 13.59 8.346.282.159 3.864-6.056 4.676-9.569l-18.266 1.223Z" fill="url(#rm)"/><path fill-rule="evenodd" clip-rule="evenodd" d="m16.108 30.787 7.712 14.92c4.56-2.48 8.131-5.5 11.402-8.738l-19.114-6.182Z" fill="url(#rn)"/><path fill-rule="evenodd" clip-rule="evenodd" d="M3.37 33.705 2.275 46.753c2.062 2.825 4.899 3.07 7.874 2.85-2.153-5.373-6.453-16.115-6.78-15.898Z" fill="url(#ro)"/><path fill-rule="evenodd" clip-rule="evenodd" d="m34.296 4.457 15.32 2.156C48.8 3.138 46.289.896 42.009.195l-7.712 4.262Z" fill="url(#rp)"/><defs><linearGradient id="ra" x1="43.929" y1="54.547" x2="33.337" y2="35.897" gradientUnits="userSpaceOnUse"><stop stop-color="#FB7655"/><stop offset=".41" stop-color="#E42B1E"/><stop offset=".99" stop-color="#900"/><stop offset="1" stop-color="#900"/></linearGradient><linearGradient id="rb" x1="49.184" y1="38.86" x2="35.566" y2="29.747" gradientUnits="userSpaceOnUse"><stop stop-color="#871101"/><stop offset=".99" stop-color="#911209"/><stop offset="1" stop-color="#911209"/></linearGradient><linearGradient id="rc" x1="38.307" y1="55.113" x2="24.69" y2="46.001" gradientUnits="userSpaceOnUse"><stop stop-color="#871101"/><stop offset=".99" stop-color="#911209"/><stop offset="1" stop-color="#911209"/></linearGradient><linearGradient id="rd" x1="9.766" y1="32.237" x2="11.884" y2="45.969" gradientUnits="userSpaceOnUse"><stop stop-color="#fff"/><stop offset=".23" stop-color="#E57252"/><stop offset=".46" stop-color="#DE3B20"/><stop offset=".99" stop-color="#A60003"/><stop offset="1" stop-color="#A60003"/></linearGradient><linearGradient id="re" x1="24.26" y1="19.414" x2="25.041" y2="33.43" gradientUnits="userSpaceOnUse"><stop stop-color="#fff"/><stop offset=".23" stop-color="#E4714E"/><stop offset=".56" stop-color="#BE1A0D"/><stop offset=".99" stop-color="#A80D00"/><stop offset="1" stop-color="#A80D00"/></linearGradient><linearGradient id="rf" x1="37.123" y1="6.458" x2="39.46" y2="16.501" gradientUnits="userSpaceOnUse"><stop stop-color="#fff"/><stop offset=".18" stop-color="#E46342"/><stop offset=".4" stop-color="#C82410"/><stop offset=".99" stop-color="#A80D00"/><stop offset="1" stop-color="#A80D00"/></linearGradient><linearGradient id="rg" x1="30.025" y1="2.921" x2="40.053" y2="-2.079" gradientUnits="userSpaceOnUse"><stop stop-color="#fff"/><stop offset=".54" stop-color="#C81F11"/><stop offset=".99" stop-color="#BF0905"/><stop offset="1" stop-color="#BF0905"/></linearGradient><linearGradient id="rh" x1=".985" y1="28.737" x2="1.814" y2="37.014" gradientUnits="userSpaceOnUse"><stop stop-color="#fff"/><stop offset=".31" stop-color="#DE4024"/><stop offset=".99" stop-color="#BF190B"/><stop offset="1" stop-color="#BF190B"/></linearGradient><linearGradient id="ri" x1="-4.683" y1="39.251" x2="34.183" y2="-.603" gradientUnits="userSpaceOnUse"><stop stop-color="#BD0012"/><stop offset=".07" stop-color="#fff"/><stop offset=".17" stop-color="#fff"/><stop offset=".27" stop-color="#C82F1C"/><stop offset=".33" stop-color="#820C01"/><stop offset=".46" stop-color="#A31601"/><stop offset=".72" stop-color="#B31301"/><stop offset=".99" stop-color="#E82609"/><stop offset="1" stop-color="#E82609"/></linearGradient><linearGradient id="rj" x1="25.002" y1="43.282" x2="13.325" y2="40.408" gradientUnits="userSpaceOnUse"><stop stop-color="#8C0C01"/><stop offset=".54" stop-color="#990C00"/><stop offset=".99" stop-color="#A80D0E"/><stop offset="1" stop-color="#A80D0E"/></linearGradient><linearGradient id="rk" x1="45.053" y1="29.232" x2="34.657" y2="19.94" gradientUnits="userSpaceOnUse"><stop stop-color="#7E110B"/><stop offset=".99" stop-color="#9E0C00"/><stop offset="1" stop-color="#9E0C00"/></linearGradient><linearGradient id="rl" x1="48.863" y1="12.131" x2="43.682" y2="6.608" gradientUnits="userSpaceOnUse"><stop stop-color="#79130D"/><stop offset=".99" stop-color="#9E120B"/><stop offset="1" stop-color="#9E120B"/></linearGradient><linearGradient id="ro" x1="6.73" y1="49.938" x2="2.499" y2="35.623" gradientUnits="userSpaceOnUse"><stop stop-color="#8B2114"/><stop offset=".43" stop-color="#9E100A"/><stop offset=".99" stop-color="#B3100C"/><stop offset="1" stop-color="#B3100C"/></linearGradient><linearGradient id="rp" x1="39.025" y1="2.48" x2="48.472" y2="6.638" gradientUnits="userSpaceOnUse"><stop stop-color="#B31000"/><stop offset=".44" stop-color="#910F08"/><stop offset=".99" stop-color="#791C12"/><stop offset="1" stop-color="#791C12"/></linearGradient><radialGradient id="rm" cx="0" cy="0" r="1" gradientUnits="userSpaceOnUse" gradientTransform="matrix(12.7082 0 0 12.7436 36.297 20.09)"><stop stop-color="#A80D00"/><stop offset=".99" stop-color="#7E0E08"/><stop offset="1" stop-color="#7E0E08"/></radialGradient><radialGradient id="rn" cx="0" cy="0" r="1" gradientUnits="userSpaceOnUse" gradientTransform="matrix(16.8939 0 0 16.9409 18.698 36.884)"><stop stop-color="#A30C00"/><stop offset=".99" stop-color="#800E08"/><stop offset="1" stop-color="#800E08"/></radialGradient></defs></svg><svg fill="none" viewBox="0 0 50 50" id="rust" xmlns="http://www.w3.org/2000/svg"><path d="m49.692 24.404-2.098-1.302c-.013-.206-.04-.412-.055-.618l1.81-1.686a.757.757 0 0 0 .22-.672.72.72 0 0 0-.452-.535l-2.303-.863c-.055-.206-.123-.398-.178-.59l1.44-2.001a.714.714 0 0 0 .082-.7.718.718 0 0 0-.548-.438l-2.44-.398c-.096-.178-.193-.37-.289-.548l1.029-2.248a.709.709 0 0 0-.055-.7.705.705 0 0 0-.63-.315l-2.469.082c-.123-.164-.26-.316-.383-.48l.562-2.398a.715.715 0 0 0-.192-.672.727.727 0 0 0-.672-.193l-2.399.563a6.537 6.537 0 0 0-.48-.384l.083-2.468a.722.722 0 0 0-.316-.631.712.712 0 0 0-.699-.055l-2.248 1.029c-.178-.096-.356-.193-.548-.289l-.438-2.44a.718.718 0 0 0-.439-.548.714.714 0 0 0-.699.082l-2.001 1.44c-.192-.069-.398-.124-.59-.178L30.434.946A.693.693 0 0 0 29.9.494a.698.698 0 0 0-.672.22l-1.687 1.81a9.395 9.395 0 0 0-.617-.055L25.635.343A.722.722 0 0 0 25.018 0a.723.723 0 0 0-.617.343L23.099 2.44c-.206.014-.411.04-.617.055L20.796.686a.756.756 0 0 0-.672-.22.72.72 0 0 0-.534.452l-.863 2.303c-.206.055-.398.123-.59.178l-1.988-1.412a.714.714 0 0 0-.699-.082.718.718 0 0 0-.438.548l-.399 2.441c-.177.096-.37.193-.547.289l-2.249-1.029a.709.709 0 0 0-.699.055.705.705 0 0 0-.315.63l.082 2.469c-.164.123-.316.26-.48.384l-2.398-.563a.705.705 0 0 0-.672.193.727.727 0 0 0-.192.672l.562 2.399c-.137.15-.26.315-.384.479l-2.468-.082a.722.722 0 0 0-.63.316.712.712 0 0 0-.055.699l1.028 2.248c-.095.178-.192.357-.288.548l-2.454.411a.718.718 0 0 0-.548.439.714.714 0 0 0 .082.7l1.44 2c-.069.193-.123.398-.178.59l-2.303.864a.693.693 0 0 0-.452.534.699.699 0 0 0 .22.672l1.81 1.687a9.404 9.404 0 0 0-.055.617L.344 24.404A.722.722 0 0 0 0 25.02c0 .247.123.48.343.617L2.44 26.94c.014.206.041.412.055.618l-1.81 1.685a.757.757 0 0 0-.22.672.72.72 0 0 0 .453.535l2.303.863c.054.206.123.398.177.59l-1.412 1.988a.714.714 0 0 0-.082.7.718.718 0 0 0 .548.438l2.427.397c.096.178.192.37.288.548L4.14 38.222a.71.71 0 0 0 .054.7.72.72 0 0 0 .631.315l2.468-.082c.123.164.26.316.384.48l-.563 2.412a.715.715 0 0 0 .193.672.726.726 0 0 0 .671.193l2.399-.563c.15.137.315.261.48.384l-.083 2.468a.722.722 0 0 0 .316.631c.206.137.48.164.7.055l2.247-1.029c.178.096.357.193.548.289l.397 2.427a.718.718 0 0 0 .439.548.713.713 0 0 0 .7-.082l2.001-1.439c.193.068.398.123.59.178l.863 2.303a.693.693 0 0 0 .535.452.698.698 0 0 0 .671-.22l1.687-1.81c.206.028.411.041.617.055l1.302 2.098c.137.206.37.343.617.343s.48-.123.617-.343l1.302-2.098c.206-.014.411-.04.617-.055l1.687 1.81c.164.178.425.261.672.22a.72.72 0 0 0 .534-.452l.863-2.303c.206-.055.398-.123.59-.178l2.001 1.44c.206.15.466.177.7.082a.718.718 0 0 0 .438-.548l.397-2.427c.178-.096.37-.193.548-.289l2.248 1.029a.71.71 0 0 0 .7-.055.705.705 0 0 0 .315-.63l-.082-2.469c.164-.123.315-.26.48-.384l2.398.563a.705.705 0 0 0 .672-.193.727.727 0 0 0 .192-.672l-.563-2.412c.137-.15.261-.316.384-.48l2.468.082a.721.721 0 0 0 .631-.315.712.712 0 0 0 .055-.7l-1.029-2.248c.096-.178.193-.356.288-.548l2.44-.397a.718.718 0 0 0 .549-.439.714.714 0 0 0-.082-.7l-1.44-2c.069-.193.123-.398.178-.59l2.303-.864a.693.693 0 0 0 .452-.534.699.699 0 0 0-.22-.672l-1.81-1.687c.028-.206.042-.411.055-.617l2.098-1.302a.722.722 0 0 0 .343-.618c.042-.233-.081-.466-.301-.603ZM35.627 41.83a1.478 1.478 0 0 1-1.137-1.77 1.478 1.478 0 0 1 1.768-1.137c.809.178 1.317.96 1.138 1.769a1.47 1.47 0 0 1-1.769 1.138Zm-.713-4.826a1.359 1.359 0 0 0-1.603 1.042l-.74 3.482a18.252 18.252 0 0 1-7.553 1.631c-2.755 0-5.36-.604-7.704-1.7l-.74-3.483a1.358 1.358 0 0 0-1.604-1.042l-3.07.659a17.362 17.362 0 0 1-1.59-1.879h14.955c.164 0 .288-.027.288-.178v-5.291c0-.15-.11-.178-.288-.178h-4.373v-3.36h4.73c.424 0 2.302.124 2.906 2.524.192.74.603 3.139.877 3.907.288.863 1.425 2.577 2.645 2.577h7.444c.082 0 .177-.013.274-.027-.52.7-1.083 1.371-1.7 1.988l-3.154-.672Zm-20.67 4.757a1.49 1.49 0 0 1-1.77-1.138 1.49 1.49 0 0 1 1.138-1.768 1.49 1.49 0 0 1 1.769 1.137 1.472 1.472 0 0 1-1.138 1.77ZM8.567 18.77c.33.754 0 1.631-.754 1.96-.753.33-1.63 0-1.96-.754-.329-.754 0-1.631.754-1.96a1.47 1.47 0 0 1 1.96.754Zm-1.74 4.127 3.193-1.426c.686-.302.988-1.111.686-1.797l-.658-1.494h2.59v11.68H7.404a18.34 18.34 0 0 1-.699-5.017c.027-.643.055-1.302.123-1.946Zm14.05-1.138v-3.441h6.17c.315 0 2.247.37 2.247 1.81 0 1.206-1.48 1.63-2.7 1.63h-5.717Zm22.426 3.099c0 .452-.014.904-.055 1.358h-1.878c-.192 0-.26.123-.26.301v.864c0 2.029-1.138 2.468-2.153 2.577-.96.11-2.014-.397-2.138-.987-.563-3.167-1.508-3.839-2.989-5.017 1.837-1.166 3.756-2.894 3.756-5.197 0-2.495-1.714-4.058-2.865-4.826-1.63-1.083-3.44-1.288-3.935-1.288H11.392A18.25 18.25 0 0 1 21.63 6.87l2.29 2.4c.52.547 1.37.562 1.918.04l2.564-2.454a18.315 18.315 0 0 1 12.529 8.925l-1.755 3.963c-.302.685 0 1.48.686 1.796l3.372 1.494c.042.602.07 1.22.07 1.823ZM23.907 4.84a1.478 1.478 0 0 1 2.098.054c.563.59.548 1.536-.055 2.098a1.478 1.478 0 0 1-2.097-.054 1.503 1.503 0 0 1 .054-2.098Zm17.396 13.997a1.47 1.47 0 0 1 1.96-.754 1.482 1.482 0 0 1 .754 1.96c-.33.755-1.206 1.097-1.96.755a1.493 1.493 0 0 1-.754-1.96Z" fill="#000"/></svg><svg fill="none" viewBox="0 0 50 50" id="scala" xmlns="http://www.w3.org/2000/svg"><path d="M11 19.23s28 2.885 28 7.693V15.385s0-4.808-28-7.693v11.539Z" fill="url(#ta)"/><path d="M11 34.615s28 2.884 28 7.692V30.768s0-4.807-28-7.692v11.539Z" fill="url(#tb)"/><path d="M39 0v11.538s0 4.808-28 7.693V7.692S39 4.808 39 0Z" fill="url(#tc)"/><path d="M11 23.077s28-2.885 28-7.692v11.538s0 4.808-28 7.692V23.077Z" fill="url(#td)"/><path d="M11 50V38.462s28-2.885 28-7.693v11.539S39 47.116 11 50Z" fill="url(#te)"/><defs><linearGradient id="ta" x1="11.048" y1="17.24" x2="38.949" y2="17.24" gradientUnits="userSpaceOnUse"><stop stop-color="#656565"/><stop offset="1" stop-color="#010101"/></linearGradient><linearGradient id="tb" x1="11.048" y1="32.657" x2="38.949" y2="32.657" gradientUnits="userSpaceOnUse"><stop stop-color="#656565"/><stop offset="1" stop-color="#010101"/></linearGradient><linearGradient id="tc" x1="11.048" y1="9.625" x2="38.949" y2="9.625" gradientUnits="userSpaceOnUse"><stop stop-color="#9F1C20"/><stop offset="1" stop-color="#ED2224"/></linearGradient><linearGradient id="td" x1="11.048" y1="25.05" x2="38.949" y2="25.05" gradientUnits="userSpaceOnUse"><stop stop-color="#9F1C20"/><stop offset="1" stop-color="#ED2224"/></linearGradient><linearGradient id="te" x1="11.048" y1="40.469" x2="38.949" y2="40.469" gradientUnits="userSpaceOnUse"><stop stop-color="#9F1C20"/><stop offset="1" stop-color="#ED2224"/></linearGradient></defs></svg><svg fill="none" viewBox="0 0 50 51" id="sql" xmlns="http://www.w3.org/2000/svg"><path d="M21.986 50.683c-4.747-.342-9.44-1.537-12.317-3.136-1.639-.912-2.887-2.031-3.377-3.03L6 43.924V6.672l.23-.468c1.032-2.093 4.322-3.98 8.915-5.112 1.559-.385 3.81-.767 5.646-.96 1.875-.198 6.845-.168 8.715.052 4.971.584 9.201 1.892 11.808 3.65 1.005.678 2.037 1.763 2.386 2.51l.3.64-.026 18.57-.025 18.57-.24.488c-.133.269-.533.797-.889 1.175-2.167 2.297-6.817 3.997-12.915 4.721-1.243.148-6.643.267-7.919.176Zm8.749-15.96c-.019-.047-.728-.68-1.577-1.404-.85-.726-1.58-1.353-1.626-1.395-.044-.041.113-.189.35-.327.236-.139.689-.525 1.006-.857.927-.973 1.365-2.175 1.365-3.749 0-1.55-.472-2.8-1.417-3.754-.953-.962-2.047-1.375-3.641-1.375-2.456 0-4.342 1.433-4.945 3.756-.207.8-.206 2.414.003 3.123.543 1.849 2.021 3.191 3.862 3.506.623.107.707.153 1.132.617.252.276.77.827 1.15 1.224l.692.722h1.84c1.011 0 1.824-.039 1.806-.086Zm-6.308-5.15c-.443-.23-.61-.41-.863-.923-.195-.396-.228-.622-.23-1.56-.003-.951.027-1.157.231-1.57.333-.677.793-.997 1.503-1.049.988-.072 1.559.414 1.858 1.58.367 1.43-.036 2.95-.916 3.454-.462.264-1.15.294-1.583.068Zm-8.153 2.654c1.928-.366 3.023-1.487 3.023-3.097 0-1.428-.707-2.26-2.66-3.133-1.118-.499-1.523-.812-1.523-1.178 0-.304.384-.636.831-.72.437-.081 1.596.12 2.28.396l.574.232v-2.54l-.623-.137c-.384-.086-1.193-.137-2.116-.134-1.308 0-1.564.032-2.056.227-1.438.57-2.12 1.543-2.11 3.006.01 1.369.733 2.223 2.53 2.991 1.061.453 1.487.799 1.487 1.207 0 .866-1.445.973-2.974.22l-.836-.413c-.041-.021-.075.572-.075 1.317 0 1.35.001 1.356.246 1.45.92.35 2.953.505 4.002.306Zm22.047-1.252V29.83h-3.486V21.96h-3.088v10.16h6.574v-1.146ZM27.564 10.903c3.068-.213 5.368-.615 7.391-1.291 2.016-.674 3.207-1.49 3.474-2.38.102-.342.095-.472-.049-.847-.643-1.684-4.236-2.978-9.726-3.503-2.349-.224-6.62-.152-8.859.15-3.417.462-6.19 1.32-7.423 2.296-2.494 1.975.144 4.147 6.278 5.17 2.66.443 6.105.6 8.914.405Z" fill="#00BCF2"/></svg><svg fill="none" viewBox="0 0 55 55" id="swift" xmlns="http://www.w3.org/2000/svg"><path d="M41.485 48.543c-6.488 3.795-15.368 4.185-24.358.279C9.87 45.697 3.85 40.228 0 33.977c1.842 1.535 4.014 2.79 6.323 3.907 9.265 4.38 18.502 4.074 25.017 0-9.264-7.227-17.154-16.63-23.01-24.304-1.237-1.256-2.144-2.818-3.08-4.214 22.764 16.882 21.774 21.18 6.626-2.818C25.32 20.333 37.801 28.146 37.801 28.146c.44.25.687.446.99.613a18.29 18.29 0 0 0 .715-2.176C41.676 18.63 39.203 9.506 33.786 2 46.296 9.673 53.72 24.072 50.612 36.154c-.082.307-.165.614-.137 1.088 6.158 7.897 4.508 16.128 3.711 14.566-3.327-6.67-9.567-4.605-12.701-3.265Z" fill="#FE5E2F"/></svg></svg>