<?xml version="1.0" encoding="utf-8"?><svg viewBox="0 0 191 28" xmlns="http://www.w3.org/2000/svg" xmlns:xlink="http://www.w3.org/1999/xlink"><style>:root>svg{display:none}:root>svg:target{display:block}</style><svg fill="none" viewBox="0 0 191 28" id="logo" xmlns="http://www.w3.org/2000/svg"><path d="M13.056 23a33.243 33.243 0 0 0-.6-1.776l-.624-1.824h-6.48a82.842 82.842 0 0 1-.648 1.824c-.208.608-.4 1.2-.576 1.776H.24a296.007 296.007 0 0 1 1.776-4.968c.56-1.52 1.104-2.952 1.632-4.296A221.682 221.682 0 0 1 5.232 9.92a91.287 91.287 0 0 1 1.632-3.552h3.576c.544 1.152 1.08 2.336 1.608 3.552.528 1.2 1.056 2.472 1.584 3.816a145.967 145.967 0 0 1 1.656 4.296c.56 1.52 1.152 3.176 1.776 4.968h-4.008ZM8.568 10.136c-.08.24-.2.568-.36.984l-.552 1.44c-.208.544-.44 1.144-.696 1.8-.24.656-.488 1.344-.744 2.064h4.728c-.256-.72-.504-1.408-.744-2.064a48.66 48.66 0 0 0-.696-1.8l-.552-1.44c-.16-.416-.288-.744-.384-.984ZM29.417 23a83.693 83.693 0 0 0-3.48-5.64 57.318 57.318 0 0 0-3.984-5.256V23h-3.696V6.368h3.048a29.325 29.325 0 0 1 1.752 1.944c.64.768 1.288 1.592 1.944 2.472a62.643 62.643 0 0 1 1.992 2.712c.656.928 1.272 1.824 1.848 2.688V6.368h3.72V23h-3.144Zm9.764-3.048c.177.016.377.032.6.048h.84c1.872 0 3.256-.472 4.152-1.416.912-.944 1.368-2.248 1.368-3.912 0-1.744-.431-3.064-1.295-3.96-.864-.896-2.232-1.344-4.104-1.344-.256 0-.52.008-.792.024-.273 0-.529.016-.769.048v10.512Zm10.825-5.28c0 1.44-.224 2.696-.672 3.768-.449 1.072-1.089 1.96-1.92 2.664-.817.704-1.817 1.232-3 1.584-1.184.352-2.513.528-3.985.528-.672 0-1.456-.032-2.352-.096a18.044 18.044 0 0 1-2.64-.336v-16.2c.864-.16 1.76-.264 2.689-.312a36.628 36.628 0 0 1 2.424-.096c1.424 0 2.712.16 3.864.48 1.167.32 2.167.824 3 1.512.831.688 1.471 1.568 1.92 2.64.447 1.072.671 2.36.671 3.864ZM52.172 23V6.368h11.232v3.144h-7.488v3.264h6.648v3.072h-6.648v4.008h8.04V23H52.173ZM70.639 6.176c2.496 0 4.409.448 5.737 1.344 1.328.88 1.992 2.256 1.992 4.128 0 1.168-.272 2.12-.816 2.856-.529.72-1.297 1.288-2.305 1.704.337.416.689.896 1.056 1.44.368.528.728 1.088 1.08 1.68.368.576.72 1.184 1.056 1.824.337.624.649 1.24.937 1.848h-4.2c-.305-.544-.617-1.096-.936-1.656a27.287 27.287 0 0 0-.96-1.632c-.32-.528-.64-1.024-.96-1.488-.32-.48-.64-.912-.96-1.296H69.51V23h-3.743V6.608c.816-.16 1.656-.272 2.52-.336.88-.064 1.663-.096 2.352-.096Zm.217 3.192c-.272 0-.52.008-.744.024l-.6.048v4.512h1.055c1.409 0 2.417-.176 3.025-.528.608-.352.912-.952.912-1.8 0-.816-.313-1.392-.937-1.728-.607-.352-1.511-.528-2.711-.528Zm19.3 10.776c.529 0 .96-.04 1.297-.12.352-.096.632-.216.84-.36.208-.16.352-.344.432-.552.08-.208.12-.44.12-.696 0-.544-.256-.992-.768-1.344-.512-.368-1.392-.76-2.64-1.176a23.045 23.045 0 0 1-1.632-.648 6.534 6.534 0 0 1-1.464-.936 4.678 4.678 0 0 1-1.056-1.368c-.272-.544-.408-1.2-.408-1.968s.144-1.456.432-2.064a4.404 4.404 0 0 1 1.224-1.584c.528-.432 1.168-.76 1.92-.984.752-.24 1.6-.36 2.544-.36 1.12 0 2.088.12 2.904.36.816.24 1.488.504 2.016.792l-1.08 2.952a9.322 9.322 0 0 0-1.56-.624c-.56-.192-1.24-.288-2.04-.288-.896 0-1.544.128-1.944.384-.384.24-.576.616-.576 1.128 0 .304.072.56.216.768.144.208.344.4.6.576.272.16.576.312.912.456.352.128.736.264 1.152.408.864.32 1.616.64 2.256.96.64.304 1.168.664 1.584 1.08.432.416.752.904.96 1.464.208.56.312 1.24.312 2.04 0 1.552-.544 2.76-1.632 3.624-1.088.848-2.728 1.272-4.92 1.272-.736 0-1.4-.048-1.992-.144-.592-.08-1.12-.184-1.584-.312a9.939 9.939 0 0 1-1.176-.408 9.642 9.642 0 0 1-.816-.408l1.056-2.976c.496.272 1.104.52 1.824.744.736.208 1.632.312 2.688.312ZM98.63 23V6.368h11.232v3.144h-7.488v3.264h6.648v3.072h-6.648v4.008h8.04V23H98.63Zm18.466-16.824c2.496 0 4.408.448 5.736 1.344 1.328.88 1.992 2.256 1.992 4.128 0 1.168-.272 2.12-.816 2.856-.528.72-1.296 1.288-2.304 1.704.336.416.688.896 1.056 1.44.368.528.728 1.088 1.08 1.68.368.576.72 1.184 1.056 1.824.336.624.648 1.24.936 1.848h-4.2c-.304-.544-.616-1.096-.936-1.656a27.287 27.287 0 0 0-.96-1.632c-.32-.528-.64-1.024-.96-1.488-.32-.48-.64-.912-.96-1.296h-1.848V23h-3.744V6.608c.816-.16 1.656-.272 2.52-.336.88-.064 1.664-.096 2.352-.096Zm.216 3.192c-.272 0-.52.008-.744.024l-.6.048v4.512h1.056c1.408 0 2.416-.176 3.024-.528.608-.352.912-.952.912-1.8 0-.816-.312-1.392-.936-1.728-.608-.352-1.512-.528-2.712-.528ZM131.865 23a125.076 125.076 0 0 1-1.944-4.344 164.427 164.427 0 0 1-1.824-4.464 232.847 232.847 0 0 1-1.608-4.224c-.48-1.344-.896-2.544-1.248-3.6h4.128c.32.96.664 2 1.032 3.12l1.152 3.312c.4 1.104.784 2.16 1.152 3.168.368 1.008.712 1.88 1.032 2.616.304-.736.64-1.608 1.008-2.616.384-1.008.768-2.064 1.152-3.168.4-1.104.784-2.208 1.152-3.312.384-1.12.736-2.16 1.056-3.12h3.984a501.444 501.444 0 0 1-1.272 3.6 150.848 150.848 0 0 1-1.584 4.224 164.427 164.427 0 0 1-1.824 4.464A125.076 125.076 0 0 1 135.465 23h-3.6Zm11.416-16.632h3.744V23h-3.744V6.368Zm14.218 16.968c-2.704 0-4.768-.752-6.192-2.256-1.408-1.504-2.112-3.64-2.112-6.408 0-1.376.216-2.6.648-3.672.432-1.088 1.024-2 1.776-2.736a7.347 7.347 0 0 1 2.688-1.704c1.04-.384 2.168-.576 3.384-.576.704 0 1.344.056 1.92.168.576.096 1.08.216 1.512.36.432.128.792.264 1.08.408.288.144.496.256.624.336l-1.08 3.024a8.992 8.992 0 0 0-1.8-.696c-.672-.192-1.44-.288-2.304-.288-.576 0-1.144.096-1.704.288a3.882 3.882 0 0 0-1.464.936c-.416.416-.752.96-1.008 1.632-.256.672-.384 1.488-.384 2.448 0 .768.08 1.488.24 2.16.176.656.448 1.224.816 1.704.384.48.88.864 1.488 1.152.608.272 1.344.408 2.208.408.544 0 1.032-.032 1.464-.096.432-.064.816-.136 1.152-.216.336-.096.632-.2.888-.312.256-.112.488-.216.696-.312l1.032 3c-.528.32-1.272.608-2.232.864-.96.256-2.072.384-3.336.384Zm7.018-.336V6.368h11.232v3.144h-7.488v3.264h6.648v3.072h-6.648v4.008h8.04V23h-11.784Zm18.131-2.856c.528 0 .96-.04 1.296-.12.352-.096.632-.216.84-.36.208-.16.352-.344.432-.552.08-.208.12-.44.12-.696 0-.544-.256-.992-.768-1.344-.512-.368-1.392-.76-2.64-1.176a23.045 23.045 0 0 1-1.632-.648 6.534 6.534 0 0 1-1.464-.936 4.678 4.678 0 0 1-1.056-1.368c-.272-.544-.408-1.2-.408-1.968s.144-1.456.432-2.064a4.404 4.404 0 0 1 1.224-1.584c.528-.432 1.168-.76 1.92-.984.752-.24 1.6-.36 2.544-.36 1.12 0 2.088.12 2.904.36.816.24 1.488.504 2.016.792l-1.08 2.952a9.322 9.322 0 0 0-1.56-.624c-.56-.192-1.24-.288-2.04-.288-.896 0-1.544.128-1.944.384-.384.24-.576.616-.576 1.128 0 .304.072.56.216.768.144.208.344.4.6.576.272.16.576.312.912.456.352.128.736.264 1.152.408.864.32 1.616.64 2.256.96.64.304 1.168.664 1.584 1.08.432.416.752.904.96 1.464.208.56.312 1.24.312 2.04 0 1.552-.544 2.76-1.632 3.624-1.088.848-2.728 1.272-4.92 1.272-.736 0-1.4-.048-1.992-.144-.592-.08-1.12-.184-1.584-.312a9.939 9.939 0 0 1-1.176-.408 9.642 9.642 0 0 1-.816-.408l1.056-2.976c.496.272 1.104.52 1.824.744.736.208 1.632.312 2.688.312Z" fill="#fff"/></svg></svg>